<COLLADA xmlns="http://www.collada.org/2005/11/COLLADASchema" version="1.4.1">
  <asset>
    <created>2026-10-05T22:47:04.707136</created>
    <modified>2026-10-05T22:47:04.707136</modified>
    <up_axis>Y_UP</up_axis>
  </asset>
  <library_effects>
    <effect id="09edd53e5da74fed9663db1f65914dc7" name="09edd53e5da74fed9663db1f65914dc7">
      <profile_COMMON>
        <technique sid="common">
          <phong>
            <emission>
              <color>0.0 0.0 0.0 1.0</color>
            </emission>
            <ambient>
              <color>0.0 0.0 0.0 1.0</color>
            </ambient>
            <diffuse>
              <color>0.9490196078431372 0.9490196078431372 0.9490196078431372 1.0</color>
            </diffuse>
            <specular>
              <color>0.0 0.0 0.0 1.0</color>
            </specular>
            <shininess>
              <float>0.0</float>
            </shininess>
            <reflective>
              <color>0.0 0.0 0.0 1.0</color>
            </reflective>
            <reflectivity>
              <float>0.0</float>
            </reflectivity>
            <transparent>
              <color>0.0 0.0 0.0 1.0</color>
            </transparent>
            <transparency>
              <float>1.0</float>
            </transparency>
          </phong>
        </technique>
        <extra>
          <technique profile="GOOGLEEARTH">
            <double_sided>0</double_sided>
          </technique>
        </extra>
      </profile_COMMON>
    </effect>
  </library_effects>
  <library_geometries>
    <geometry id="7728b14f74774319a26e83f861431560" name="9c9264e70c0c4861af2de2112a1f928b">
      <mesh>
        <source id="verts-array">
          <float_array count="3192" id="verts-array-array">0.01357156 -0.008275269 0.002001301 0.01379996 -0.008275269 0.0009225012 0.01379996 -0.008275269 0.0181645 -0.006663298 -0.008275269 0.01087713 -0.004545828 -0.008275269 0.01180594 -0.01380004 -0.008275269 0.0181645 -0.01380004 -0.008275269 0.0009225012 -0.01357164 -0.008275269 0.002001301 -0.01282084 -0.008275269 0.004188201 -0.01172034 -0.008275269 0.006221771 -0.01030014 -0.008275269 0.008046441 -0.008599018 -0.008275269 0.009612471 -0.002304358 -0.008275269 0.01237356 -3.753248e-08 -0.008275269 0.0125645 0.002304282 -0.008275269 0.01237356 0.004545752 -0.008275269 0.01180594 0.006663222 -0.008275269 0.01087713 0.008598942 -0.008275269 0.009612471 0.01030006 -0.008275269 0.008046441 0.01172026 -0.008275269 0.006221771 0.01282076 -0.008275269 0.004188201 -0.01380004 -0.008275269 -0.003793499 -0.01380004 -0.008275269 -0.0192355 -0.01357164 -0.008275269 -0.004872299 -0.01282084 -0.008275269 -0.007059199 0.01379996 -0.008275269 -0.0192355 0.01379996 -0.008275269 -0.003793499 0.01357156 -0.008275269 -0.004872299 0.01282076 -0.008275269 -0.007059199 0.01172026 -0.008275269 -0.009092799 0.01030006 -0.008275269 -0.0109174 0.008598942 -0.008275269 -0.0124835 0.006663222 -0.008275269 -0.0137481 0.004545752 -0.008275269 -0.0146769 -0.004545828 -0.008275269 -0.0146769 -0.006663298 -0.008275269 -0.0137481 -0.008599018 -0.008275269 -0.0124835 0.002304282 -0.008275269 -0.0152446 -3.753248e-08 -0.008275269 -0.0154355 -0.002304358 -0.008275269 -0.0152446 -0.01030014 -0.008275269 -0.0109174 -0.01172034 -0.008275269 -0.009092799 0.01379996 -0.007275269 -0.0202355 0.01173486 -0.003860193 -0.0202355 0.01234996 -0.002375269 -0.0202355 0.01379996 0.009874731 -0.0202355 -0.01380004 0.009874731 -0.0202355 -0.01173494 -0.0008903494 -0.0202355 -0.01235004 -0.002375269 -0.0202355 -0.01380004 -0.007275269 -0.0202355 -0.01173494 -0.003860193 -0.0202355 -0.01025004 -0.004475269 -0.0202355 0.01024996 -0.004475269 -0.0202355 0.008765042 -0.003860193 -0.0202355 0.008149962 -0.002375269 -0.0202355 -0.008765118 -0.0008903494 -0.0202355 -0.01025004 -0.0002752694 -0.0202355 -0.008765118 -0.003860193 -0.0202355 -0.008150038 -0.002375269 -0.0202355 0.008765042 -0.0008903494 -0.0202355 0.01024996 -0.0002752694 -0.0202355 0.01173486 -0.0008903494 -0.0202355 -0.008500038 0.01722473 0.0166645 -0.01380004 0.01722473 0.0166645 -0.008500038 0.01722473 0.0181645 -0.01380004 0.01722473 0.0181645 0.008499962 0.01722473 0.0181645 0.01379996 0.01722473 0.0181645 0.008499962 0.01722473 0.0166645 0.01379996 0.01722473 0.0166645 0.01479996 0.009874731 -0.0157355 0.01479996 0.01622473 -0.0157355 0.01479996 0.01622473 0.0181645 0.01479996 -0.007275269 -0.0192355 0.01479996 0.009874731 -0.0192355 0.01479996 -0.007275269 -0.003793499 0.01479996 -0.007281939 -0.001435499 0.01479996 -0.007275269 0.0009225012 0.01479996 -0.007275269 0.0181645 0.01379996 0.01622473 0.0191645 -0.01380004 0.01622473 0.0191645 0.01379996 -0.007275269 0.0191645 -0.01380004 -0.007275269 0.0191645 -0.01480004 0.01622473 0.0181645 -0.01480004 0.01622473 -0.0157355 -0.01480004 0.009874731 -0.0157355 -0.01480004 -0.007275269 0.0181645 -0.01480004 0.009874731 -0.0192355 -0.01480004 -0.007275269 -0.0192355 -0.01480004 -0.007275269 -0.003793499 -0.01480004 -0.007281939 -0.001435499 -0.01480004 -0.007275269 0.0009225012 0.01309286 0.01087473 -0.0164426 0.01379996 0.01087473 -0.0167355 0.01379996 0.01087473 -0.0192355 0.01279996 0.01087473 -0.0157355 0.01279996 0.01087473 -0.0177355 0.01069996 0.01087473 -0.0177355 0.01069996 0.01087473 -0.0192355 -0.01070004 0.01087473 -0.0177355 -0.01070004 0.01087473 -0.0192355 -0.01280004 0.01087473 -0.0177355 -0.01380004 0.01087473 -0.0192355 -0.01380004 0.01087473 -0.0167355 -0.01309294 0.01087473 -0.0164426 -0.01280004 0.01087473 -0.0157355 -0.003356898 -0.01147427 0.002921301 -0.003356898 -0.01397527 0.002921301 -0.003250038 -0.01397527 0.003514501 -0.003250038 -0.01122527 0.003514501 -0.003747958 -0.01122527 0.002312401 -0.003747958 -0.01147427 0.002312401 -0.004356808 -0.01147427 0.001921401 -0.004950038 -0.01122527 0.001814501 -0.004356808 -0.01397527 0.001921401 -0.003747958 -0.01122527 0.004716601 -0.003747958 -0.01397527 0.004716601 -0.004950038 -0.01122527 0.005214501 -0.004950038 -0.01397527 0.005214501 -0.006152118 -0.01122527 0.004716601 -0.006152118 -0.01397527 0.004716601 -0.006650038 -0.01122527 0.003514501 -0.006650038 -0.01397527 0.003514501 -0.006152118 -0.01122527 0.002312401 -0.006152118 -0.01397527 0.002312401 -0.004950038 -0.01397527 0.001814501 0.003356822 -0.01147427 -0.005792299 0.003356822 -0.01397527 -0.005792299 0.003249962 -0.01397527 -0.006385499 0.003249962 -0.01122527 -0.006385499 0.003747882 -0.01122527 -0.005183399 0.003747882 -0.01147427 -0.005183399 0.004356732 -0.01147427 -0.004792399 0.004949962 -0.01122527 -0.004685499 0.004356732 -0.01397527 -0.004792399 0.003747882 -0.01122527 -0.007587599 0.003747882 -0.01397527 -0.007587599 0.004949962 -0.01122527 -0.008085499 0.004949962 -0.01397527 -0.008085499 0.006152042 -0.01122527 -0.007587599 0.006152042 -0.01397527 -0.007587599 0.006649962 -0.01122527 -0.006385499 0.006649962 -0.01397527 -0.006385499 0.006152042 -0.01122527 -0.005183399 0.006152042 -0.01397527 -0.005183399 0.004949962 -0.01397527 -0.004685499 0.004356732 -0.01147427 0.001921401 0.004356732 -0.01397527 0.001921401 0.004949962 -0.01397527 0.001814501 0.004949962 -0.01122527 0.001814501 0.003747882 -0.01122527 0.002312401 0.003747882 -0.01147427 0.002312401 0.003356822 -0.01147427 0.002921301 0.003249962 -0.01122527 0.003514501 0.003356822 -0.01397527 0.002921301 0.006152042 -0.01122527 0.002312401 0.006152042 -0.01397527 0.002312401 0.006649962 -0.01122527 0.003514501 0.006649962 -0.01397527 0.003514501 0.006152042 -0.01122527 0.004716601 0.006152042 -0.01397527 0.004716601 0.004949962 -0.01122527 0.005214501 0.004949962 -0.01397527 0.005214501 0.003747882 -0.01122527 0.004716601 0.003747882 -0.01397527 0.004716601 0.003249962 -0.01397527 0.003514501 -0.004356808 -0.01147427 -0.004792399 -0.004356808 -0.01397527 -0.004792399 -0.004950038 -0.01397527 -0.004685499 -0.004950038 -0.01122527 -0.004685499 -0.003747958 -0.01122527 -0.005183399 -0.003747958 -0.01147427 -0.005183399 -0.003356898 -0.01147427 -0.005792299 -0.003250038 -0.01122527 -0.006385499 -0.003356898 -0.01397527 -0.005792299 -0.006152118 -0.01122527 -0.005183399 -0.006152118 -0.01397527 -0.005183399 -0.006650038 -0.01122527 -0.006385499 -0.006650038 -0.01397527 -0.006385499 -0.006152118 -0.01122527 -0.007587599 -0.006152118 -0.01397527 -0.007587599 -0.004950038 -0.01122527 -0.008085499 -0.004950038 -0.01397527 -0.008085499 -0.003747958 -0.01122527 -0.007587599 -0.003747958 -0.01397527 -0.007587599 -0.003250038 -0.01397527 -0.006385499 -0.01280004 0.01087473 -0.0157355 -0.01280004 0.01622473 -0.0157355 -0.01280004 0.01622473 0.0156645 -0.01280004 0.01058183 -0.0170284 -0.01280004 0.01087473 -0.0177355 -0.01280004 0.009874731 -0.0167355 -0.01280004 -0.004775269 0.0156645 -0.01280004 -0.004775269 -0.001435499 -0.01280004 -0.004775269 -0.0167355 0.008499962 -0.004575269 0.0156645 0.008499962 0.01622473 0.0156645 0.01279996 0.01622473 0.0156645 -0.01280004 0.01622473 0.0156645 -0.008500038 0.01622473 0.0156645 -0.01280004 -0.004775269 0.0156645 -0.008500038 -0.004575269 0.0156645 -3.753248e-08 -0.004775269 0.0156645 0.01279996 -0.004775269 0.0156645 -0.002462058 -0.004775269 -0.001001399 -0.002499958 -0.004775269 -0.001455699 -0.01280004 -0.004775269 -0.001435499 0.004949962 -0.004775269 0.0005145012 0.006713322 -0.004775269 0.001087401 0.01279996 -0.004775269 -0.001435499 0.007803132 -0.004775269 0.002587401 0.01279996 -0.004775269 0.0156645 0.007803132 -0.004775269 0.004441601 0.006713322 -0.004775269 0.005941551 -3.753248e-08 -0.004775269 0.0156645 0.004949962 -0.004775269 0.006514501 0.003186602 -0.004775269 0.005941551 0.002499882 -0.004775269 -0.001455699 0.002461982 -0.004775269 -0.001001399 0.003186602 -0.004775269 0.001087401 0.001606932 -0.004775269 0.0004796012 0.002096792 -0.004775269 0.002587401 -3.753248e-08 -0.004775269 0.001064501 0.002096792 -0.004775269 0.004441601 0.01279996 -0.004775269 -0.0167355 0.007803132 -0.004775269 -0.007312599 0.007803132 -0.004775269 -0.005458399 0.006713322 -0.004775269 -0.003958399 0.004949962 -0.004775269 -0.003385499 0.002165022 -0.004775269 -0.002685499 0.003186602 -0.004775269 -0.003958399 0.0008550125 -0.004775269 -0.003784699 0.002096792 -0.004775269 -0.005458399 -3.753248e-08 -0.004775269 -0.003935499 0.002096792 -0.004775269 -0.007312599 -3.753248e-08 -0.004775269 -0.0167355 0.003186602 -0.004775269 -0.008812599 0.004949962 -0.004775269 -0.009385499 0.006713322 -0.004775269 -0.008812599 -0.006713398 -0.004775269 -0.003958399 -0.007803208 -0.004775269 -0.005458399 -0.01280004 -0.004775269 -0.0167355 -0.004950038 -0.004775269 -0.009385499 -0.006713398 -0.004775269 -0.008812599 -0.007803208 -0.004775269 -0.007312599 -0.002096868 -0.004775269 -0.005458399 -0.002096868 -0.004775269 -0.007312599 -0.003186678 -0.004775269 -0.008812599 -0.004950038 -0.004775269 -0.003385499 -0.003186678 -0.004775269 -0.003958399 -0.002165098 -0.004775269 -0.002685499 -0.0008550875 -0.004775269 -0.003784699 -0.002096868 -0.004775269 0.004441601 -0.01280004 -0.004775269 0.0156645 -0.007803208 -0.004775269 0.004441601 -0.003186678 -0.004775269 0.005941551 -0.004950038 -0.004775269 0.006514501 -0.006713398 -0.004775269 0.005941551 -0.007803208 -0.004775269 0.002587401 -0.006713398 -0.004775269 0.001087401 -0.004950038 -0.004775269 0.0005145012 -0.001607008 -0.004775269 0.0004796012 -0.003186678 -0.004775269 0.001087401 -0.002096868 -0.004775269 0.002587401 0.01279996 0.009874731 -0.0167355 0.009699962 0.009874731 -0.0167355 0.009699962 2.473055e-05 -0.0167355 -0.009700038 2.473055e-05 -0.0167355 0.009401432 -0.001526739 -0.0167355 0.01024996 -0.001175269 -0.0167355 0.01109846 -0.001526739 -0.0167355 0.01144996 -0.002375269 -0.0167355 0.01279996 -0.004775269 -0.0167355 0.01109846 -0.003223799 -0.0167355 0.01024996 -0.003575269 -0.0167355 -3.753248e-08 -0.004775269 -0.0167355 0.009401432 -0.003223799 -0.0167355 0.009049962 -0.002375269 -0.0167355 -0.01280004 -0.004775269 -0.0167355 -0.01025004 -0.003575269 -0.0167355 -0.009401508 -0.003223799 -0.0167355 -0.01109854 -0.001526739 -0.0167355 -0.01280004 0.009874731 -0.0167355 -0.01145004 -0.002375269 -0.0167355 -0.01109854 -0.003223799 -0.0167355 -0.009050038 -0.002375269 -0.0167355 -0.009401508 -0.001526739 -0.0167355 -0.01025004 -0.001175269 -0.0167355 -0.009700038 0.009874731 -0.0167355 0.01279996 -0.004775269 -0.001435499 0.01279996 -0.004775269 0.0156645 0.01279996 0.01087473 -0.0157355 0.01279996 0.01622473 0.0156645 0.01279996 0.01622473 -0.0157355 0.01279996 -0.004775269 -0.0167355 0.01279996 0.009874731 -0.0167355 0.01279996 0.01058183 -0.0170284 0.01279996 0.01087473 -0.0177355 0.007792852 -0.004575269 0.01595739 0.008499962 -0.004575269 0.0156645 -0.008500038 -0.004575269 0.0156645 -0.007500038 -0.004575269 0.0166645 -0.007500038 -0.004575269 0.0172645 0.007499962 -0.004575269 0.0172645 -0.007792928 -0.004575269 0.01595739 0.007499962 -0.004575269 0.0166645 0.007499962 -0.004575269 0.0166645 0.007499962 -0.004575269 0.0172645 0.007499962 0.01622473 0.0166645 0.007499962 0.01622473 0.0172645 -0.007500038 0.01622473 0.0166645 -0.007500038 0.01622473 0.0172645 -0.007500038 -0.004575269 0.0166645 -0.007500038 -0.004575269 0.0172645 0.007499962 0.01622473 0.0172645 0.007499962 -0.004575269 0.0172645 -0.007500038 0.01622473 0.0172645 -0.007500038 -0.004575269 0.0172645 0.009699962 2.473055e-05 -0.0190355 -0.009700038 2.473055e-05 -0.0190355 0.009699962 2.473055e-05 -0.0167355 -0.009700038 2.473055e-05 -0.0167355 -0.009700038 0.009874731 -0.0190355 -0.009700038 2.473055e-05 -0.0190355 0.009699962 0.009874731 -0.0190355 0.009699962 2.473055e-05 -0.0190355 0.009699962 0.009874731 -0.0190355 0.009699962 2.473055e-05 -0.0190355 0.009699962 0.009874731 -0.0167355 0.009699962 2.473055e-05 -0.0167355 -0.009700038 0.009874731 -0.0167355 -0.009700038 2.473055e-05 -0.0167355 -0.009700038 0.009874731 -0.0190355 -0.009700038 2.473055e-05 -0.0190355 -0.009050038 -0.002375269 -0.0187355 -0.009050038 -0.002375269 -0.0167355 -0.009401508 -0.001526739 -0.0187355 -0.009401508 -0.001526739 -0.0167355 -0.01025004 -0.001175269 -0.0187355 -0.01025004 -0.001175269 -0.0167355 -0.01109854 -0.001526739 -0.0187355 -0.01109854 -0.001526739 -0.0167355 -0.01145004 -0.002375269 -0.0187355 -0.01145004 -0.002375269 -0.0167355 -0.01109854 -0.003223799 -0.0187355 -0.01109854 -0.003223799 -0.0167355 -0.01025004 -0.003575269 -0.0187355 -0.01025004 -0.003575269 -0.0167355 -0.009401508 -0.003223799 -0.0187355 -0.009401508 -0.003223799 -0.0167355 0.01144996 -0.002375269 -0.0187355 0.01144996 -0.002375269 -0.0167355 0.01109846 -0.001526739 -0.0187355 0.01109846 -0.001526739 -0.0167355 0.01024996 -0.001175269 -0.0187355 0.01024996 -0.001175269 -0.0167355 0.009401432 -0.001526739 -0.0187355 0.009401432 -0.001526739 -0.0167355 0.009049962 -0.002375269 -0.0187355 0.009049962 -0.002375269 -0.0167355 0.009401432 -0.003223799 -0.0187355 0.009401432 -0.003223799 -0.0167355 0.01024996 -0.003575269 -0.0187355 0.01024996 -0.003575269 -0.0167355 0.01109846 -0.003223799 -0.0187355 0.01109846 -0.003223799 -0.0167355 0.01234996 -0.002375269 -0.0202355 0.01234996 -0.002375269 -0.0187355 0.01173486 -0.0008903494 -0.0202355 0.01173486 -0.0008903494 -0.0187355 0.01024996 -0.0002752694 -0.0202355 0.01024996 -0.0002752694 -0.0187355 0.008765042 -0.0008903494 -0.0202355 0.008765042 -0.0008903494 -0.0187355 0.008149962 -0.002375269 -0.0202355 0.008149962 -0.002375269 -0.0187355 0.008765042 -0.003860193 -0.0202355 0.008765042 -0.003860193 -0.0187355 0.01024996 -0.004475269 -0.0202355 0.01024996 -0.004475269 -0.0187355 0.01173486 -0.003860193 -0.0202355 0.01173486 -0.003860193 -0.0187355 0.009401432 -0.001526739 -0.0187355 0.008765042 -0.0008903494 -0.0187355 0.01024996 -0.001175269 -0.0187355 0.01024996 -0.0002752694 -0.0187355 0.01109846 -0.001526739 -0.0187355 0.01173486 -0.0008903494 -0.0187355 0.01144996 -0.002375269 -0.0187355 0.01234996 -0.002375269 -0.0187355 0.01109846 -0.003223799 -0.0187355 0.01173486 -0.003860193 -0.0187355 0.01024996 -0.003575269 -0.0187355 0.01024996 -0.004475269 -0.0187355 0.009401432 -0.003223799 -0.0187355 0.008765042 -0.003860193 -0.0187355 0.009049962 -0.002375269 -0.0187355 0.008149962 -0.002375269 -0.0187355 -0.008150038 -0.002375269 -0.0202355 -0.008150038 -0.002375269 -0.0187355 -0.008765118 -0.0008903494 -0.0202355 -0.008765118 -0.0008903494 -0.0187355 -0.01025004 -0.0002752694 -0.0202355 -0.01025004 -0.0002752694 -0.0187355 -0.01173494 -0.0008903494 -0.0202355 -0.01173494 -0.0008903494 -0.0187355 -0.01235004 -0.002375269 -0.0202355 -0.01235004 -0.002375269 -0.0187355 -0.01173494 -0.003860193 -0.0202355 -0.01173494 -0.003860193 -0.0187355 -0.01025004 -0.004475269 -0.0202355 -0.01025004 -0.004475269 -0.0187355 -0.008765118 -0.003860193 -0.0202355 -0.008765118 -0.003860193 -0.0187355 -0.01109854 -0.001526739 -0.0187355 -0.01173494 -0.0008903494 -0.0187355 -0.01025004 -0.001175269 -0.0187355 -0.01025004 -0.0002752694 -0.0187355 -0.009401508 -0.001526739 -0.0187355 -0.008765118 -0.0008903494 -0.0187355 -0.009050038 -0.002375269 -0.0187355 -0.008150038 -0.002375269 -0.0187355 -0.009401508 -0.003223799 -0.0187355 -0.008765118 -0.003860193 -0.0187355 -0.01025004 -0.003575269 -0.0187355 -0.01025004 -0.004475269 -0.0187355 -0.01109854 -0.003223799 -0.0187355 -0.01173494 -0.003860193 -0.0187355 -0.01145004 -0.002375269 -0.0187355 -0.01235004 -0.002375269 -0.0187355 -0.005711408 -0.01527527 -0.0119892 -0.001975178 -0.01527527 -0.0132718 -3.753248e-08 -0.01527527 -0.0118355 0.001975102 -0.01527527 -0.0132718 0.003556972 -0.01527527 -0.0112083 0.005711332 -0.01527527 -0.0119892 0.006684952 -0.01527527 -0.009402399 0.008828652 -0.01527527 -0.009562899 0.009006622 -0.01527527 -0.006635499 0.01098926 -0.01527527 -0.006255799 0.01024196 -0.01527527 -0.003241399 0.01195896 -0.01527527 -0.002426499 0.01024196 -0.01527527 0.0003704012 0.01163276 -0.01527527 0.001510301 0.009006622 -0.01527527 0.003764501 0.01004596 -0.01527527 0.005127901 0.006684952 -0.01527527 0.006531361 0.007370512 -0.01527527 0.008034191 0.003556972 -0.01527527 0.008337301 0.003896352 -0.01527527 0.009914311 -3.753248e-08 -0.01527527 0.008964501 -3.753248e-08 -0.01527527 0.0105645 -0.003557048 -0.01527527 0.008337301 -0.003896428 -0.01527527 0.009914311 -0.006685028 -0.01527527 0.006531361 -0.007370588 -0.01527527 0.008034191 -0.009006698 -0.01527527 0.003764501 -0.01004604 -0.01527527 0.005127901 -0.01024204 -0.01527527 0.0003704012 -0.01163284 -0.01527527 0.001510301 -0.01024204 -0.01527527 -0.003241399 -0.01195904 -0.01527527 -0.002426499 -0.009006698 -0.01527527 -0.006635499 -0.01098934 -0.01527527 -0.006255799 -0.006685028 -0.01527527 -0.009402399 -0.008828728 -0.01527527 -0.009562899 -0.003557048 -0.01527527 -0.0112083 -0.003896428 -0.01527527 0.009914311 -3.753248e-08 -0.01527527 0.0105645 -0.001975178 -0.01027527 0.01040084 -0.003896428 -0.01027527 0.009914311 -0.005711408 -0.01027527 0.009118191 -0.007370588 -0.01527527 0.008034191 -0.007370588 -0.01027527 0.008034191 -0.008828728 -0.01027527 0.006691881 -0.01004604 -0.01527527 0.005127901 -0.01004604 -0.01027527 0.005127901 -0.01098934 -0.01027527 0.003384801 -0.01163284 -0.01527527 0.001510301 -0.01163284 -0.01027527 0.001510301 -0.01195904 -0.01027527 -0.0004444988 -0.01195904 -0.01527527 -0.002426499 -0.01195904 -0.01027527 -0.002426499 -0.01163284 -0.01027527 -0.004381299 -0.01098934 -0.01527527 -0.006255799 -0.01098934 -0.01027527 -0.006255799 -0.01004604 -0.01027527 -0.007998899 -0.008828728 -0.01527527 -0.009562899 -0.008828728 -0.01027527 -0.009562899 -0.007370588 -0.01027527 -0.0109052 -0.005711408 -0.01527527 -0.0119892 -0.005711408 -0.01027527 -0.0119892 -0.003896428 -0.01027527 -0.0127853 -0.001975178 -0.01527527 -0.0132718 -0.001975178 -0.01027527 -0.0132718 -3.753248e-08 -0.01027527 -0.0134355 0.001975102 -0.01527527 -0.0132718 0.001975102 -0.01027527 -0.0132718 0.003896352 -0.01027527 -0.0127853 0.005711332 -0.01527527 -0.0119892 0.005711332 -0.01027527 -0.0119892 0.007370512 -0.01027527 -0.0109052 0.008828652 -0.01527527 -0.009562899 0.008828652 -0.01027527 -0.009562899 0.01004596 -0.01027527 -0.007998899 0.01098926 -0.01527527 -0.006255799 0.01098926 -0.01027527 -0.006255799 0.01163276 -0.01027527 -0.004381299 0.01195896 -0.01527527 -0.002426499 0.01195896 -0.01027527 -0.002426499 0.01195896 -0.01027527 -0.0004444988 0.01163276 -0.01527527 0.001510301 0.01163276 -0.01027527 0.001510301 0.01098926 -0.01027527 0.003384801 0.01004596 -0.01527527 0.005127901 0.01004596 -0.01027527 0.005127901 0.008828652 -0.01027527 0.006691881 0.007370512 -0.01527527 0.008034191 0.007370512 -0.01027527 0.008034191 0.005711332 -0.01027527 0.009118191 0.003896352 -0.01527527 0.009914311 0.003896352 -0.01027527 0.009914311 0.001975102 -0.01027527 0.01040084 -3.753248e-08 -0.01027527 0.0105645 -0.003356898 -0.01397527 -0.005792299 -0.003250038 -0.01397527 -0.006385499 -0.001194018 -0.01397527 -0.006804299 -0.003747958 -0.01397527 -0.007587599 0.004356732 -0.01397527 -0.004792399 0.004949962 -0.01397527 -0.004685499 0.005368802 -0.01397527 -0.002629499 0.006152042 -0.01397527 -0.005183399 0.003356822 -0.01397527 -0.005792299 0.001193942 -0.01397527 -0.006804299 0.003249962 -0.01397527 -0.006385499 -3.753248e-08 -0.01397527 -0.0118355 -0.006152118 -0.01397527 0.002312401 -0.005368878 -0.01397527 -0.0002414988 -0.004950038 -0.01397527 0.001814501 -0.004356808 -0.01397527 0.001921401 0.003747882 -0.01397527 0.004716601 0.001193942 -0.01397527 0.003933301 0.003249962 -0.01397527 0.003514501 0.003356822 -0.01397527 0.002921301 -0.005368878 -0.01397527 -0.002629499 -0.01024204 -0.01397527 0.0003704012 -0.009006698 -0.01397527 0.003764501 -0.006650038 -0.01397527 0.003514501 -0.006685028 -0.01397527 0.006531361 -0.006152118 -0.01397527 0.004716601 -0.003557048 -0.01397527 0.008337301 -0.004950038 -0.01397527 0.005214501 -3.753248e-08 -0.01397527 0.008964501 0.005368802 -0.01397527 -0.0002414988 0.01024196 -0.01397527 -0.003241399 0.009006622 -0.01397527 -0.006635499 0.006649962 -0.01397527 -0.006385499 0.006684952 -0.01397527 -0.009402399 0.006152042 -0.01397527 -0.007587599 0.003556972 -0.01397527 -0.0112083 0.004949962 -0.01397527 -0.008085499 0.003747882 -0.01397527 -0.007587599 -0.004356808 -0.01397527 -0.004792399 -0.004950038 -0.01397527 -0.004685499 -0.006152118 -0.01397527 -0.005183399 -0.01024204 -0.01397527 -0.003241399 -0.006650038 -0.01397527 -0.006385499 -0.009006698 -0.01397527 -0.006635499 -0.006152118 -0.01397527 -0.007587599 -0.006685028 -0.01397527 -0.009402399 -0.004950038 -0.01397527 -0.008085499 -0.003557048 -0.01397527 -0.0112083 -0.003356898 -0.01397527 0.002921301 -0.001194018 -0.01397527 0.003933301 -0.003250038 -0.01397527 0.003514501 -0.003747958 -0.01397527 0.004716601 0.003556972 -0.01397527 0.008337301 0.004949962 -0.01397527 0.005214501 0.006684952 -0.01397527 0.006531361 0.006152042 -0.01397527 0.004716601 0.009006622 -0.01397527 0.003764501 0.006649962 -0.01397527 0.003514501 0.01024196 -0.01397527 0.0003704012 0.006152042 -0.01397527 0.002312401 0.004949962 -0.01397527 0.001814501 0.004356732 -0.01397527 0.001921401 -3.753248e-08 -0.01527527 0.008964501 -3.753248e-08 -0.01397527 0.008964501 0.003556972 -0.01527527 0.008337301 0.003556972 -0.01397527 0.008337301 0.006684952 -0.01527527 0.006531361 0.006684952 -0.01397527 0.006531361 0.009006622 -0.01527527 0.003764501 0.009006622 -0.01397527 0.003764501 0.01024196 -0.01527527 0.0003704012 0.01024196 -0.01397527 0.0003704012 0.01024196 -0.01527527 -0.003241399 0.01024196 -0.01397527 -0.003241399 0.009006622 -0.01527527 -0.006635499 0.009006622 -0.01397527 -0.006635499 0.006684952 -0.01527527 -0.009402399 0.006684952 -0.01397527 -0.009402399 0.003556972 -0.01527527 -0.0112083 0.003556972 -0.01397527 -0.0112083 -3.753248e-08 -0.01527527 -0.0118355 -3.753248e-08 -0.01397527 -0.0118355 -0.003557048 -0.01527527 -0.0112083 -0.003557048 -0.01397527 -0.0112083 -0.006685028 -0.01527527 -0.009402399 -0.006685028 -0.01397527 -0.009402399 -0.009006698 -0.01527527 -0.006635499 -0.009006698 -0.01397527 -0.006635499 -0.01024204 -0.01527527 -0.003241399 -0.01024204 -0.01397527 -0.003241399 -0.01024204 -0.01527527 0.0003704012 -0.01024204 -0.01397527 0.0003704012 -0.009006698 -0.01527527 0.003764501 -0.009006698 -0.01397527 0.003764501 -0.006685028 -0.01527527 0.006531361 -0.006685028 -0.01397527 0.006531361 -0.003557048 -0.01527527 0.008337301 -0.003557048 -0.01397527 0.008337301 -0.004950038 -0.01122527 0.006514501 -0.004950038 -0.004775269 0.006514501 -0.003186678 -0.01122527 0.005941551 -0.003186678 -0.004775269 0.005941551 -0.002096868 -0.01122527 0.004441601 -0.002096868 -0.004775269 0.004441601 -0.002096868 -0.01122527 0.002587401 -0.002096868 -0.004775269 0.002587401 -0.003186678 -0.01122527 0.001087401 -0.003186678 -0.004775269 0.001087401 -0.004950038 -0.01122527 0.0005145012 -0.004950038 -0.004775269 0.0005145012 -0.006713398 -0.01122527 0.001087401 -0.006713398 -0.004775269 0.001087401 -0.007803208 -0.01122527 0.002587401 -0.007803208 -0.004775269 0.002587401 -0.007803208 -0.01122527 0.004441601 -0.007803208 -0.004775269 0.004441601 -0.006713398 -0.01122527 0.005941551 -0.006713398 -0.004775269 0.005941551 -0.006650038 -0.01122527 0.003514501 -0.007803208 -0.01122527 0.004441601 -0.006152118 -0.01122527 0.004716601 -0.006713398 -0.01122527 0.005941551 -0.004950038 -0.01122527 0.005214501 -0.004950038 -0.01122527 0.006514501 -0.003747958 -0.01122527 0.004716601 -0.003186678 -0.01122527 0.005941551 -0.003250038 -0.01122527 0.003514501 -0.002096868 -0.01122527 0.004441601 -0.002096868 -0.01122527 0.002587401 -0.003747958 -0.01122527 0.002312401 -0.003186678 -0.01122527 0.001087401 -0.004950038 -0.01122527 0.001814501 -0.004950038 -0.01122527 0.0005145012 -0.006152118 -0.01122527 0.002312401 -0.006713398 -0.01122527 0.001087401 -0.007803208 -0.01122527 0.002587401 0.004949962 -0.01122527 -0.003385499 0.004949962 -0.004775269 -0.003385499 0.006713322 -0.01122527 -0.003958399 0.006713322 -0.004775269 -0.003958399 0.007803132 -0.01122527 -0.005458399 0.007803132 -0.004775269 -0.005458399 0.007803132 -0.01122527 -0.007312599 0.007803132 -0.004775269 -0.007312599 0.006713322 -0.01122527 -0.008812599 0.006713322 -0.004775269 -0.008812599 0.004949962 -0.01122527 -0.009385499 0.004949962 -0.004775269 -0.009385499 0.003186602 -0.01122527 -0.008812599 0.003186602 -0.004775269 -0.008812599 0.002096792 -0.01122527 -0.007312599 0.002096792 -0.004775269 -0.007312599 0.002096792 -0.01122527 -0.005458399 0.002096792 -0.004775269 -0.005458399 0.003186602 -0.01122527 -0.003958399 0.003186602 -0.004775269 -0.003958399 0.006649962 -0.01122527 -0.006385499 0.007803132 -0.01122527 -0.007312599 0.006152042 -0.01122527 -0.007587599 0.006713322 -0.01122527 -0.008812599 0.004949962 -0.01122527 -0.008085499 0.004949962 -0.01122527 -0.009385499 0.003747882 -0.01122527 -0.007587599 0.003186602 -0.01122527 -0.008812599 0.003249962 -0.01122527 -0.006385499 0.002096792 -0.01122527 -0.007312599 0.002096792 -0.01122527 -0.005458399 0.003747882 -0.01122527 -0.005183399 0.003186602 -0.01122527 -0.003958399 0.004949962 -0.01122527 -0.004685499 0.004949962 -0.01122527 -0.003385499 0.006152042 -0.01122527 -0.005183399 0.006713322 -0.01122527 -0.003958399 0.007803132 -0.01122527 -0.005458399 0.004949962 -0.01122527 0.006514501 0.004949962 -0.004775269 0.006514501 0.006713322 -0.01122527 0.005941551 0.006713322 -0.004775269 0.005941551 0.007803132 -0.01122527 0.004441601 0.007803132 -0.004775269 0.004441601 0.007803132 -0.01122527 0.002587401 0.007803132 -0.004775269 0.002587401 0.006713322 -0.01122527 0.001087401 0.006713322 -0.004775269 0.001087401 0.004949962 -0.01122527 0.0005145012 0.004949962 -0.004775269 0.0005145012 0.003186602 -0.01122527 0.001087401 0.003186602 -0.004775269 0.001087401 0.002096792 -0.01122527 0.002587401 0.002096792 -0.004775269 0.002587401 0.002096792 -0.01122527 0.004441601 0.002096792 -0.004775269 0.004441601 0.003186602 -0.01122527 0.005941551 0.003186602 -0.004775269 0.005941551 0.003249962 -0.01122527 0.003514501 0.002096792 -0.01122527 0.004441601 0.003747882 -0.01122527 0.004716601 0.003186602 -0.01122527 0.005941551 0.004949962 -0.01122527 0.005214501 0.004949962 -0.01122527 0.006514501 0.006152042 -0.01122527 0.004716601 0.006713322 -0.01122527 0.005941551 0.006649962 -0.01122527 0.003514501 0.007803132 -0.01122527 0.004441601 0.007803132 -0.01122527 0.002587401 0.006152042 -0.01122527 0.002312401 0.006713322 -0.01122527 0.001087401 0.004949962 -0.01122527 0.001814501 0.004949962 -0.01122527 0.0005145012 0.003747882 -0.01122527 0.002312401 0.003186602 -0.01122527 0.001087401 0.002096792 -0.01122527 0.002587401 -0.004950038 -0.01122527 -0.003385499 -0.004950038 -0.004775269 -0.003385499 -0.003186678 -0.01122527 -0.003958399 -0.003186678 -0.004775269 -0.003958399 -0.002096868 -0.01122527 -0.005458399 -0.002096868 -0.004775269 -0.005458399 -0.002096868 -0.01122527 -0.007312599 -0.002096868 -0.004775269 -0.007312599 -0.003186678 -0.01122527 -0.008812599 -0.003186678 -0.004775269 -0.008812599 -0.004950038 -0.01122527 -0.009385499 -0.004950038 -0.004775269 -0.009385499 -0.006713398 -0.01122527 -0.008812599 -0.006713398 -0.004775269 -0.008812599 -0.007803208 -0.01122527 -0.007312599 -0.007803208 -0.004775269 -0.007312599 -0.007803208 -0.01122527 -0.005458399 -0.007803208 -0.004775269 -0.005458399 -0.006713398 -0.01122527 -0.003958399 -0.006713398 -0.004775269 -0.003958399 -0.003250038 -0.01122527 -0.006385499 -0.002096868 -0.01122527 -0.007312599 -0.003747958 -0.01122527 -0.007587599 -0.003186678 -0.01122527 -0.008812599 -0.004950038 -0.01122527 -0.008085499 -0.004950038 -0.01122527 -0.009385499 -0.006152118 -0.01122527 -0.007587599 -0.006713398 -0.01122527 -0.008812599 -0.006650038 -0.01122527 -0.006385499 -0.007803208 -0.01122527 -0.007312599 -0.007803208 -0.01122527 -0.005458399 -0.006152118 -0.01122527 -0.005183399 -0.006713398 -0.01122527 -0.003958399 -0.004950038 -0.01122527 -0.004685499 -0.004950038 -0.01122527 -0.003385499 -0.003747958 -0.01122527 -0.005183399 -0.003186678 -0.01122527 -0.003958399 -0.002096868 -0.01122527 -0.005458399 -0.003356898 -0.01397527 0.002921301 -0.003356898 -0.01147427 0.002921301 -0.001194018 -0.01397527 0.003933301 -0.001194018 -0.01147427 0.003933301 0.001193942 -0.01397527 0.003933301 0.001193942 -0.01147427 0.003933301 0.003356822 -0.01397527 0.002921301 0.003356822 -0.01147427 0.002921301 -0.004356808 -0.01397527 -0.004792399 -0.004356808 -0.01147427 -0.004792399 -0.005368878 -0.01397527 -0.002629499 -0.005368878 -0.01147427 -0.002629499 -0.005368878 -0.01397527 -0.0002414988 -0.005368878 -0.01147427 -0.0002414988 -0.004356808 -0.01397527 0.001921401 -0.004356808 -0.01147427 0.001921401 0.003356822 -0.01397527 -0.005792299 0.003356822 -0.01147427 -0.005792299 0.001193942 -0.01397527 -0.006804299 0.001193942 -0.01147427 -0.006804299 -0.001194018 -0.01397527 -0.006804299 -0.001194018 -0.01147427 -0.006804299 -0.003356898 -0.01397527 -0.005792299 -0.003356898 -0.01147427 -0.005792299 0.004356732 -0.01397527 0.001921401 0.004356732 -0.01147427 0.001921401 0.005368802 -0.01397527 -0.0002414988 0.005368802 -0.01147427 -0.0002414988 0.005368802 -0.01397527 -0.002629499 0.005368802 -0.01147427 -0.002629499 0.004356732 -0.01397527 -0.004792399 0.004356732 -0.01147427 -0.004792399 0.0008550125 -0.01147427 -0.003784699 -0.0008550875 -0.01147427 -0.003784699 -0.001194018 -0.01147427 -0.006804299 -0.003356898 -0.01147427 -0.005792299 -0.002165098 -0.01147427 -0.002685499 -0.003747958 -0.01147427 -0.005183399 -0.002462058 -0.01147427 -0.001001399 -0.005368878 -0.01147427 -0.002629499 -0.004356808 -0.01147427 -0.004792399 -0.003356898 -0.01147427 0.002921301 -0.001607008 -0.01147427 0.0004796012 -0.001194018 -0.01147427 0.003933301 -3.753248e-08 -0.01147427 0.001064501 0.002165022 -0.01147427 -0.002685499 0.004356732 -0.01147427 -0.004792399 0.005368802 -0.01147427 -0.002629499 -0.003747958 -0.01147427 0.002312401 -0.004356808 -0.01147427 0.001921401 -0.005368878 -0.01147427 -0.0002414988 0.001606932 -0.01147427 0.0004796012 0.003356822 -0.01147427 0.002921301 0.001193942 -0.01147427 0.003933301 0.002461982 -0.01147427 -0.001001399 0.001193942 -0.01147427 -0.006804299 0.003356822 -0.01147427 -0.005792299 0.003747882 -0.01147427 -0.005183399 0.005368802 -0.01147427 -0.0002414988 0.004356732 -0.01147427 0.001921401 0.003747882 -0.01147427 0.002312401 0.002461982 -0.01147427 -0.001001399 0.002499882 -0.004775269 -0.001455699 0.002165022 -0.01147427 -0.002685499 0.002165022 -0.004775269 -0.002685499 0.0008550125 -0.01147427 -0.003784699 0.0008550125 -0.004775269 -0.003784699 -3.753248e-08 -0.004775269 -0.003935499 -0.0008550875 -0.01147427 -0.003784699 -0.0008550875 -0.004775269 -0.003784699 -0.002165098 -0.01147427 -0.002685499 -0.002165098 -0.004775269 -0.002685499 -0.002499958 -0.004775269 -0.001455699 -0.002462058 -0.01147427 -0.001001399 -0.002462058 -0.004775269 -0.001001399 -0.001607008 -0.01147427 0.0004796012 -0.001607008 -0.004775269 0.0004796012 -3.753248e-08 -0.01147427 0.001064501 -3.753248e-08 -0.004775269 0.001064501 0.001606932 -0.01147427 0.0004796012 0.001606932 -0.004775269 0.0004796012 0.002461982 -0.004775269 -0.001001399 0.01260216 -0.008543219 0.001755801 0.01295556 -0.008543219 -0.0003619988 0.01386666 -0.008279719 -0.001435499 0.01295556 -0.008543219 -0.002508999 0.01260216 -0.008543219 -0.004626799 -0.01260224 -0.008543219 -0.004626799 -0.01295564 -0.008543219 -0.002508999 -0.01386674 -0.008279719 -0.001435499 -0.01295564 -0.008543219 -0.0003619988 -0.01260224 -0.008543219 0.001755801 0.002019202 -0.009275269 -0.0135361 0.003983362 -0.009275269 -0.0130387 0.005838862 -0.009275269 -0.0122248 0.007535092 -0.009275269 -0.0111166 0.009025782 -0.009275269 -0.009744399 0.01027026 -0.009275269 -0.008145399 0.01123466 -0.009275269 -0.006363499 0.01189256 -0.009275269 -0.004447099 0.01222596 -0.009275269 -0.002448599 0.01222596 -0.009275269 -0.0004223988 0.01189256 -0.009275269 0.001576101 0.01123466 -0.009275269 0.003492501 0.01027026 -0.009275269 0.005274401 0.009025782 -0.009275269 0.006873361 0.007535092 -0.009275269 0.008245641 0.005838862 -0.009275269 0.009353841 0.003983362 -0.009275269 0.01016774 0.002019202 -0.009275269 0.01066513 -3.753248e-08 -0.009275269 0.01083245 -0.002019278 -0.009275269 0.01066513 -0.003983438 -0.009275269 0.01016774 -0.005838938 -0.009275269 0.009353841 -0.007535168 -0.009275269 0.008245641 -0.009025858 -0.009275269 0.006873361 -0.01027034 -0.009275269 0.005274401 -0.01123474 -0.009275269 0.003492501 -0.01189264 -0.009275269 0.001576101 -0.01222604 -0.009275269 -0.0004223988 -0.01222604 -0.009275269 -0.002448599 -0.01189264 -0.009275269 -0.004447099 -0.01123474 -0.009275269 -0.006363499 -0.01027034 -0.009275269 -0.008145399 -0.009025858 -0.009275269 -0.009744399 -0.007535168 -0.009275269 -0.0111166 -0.005838938 -0.009275269 -0.0122248 -0.003983438 -0.009275269 -0.0130387 -0.002019278 -0.009275269 -0.0135361 -3.753248e-08 -0.009275269 -0.0137035 0.002139692 -0.008543219 -0.0142582 0.004221052 -0.008543219 -0.0137311 0.006187282 -0.008543219 -0.0128687 0.007984732 -0.008543219 -0.0116943 0.009564372 -0.008543219 -0.0102402 0.01088316 -0.008543219 -0.008545799 0.01190506 -0.008543219 -0.006657499 0.01190506 -0.008543219 0.003786501 0.01088316 -0.008543219 0.005674831 0.009564372 -0.008543219 0.007369161 0.007984732 -0.008543219 0.008823331 0.006187282 -0.008543219 0.009997661 0.004221052 -0.008543219 0.01086012 0.002139692 -0.008543219 0.0113872 -3.753248e-08 -0.008543219 0.0115645 -0.002139768 -0.008543219 0.0113872 -0.004221128 -0.008543219 0.01086012 -0.006187358 -0.008543219 0.009997661 -0.007984808 -0.008543219 0.008823331 -0.009564448 -0.008543219 0.007369161 -0.01088324 -0.008543219 0.005674831 -0.01190514 -0.008543219 0.003786501 -0.01190514 -0.008543219 -0.006657499 -0.01088324 -0.008543219 -0.008545799 -0.009564448 -0.008543219 -0.0102402 -0.007984808 -0.008543219 -0.0116943 -0.006187358 -0.008543219 -0.0128687 -0.004221128 -0.008543219 -0.0137311 -0.002139768 -0.008543219 -0.0142582 -3.753248e-08 -0.008543219 -0.0144355 -0.008445318 0.01722263 0.01819953 -0.008500038 0.01722353 0.0182145 0.008499962 0.01722353 0.0182145 -0.008400038 0.01721973 0.0181645 0.008445242 0.01722263 0.01819953 -0.007792928 0.01693183 0.01755739 0.007571372 0.01659583 0.01733591 -0.007571448 0.01659583 0.01733591 0.007775392 0.01691393 0.01753993 0.008399962 0.01721973 0.0181645 0.009776082 0.01025743 -0.0168116 0.01279996 0.01058183 -0.0170284 0.009992852 0.01058183 -0.0170284 0.01029996 0.01079123 -0.0196355 0.01000186 0.01059073 -0.0193374 0.009992852 0.01058183 -0.0170284 0.009863302 0.01042243 -0.0191988 0.009776082 0.01025743 -0.0168116 0.009863302 0.01042243 -0.0191988 -0.009863378 0.01042243 -0.0191988 0.01029996 0.01079123 -0.0196355 -0.01030004 0.01079123 -0.0196355 -0.01000194 0.01059073 -0.0193374 0.01000186 0.01059073 -0.0193374 -0.009992928 0.01058183 -0.0170284 -0.01030004 0.01079123 -0.0196355 -0.01000194 0.01059073 -0.0193374 -0.009863378 0.01042243 -0.0191988 -0.009776158 0.01025743 -0.0168116 -0.01280004 0.01058183 -0.0170284 -0.009992928 0.01058183 -0.0170284 -0.009776158 0.01025743 -0.0168116 -0.008500038 0.01693183 0.01595739 -0.01309294 0.01693183 0.01595739 -0.01287614 0.01660743 0.01574062 -0.01287614 0.01660743 0.01574062 -0.01309294 0.01693183 -0.0157355 -0.01309294 0.01693183 0.01595739 -0.01380004 0.01722473 -0.0157355 0.01453026 -0.007965069 -0.001435499 0.01450706 -0.007982379 -0.003793499 0.01450706 -0.007982379 0.0009225012 0.01450706 0.01693183 0.0181645 0.01429996 0.01693183 0.0186645 0.01379996 0.01693183 0.01887161 0.01450706 0.01622473 0.01887161 0.008499962 0.01722353 0.0182145 -0.008500038 0.01722353 0.0182145 -0.01380004 0.01693183 0.01887161 -0.01450714 0.01693183 0.0181645 -0.01450714 0.01693183 -0.0157355 0.01450706 -0.007982379 -0.0192355 0.01450706 0.01693183 -0.0157355 0.01379996 0.01722473 -0.0157355 0.01379996 -0.007982379 -0.0199426 0.01429996 -0.007775269 -0.0199426 0.01450706 -0.007275269 -0.0199426 0.01309286 0.01693183 -0.0157355 0.01309286 0.01693183 0.01595739 0.01287606 0.01660743 0.01574062 -0.01380004 -0.007982379 -0.0199426 0.01450706 0.009874731 -0.0199426 0.01287606 0.01660743 0.01574062 0.008499962 0.01693183 0.01595739 0.01309286 0.01693183 0.01595739 -0.01450714 -0.007275269 -0.0199426 -0.01450714 0.009874731 -0.0199426 -0.01380004 -0.007982379 0.01887161 0.01379996 -0.007982379 0.01887161 0.01450706 -0.007982379 0.0181645 0.01450706 -0.007775269 0.0186645 0.01450706 -0.007275269 0.01887161 -0.01450714 -0.007275269 0.01887161 -0.01450714 0.01622473 0.01887161 -0.01430004 0.01693183 0.0186645 -0.01453034 -0.007965069 -0.001435499 -0.01450714 -0.007982379 0.0009225012 -0.01450714 -0.007982379 -0.003793499 -0.01450714 -0.007982379 0.0181645 -0.01430004 -0.007775269 0.01887161 0.01429996 0.01058183 -0.0197355 0.01379996 0.01058183 -0.0199426 0.01450706 0.01058183 -0.0192355 -0.01380004 0.01058183 -0.0199426 -0.01030004 0.01079123 -0.0196355 0.01029996 0.01079123 -0.0196355 0.01450706 0.01058183 -0.0164426 0.01418266 0.01079863 -0.0166594 -0.01430004 0.01058183 -0.0197355 -0.01450714 0.01058183 -0.0192355 0.01379996 0.01087473 -0.0167355 0.01379996 0.01622473 -0.0167355 0.01418266 0.01079863 -0.0166594 0.01450706 0.01622473 -0.0164426 0.01450706 0.01058183 -0.0164426 -0.01418274 0.01079863 -0.0166594 -0.01450714 0.01058183 -0.0164426 0.01309286 0.01087473 -0.0164426 0.01309286 0.01622473 -0.0164426 0.01429996 0.01672473 -0.0164426 0.01379996 0.01693183 -0.0164426 -0.01450714 0.01622473 -0.0164426 -0.01450714 0.01058183 -0.0164426 -0.01380004 0.01622473 -0.0167355 -0.01380004 0.01087473 -0.0167355 -0.01418274 0.01079863 -0.0166594 0.01329996 0.01672473 -0.0164426 -0.01380004 0.01693183 -0.0164426 -0.01430004 0.01672473 -0.0164426 -0.01309294 0.01087473 -0.0164426 -0.01309294 0.01622473 -0.0164426 -0.01330004 0.01672473 -0.0164426 -0.01430004 -0.007775269 -0.0199426 -0.01450714 -0.007982379 -0.0192355 -0.007792928 -0.004575269 0.01595739 -0.007792928 0.01622473 0.01595739 -0.007792928 0.01693183 0.0166645 -0.007792928 0.01672473 0.0161645 -0.007571448 0.01659583 0.01733591 -0.007792928 0.01693183 0.01755739 -0.008400038 0.01721973 0.0181645 -0.008445318 0.01722263 0.01819953 0.008399962 0.01721973 0.0181645 0.008445242 0.01722263 0.01819953 0.007792852 0.01693183 0.0166645 0.007571372 0.01659583 0.01733591 0.007775392 0.01691393 0.01753993 0.007792852 0.01622473 0.01595739 0.007792852 0.01672473 0.0161645 0.007792852 -0.004575269 0.01595739</float_array>
          <technique_common>
            <accessor count="1064" source="#verts-array-array" stride="3">
              <param type="float" name="X"/>
              <param type="float" name="Y"/>
              <param type="float" name="Z"/>
            </accessor>
          </technique_common>
        </source>
        <source id="normals-array">
          <float_array count="3192" id="normals-array-array">0.1210496 -0.9920858 0.03335712 0.300112 -0.953821 0.01257718 0.1876929 -0.9641284 0.1876904 -0.05890466 -0.9923118 0.1088465 -0.04018542 -0.9923119 0.1170564 -0.1876925 -0.9641286 0.1876901 -0.3140591 -0.9492348 0.01789264 -0.1210481 -0.992086 0.03335812 -0.1133451 -0.992311 0.04971715 -0.1036154 -0.992311 0.0676952 -0.09105787 -0.9923114 0.0838247 -0.07601643 -0.9923119 0.09766569 -0.02037072 -0.9923119 0.1220744 3.408996e-08 -0.9923119 0.1237623 0.02037059 -0.9923119 0.1220744 0.04018566 -0.9923119 0.1170562 0.0589044 -0.9923118 0.1088465 0.07601665 -0.9923119 0.09766519 0.09105737 -0.9923115 0.08382398 0.1036146 -0.9923111 0.06769542 0.1133457 -0.9923108 0.04971885 -0.300112 -0.953821 -0.01257718 -0.1876919 -0.9641284 -0.1876919 -0.1210496 -0.9920858 -0.03335712 -0.1133454 -0.9923109 -0.04971891 0.1876924 -0.9641282 -0.1876924 0.3140591 -0.9492348 -0.01789264 0.1210481 -0.992086 -0.03335812 0.1133455 -0.992311 -0.04971692 0.1036108 -0.9923116 -0.06769409 0.0910642 -0.9923106 -0.08382761 0.07601131 -0.9923126 -0.09766249 0.05890821 -0.992311 -0.1088516 0.04018775 -0.9923113 -0.1170604 -0.04018732 -0.9923116 -0.1170587 -0.05890587 -0.9923109 -0.1088539 -0.07601468 -0.9923126 -0.09765967 0.02036968 -0.9923126 -0.1220686 6.757963e-07 -0.9923118 -0.1237631 -0.0203712 -0.9923126 -0.1220682 -0.09106113 -0.9923107 -0.08382927 -0.1036121 -0.9923115 -0.06769306 0.1657326 -0.1657301 -0.9721452 0 0 -1 0 0 -1 0.1876954 0.1876953 -0.964127 -0.1876972 0.1876972 -0.9641263 0 0 -1 0 0 -1 -0.1657326 -0.1657301 -0.9721452 0 0 -1 0 0 -1 0 0 -1 0 0 -1 0 0 -1 0 0 -1 0 0 -1 0 0 -1 0 0 -1 0 0 -1 0 0 -1 0 0 -1 0.1838435 0.9638078 -0.1930703 -0.1460354 0.9879117 -0.05200218 0.02497005 0.9996163 0.01199138 -0.1665789 0.972098 0.1651573 -0.01308292 0.9997098 0.02022519 0.1657326 0.9721452 0.1657301 -0.1883873 0.9637531 -0.1889182 0.1460354 0.9879117 -0.05200218 0.9974474 0.05049096 -0.05049096 0.964127 0.1876954 -0.1876953 0.9641273 0.1876958 0.1876935 0.9641267 -0.1876949 -0.1876973 0.9641263 0.1876972 -0.1876972 0.9808182 -0.1949245 -0.0002754588 0.9821596 -0.188046 -0.001107684 0.9809734 -0.1941378 0.001341367 0.9721454 -0.1657307 0.1657307 0.1876919 0.1876919 0.9641284 -0.1876924 0.1876924 0.9641282 0.187692 -0.1876896 0.9641288 -0.1657276 -0.1657252 0.9721469 -0.9641267 0.1876973 0.1876949 -0.9641263 0.1876972 -0.1876972 -0.9974474 0.05049096 -0.05049096 -0.9641272 -0.187695 0.187695 -0.964127 0.1876953 -0.1876954 -0.9641273 -0.1876935 -0.1876958 -0.9809734 -0.1941378 -0.001341367 -0.9821596 -0.188046 0.001107684 -0.9808182 -0.1949245 0.0002754588 0 1 0 0.1124582 0.9934037 -0.02241312 0.170755 0.9718887 -0.1620961 0 1 0 0 0.9952776 0.09706907 -0.1471108 0.9778709 0.1487513 -0.1476567 0.9874514 -0.05601074 0.148149 0.9778052 0.1481517 0.1359883 0.9878488 -0.0752456 0 0.9952776 0.09706907 -0.160793 0.9718123 -0.1724139 -0.09272521 0.9956917 0 0 1 0 0 1 0 -0.8449136 -0.4216171 0.3291809 -0.984159 0 0.177288 -0.9942561 0 -0.1070269 -0.9954459 -0.06578597 -0.06899 -0.753922 -0.05753366 0.6544398 -0.7588787 -0.05846758 0.6486021 -0.2958637 -0.2388791 0.9248792 0.08052167 -0.06791314 0.9944366 -0.1773436 0 0.984149 -0.7071038 0 -0.7071097 -0.7071038 0 -0.7071097 1.53004e-16 0 -1 2.103805e-16 0 -1 0.7071038 0 -0.7071097 0.7071038 0 -0.7071097 1 0 2.677579e-16 1 0 2.677579e-16 0.7071038 0 0.7071097 0.7071038 0 0.7071097 0.1069947 0 0.9942596 0.8449136 -0.4216171 -0.3291809 0.984159 0 -0.177288 0.9942561 0 0.1070269 0.9954459 -0.06578597 0.06899 0.753922 -0.05753366 -0.6544398 0.7588787 -0.05846758 -0.6486021 0.2958637 -0.2388791 -0.9248792 -0.08052167 -0.06791314 -0.9944366 0.1773436 0 -0.984149 0.7071038 0 0.7071097 0.7071038 0 0.7071097 -1.14753e-16 0 1 -1.338785e-16 0 1 -0.7071038 0 0.7071097 -0.7071038 0 0.7071097 -1 0 4.972646e-16 -1 0 4.972646e-16 -0.7071038 0 -0.7071097 -0.7071038 0 -0.7071097 -0.1069947 0 -0.9942596 0.3292072 -0.4215802 0.8449218 0.1773436 0 0.984149 -0.1069947 0 0.9942596 -0.06897029 -0.06576679 0.9954486 0.6544247 -0.05754163 0.7539345 0.6485859 -0.05845947 0.7588931 0.9248752 -0.2389264 0.2958378 0.9944334 -0.06793289 -0.08054446 0.984159 0 0.177288 -0.7071038 0 0.7071097 -0.7071038 0 0.7071097 -1 0 2.677579e-16 -1 0 2.677579e-16 -0.7071038 0 -0.7071097 -0.7071038 0 -0.7071097 -1.91255e-16 0 -1 -1.721295e-16 0 -1 0.7071038 0 -0.7071097 0.7071038 0 -0.7071097 0.9942561 0 -0.1070269 -0.3292072 -0.4215802 -0.8449218 -0.1773436 0 -0.984149 0.1069947 0 -0.9942596 0.06897029 -0.06576679 -0.9954486 -0.6544247 -0.05754163 -0.7539345 -0.6485859 -0.05845947 -0.7588931 -0.9248752 -0.2389264 -0.2958378 -0.9944334 -0.06793289 0.08054446 -0.984159 0 -0.177288 0.7071038 0 -0.7071097 0.7071038 0 -0.7071097 1 0 4.972646e-16 1 0 4.972646e-16 0.7071038 0 0.7071097 0.7071038 0 0.7071097 1.53004e-16 0 1 1.14753e-16 0 1 -0.7071038 0 0.7071097 -0.7071038 0 0.7071097 -0.9942561 0 0.1070269 0.9952776 0 -0.09706907 0.9640908 0.1872799 -0.1882954 0.9946141 0.1036478 0 1 0 0 1 0 0 1 0 0 1 0 0 1 0 0 1 0 0 -0.09706582 0 -0.995278 -0.1917916 0.1847157 -0.9638963 0 0.1036734 -0.9946114 0.01610982 0.117005 -0.9930007 0.1876912 0.1876936 -0.9641282 0 0 -1 0.09706582 0 -0.995278 0 0 -1 0 0 -1 0 1 0 0 1 0 0 1 0 0 1 0 0 1 0 0 1 0 0 1 0 0 1 0 0 1 0 0 1 0 0 1 0 0 1 0 0 1 0 0 1 0 0 1 0 0 1 0 0 1 0 0 1 0 0 1 0 0 1 0 0 1 0 0 1 0 0 1 0 0 1 0 0 1 0 0 1 0 0 1 0 0 1 0 0 1 0 0 1 0 0 1 0 0 1 0 0 1 0 0 1 0 0 1 0 0 1 0 0 1 0 0 1 0 0 1 0 0 1 0 0 1 0 0 1 0 0 1 0 0 1 0 0 1 0 0 1 0 0 1 0 0 1 0 0 1 0 0 1 0 0 1 0 0 1 0 0 1 0 0 1 0 0 1 0 0 1 0 0 1 0 0 1 0 0 1 0 0 1 0 0.01178764 0.187242 0.9822431 0 0.09158368 0.9957974 0 0 1 0 0 1 0 0 1 0 0 1 0 0 1 0 0 1 0 0 1 0 0 1 0 0 1 0 0 1 0 0 1 0 0 1 0 0 1 0 0 1 0 0 1 0 0 1 -0.01178764 0.187242 0.9822431 0 0 1 0 0 1 0 0 1 0 0 1 0 0 1 0 0.09158368 0.9957974 -1 0 0 -1 0 0 -0.9952776 0 -0.09706907 -0.9944113 0.105546 -0.002482612 -0.9641263 0.1876972 -0.1876972 -1 0 0 -1 0 0 -1 0 0 -1 0 0 0 1 0 0 1 0 0 1 0 0 1 0 0 1 0 0 1 0 0 1 0 0 1 0 -0.9807857 0 -0.1950884 -1 0 0 -0.9721468 0.1657274 -0.1657257 -0.9849152 0.1644339 -0.05388537 0.9715239 0.14839 -0.1847207 0.994964 0.1002331 0 0.9807857 0 -0.1950884 1 0 0 0 0.1002331 -0.994964 0 0 -1 0 0.1002331 -0.994964 0 0 -1 0 1 0 0 1 0 0 1 0 0 1 0 0 0.1561165 0.9877387 0 0 1 0 0.1561165 0.9877387 0 0 1 -0.9887639 0.1492862 -0.007718708 -1 0 0 -0.9957951 0.09160888 0 -1 0 0 0.9957951 0.09160888 0 1 0 0 0.9887639 0.1492862 -0.007718708 1 0 0 -1 1.721302e-16 0 -1 1.912558e-16 0 -0.7071068 -0.7071068 0 -0.7071068 -0.7071068 0 6.250142e-06 -1 0 6.250142e-06 -1 0 0.7071005 -0.707113 0 0.7071005 -0.707113 0 1 1.912582e-16 0 1 1.721323e-16 0 0.7071005 0.707113 0 0.7071005 0.707113 0 6.250142e-06 1 0 6.250142e-06 1 0 -0.7071068 0.7071068 0 -0.7071068 0.7071068 0 -1 1.721323e-16 0 -1 1.912582e-16 0 -0.7071005 -0.707113 0 -0.7071005 -0.707113 0 -6.250142e-06 -1 0 -6.250142e-06 -1 0 0.7071068 -0.7071068 0 0.7071068 -0.7071068 0 1 1.912558e-16 0 1 1.721302e-16 0 0.7071068 0.7071068 0 0.7071068 0.7071068 0 -6.250142e-06 1 0 -6.250142e-06 1 0 -0.7071005 0.707113 0 -0.7071005 0.707113 0 -1 -4.76205e-07 0 -1 -4.76205e-07 0 -0.7071044 -0.7071092 0 -0.7071044 -0.7071092 0 -2.381003e-06 -1 0 -2.381003e-06 -1 0 0.7071068 -0.7071068 0 0.7071068 -0.7071068 0 1 -4.76194e-07 0 1 -4.76194e-07 0 0.7071063 0.7071073 0 0.7071063 0.7071073 0 -2.380992e-06 1 0 -2.380992e-06 1 0 -0.7071039 0.7071096 0 -0.7071039 0.7071096 0 0 0 -1 0 0 -1 0 0 -1 0 0 -1 0 0 -1 0 0 -1 0 0 -1 0 0 -1 0 0 -1 0 0 -1 0 0 -1 0 0 -1 0 0 -1 0 0 -1 0 0 -1 0 0 -1 -1 -4.76194e-07 0 -1 -4.76194e-07 0 -0.7071068 -0.7071068 0 -0.7071068 -0.7071068 0 2.381003e-06 -1 0 2.381003e-06 -1 0 0.7071044 -0.7071092 0 0.7071044 -0.7071092 0 1 -4.76205e-07 0 1 -4.76205e-07 0 0.7071039 0.7071096 0 0.7071039 0.7071096 0 2.380992e-06 1 0 2.380992e-06 1 0 -0.7071063 0.7071073 0 -0.7071063 0.7071073 0 0 0 -1 0 0 -1 0 0 -1 0 0 -1 0 0 -1 0 0 -1 0 0 -1 0 0 -1 0 0 -1 0 0 -1 0 0 -1 0 0 -1 0 0 -1 0 0 -1 0 0 -1 0 0 -1 0 -1 0 0 -1 0 0 -1 0 0 -1 0 0 -1 0 0 -1 0 0 -1 0 0 -1 0 0 -1 0 0 -1 0 0 -1 0 0 -1 0 0 -1 0 0 -1 0 0 -1 0 0 -1 0 0 -1 0 0 -1 0 0 -1 0 0 -1 0 0 -1 0 0 -1 0 0 -1 0 0 -1 0 0 -1 0 0 -1 0 0 -1 0 0 -1 0 0 -1 0 0 -1 0 0 -1 0 0 -1 0 0 -1 0 0 -1 0 0 -1 0 0 -1 0 0 -1 0 -0.3245964 -0.02514632 0.9455183 0 -0.02514633 0.9996838 -0.1630813 -0.1352975 0.9772917 -0.3218824 -0.1314233 0.9376138 -0.4715713 -0.1352982 0.8713868 -0.6140172 -0.02514557 0.788892 -0.6088851 -0.1314235 0.7822959 -0.7289568 -0.1352982 0.6710561 -0.8369021 -0.02514536 0.5467747 -0.8299093 -0.1314053 0.5422021 -0.9073514 -0.1353138 0.3979995 -0.9690949 -0.02514617 0.2454034 -0.9609896 -0.1314473 0.243353 -0.9874226 -0.135289 0.08181326 -0.9962693 -0.02514486 -0.08255433 -0.9879426 -0.1314062 -0.08186427 -0.9604868 -0.1353178 -0.2432163 -0.915486 -0.02514553 -0.4015634 -0.9078309 -0.1314449 -0.3982027 -0.8294677 -0.1352852 -0.5419237 -0.7354919 -0.02514613 -0.6770667 -0.7293445 -0.1314241 -0.6714047 -0.608561 -0.1352849 -0.7818897 -0.4757914 -0.02514539 -0.8791986 -0.4718154 -0.1314012 -0.8718509 -0.3217046 -0.135285 -0.9371254 -0.1645388 -0.02514856 -0.98605 -0.1631722 -0.1314228 -0.9778051 -3.8693e-06 -0.1353211 -0.9908018 0.1645388 -0.02514856 -0.98605 0.1631731 -0.1314283 -0.9778042 0.3217052 -0.1352891 -0.9371247 0.4757914 -0.02514539 -0.8791986 0.4718176 -0.1314026 -0.8718495 0.6085642 -0.1352812 -0.7818879 0.7354919 -0.02514613 -0.6770667 0.7293384 -0.1314248 -0.6714112 0.8294749 -0.1352828 -0.5419133 0.915486 -0.02514553 -0.4015634 0.9078292 -0.1314374 -0.398209 0.9604839 -0.1353232 -0.243225 0.9962693 -0.02514486 -0.08255433 0.9879424 -0.1314126 -0.08185637 0.9874229 -0.1352826 0.08182116 0.9690949 -0.02514617 0.2454034 0.9609925 -0.1314419 0.2433443 0.9073531 -0.1353213 0.3979931 0.8369021 -0.02514536 0.5467747 0.8299026 -0.1314086 0.5422116 0.7289595 -0.1352947 0.6710539 0.6140172 -0.02514557 0.788892 0.6088857 -0.1314236 0.7822954 0.4715704 -0.1352982 0.8713872 0.3245964 -0.02514632 0.9455183 0.3218834 -0.1314233 0.9376135 0.1630803 -0.1352976 0.9772919 5.056794e-07 -0.1314231 0.9913264 0 -1 0 0 -1 0 0 -1 0 0 -1 0 0 -1 0 0 -1 0 0 -1 0 0 -1 0 0 -1 0 0 -1 0 0 -1 0 0 -1 0 0 -1 0 0 -1 0 0 -1 0 0 -1 0 0 -1 0 0 -1 0 0 -1 0 0 -1 0 0 -1 0 0 -1 0 0 -1 0 0 -1 0 0 -1 0 0 -1 0 0 -1 0 0 -1 0 0 -1 0 0 -1 0 0 -1 0 0 -1 0 0 -1 0 0 -1 0 0 -1 0 0 -1 0 0 -1 0 0 -1 0 0 -1 0 0 -1 0 0 -1 0 0 -1 0 0 -1 0 0 -1 0 0 -1 0 0 -1 0 0 -1 0 0 -1 0 0 -1 0 0 -1 0 0 -1 0 0 -1 0 0 -1 0 0 -1 0 0 -1 0 0 -1 0 0 -1 0 0 -1 0 0 -1 0 0 -1 0 0 -1 0 0 -1 0 1.07654e-16 0 -1 1.07654e-16 0 -1 -0.3420205 0 -0.9396925 -0.3420205 0 -0.9396925 -0.6427877 0 -0.7660444 -0.6427877 0 -0.7660444 -0.8660262 0 -0.4999986 -0.8660262 0 -0.4999986 -0.984808 0 -0.1736467 -0.984808 0 -0.1736467 -0.984808 0 0.1736467 -0.984808 0 0.1736467 -0.866028 0 0.4999955 -0.866028 0 0.4999955 -0.6427868 0 0.7660452 -0.6427868 0 0.7660452 -0.342016 0 0.9396941 -0.342016 0 0.9396941 -2.69135e-16 0 1 -2.69135e-16 0 1 0.342016 0 0.9396941 0.342016 0 0.9396941 0.6427868 0 0.7660452 0.6427868 0 0.7660452 0.866028 0 0.4999955 0.866028 0 0.4999955 0.984808 0 0.1736467 0.984808 0 0.1736467 0.984808 0 -0.1736467 0.984808 0 -0.1736467 0.8660262 0 -0.4999986 0.8660262 0 -0.4999986 0.6427877 0 -0.7660444 0.6427877 0 -0.7660444 0.3420205 0 -0.9396925 0.3420205 0 -0.9396925 1.021849e-16 0 -1 9.289536e-17 0 -1 -0.5877794 0 -0.8090212 -0.5877794 0 -0.8090212 -0.9510543 0 -0.3090237 -0.9510543 0 -0.3090237 -0.9510568 0 0.3090162 -0.9510568 0 0.3090162 -0.5877755 0 0.8090241 -0.5877755 0 0.8090241 9.289458e-17 0 1 9.289458e-17 0 1 0.5877755 0 0.8090241 0.5877755 0 0.8090241 0.9510568 0 0.3090162 0.9510568 0 0.3090162 0.9510543 0 -0.3090237 0.9510543 0 -0.3090237 0.5877794 0 -0.8090212 0.5877794 0 -0.8090212 0 1 0 0 1 0 0 1 0 0 1 0 0 1 0 0 1 0 0 1 0 0 1 0 0 1 0 0 1 0 0 1 0 0 1 0 0 1 0 0 1 0 0 1 0 0 1 0 0 1 0 0 1 0 -7.431567e-17 0 -1 -9.289458e-17 0 -1 -0.5877755 0 -0.8090241 -0.5877755 0 -0.8090241 -0.9510568 0 -0.3090162 -0.9510568 0 -0.3090162 -0.9510568 0 0.3090162 -0.9510568 0 0.3090162 -0.5877755 0 0.8090241 -0.5877755 0 0.8090241 -9.289458e-17 0 1 -7.431567e-17 0 1 0.5877755 0 0.8090241 0.5877755 0 0.8090241 0.9510568 0 0.3090162 0.9510568 0 0.3090162 0.9510568 0 -0.3090162 0.9510568 0 -0.3090162 0.5877755 0 -0.8090241 0.5877755 0 -0.8090241 0 1 0 0 1 0 0 1 0 0 1 0 0 1 0 0 1 0 0 1 0 0 1 0 0 1 0 0 1 0 0 1 0 0 1 0 0 1 0 0 1 0 0 1 0 0 1 0 0 1 0 0 1 0 -9.754013e-17 0 -1 -1.114744e-16 0 -1 -0.5877794 0 -0.8090212 -0.5877794 0 -0.8090212 -0.9510543 0 -0.3090237 -0.9510543 0 -0.3090237 -0.9510568 0 0.3090162 -0.9510568 0 0.3090162 -0.5877755 0 0.8090241 -0.5877755 0 0.8090241 -9.289458e-17 0 1 -9.289458e-17 0 1 0.5877755 0 0.8090241 0.5877755 0 0.8090241 0.9510568 0 0.3090162 0.9510568 0 0.3090162 0.9510543 0 -0.3090237 0.9510543 0 -0.3090237 0.5877794 0 -0.8090212 0.5877794 0 -0.8090212 0 1 0 0 1 0 0 1 0 0 1 0 0 1 0 0 1 0 0 1 0 0 1 0 0 1 0 0 1 0 0 1 0 0 1 0 0 1 0 0 1 0 0 1 0 0 1 0 0 1 0 0 1 0 8.824985e-17 0 -1 7.431567e-17 0 -1 -0.5877755 0 -0.8090241 -0.5877755 0 -0.8090241 -0.9510568 0 -0.3090162 -0.9510568 0 -0.3090162 -0.9510568 0 0.3090162 -0.9510568 0 0.3090162 -0.5877755 0 0.8090241 -0.5877755 0 0.8090241 7.431567e-17 0 1 9.289458e-17 0 1 0.5877755 0 0.8090241 0.5877755 0 0.8090241 0.9510568 0 0.3090162 0.9510568 0 0.3090162 0.9510568 0 -0.3090162 0.9510568 0 -0.3090162 0.5877755 0 -0.8090241 0.5877755 0 -0.8090241 0 1 0 0 1 0 0 1 0 0 1 0 0 1 0 0 1 0 0 1 0 0 1 0 0 1 0 0 1 0 0 1 0 0 1 0 0 1 0 0 1 0 0 1 0 0 1 0 0 1 0 0 1 0 0.4237986 0 -0.9057564 0.4237986 0 -0.9057564 0.2170755 0 -0.9761548 0.2170755 0 -0.9761548 -0.2170755 0 -0.9761548 -0.2170755 0 -0.9761548 -0.4237986 0 -0.9057564 -0.4237986 0 -0.9057564 0.9057467 0 0.4238194 0.9057467 0 0.4238194 0.9761523 0 0.2170867 0.9761523 0 0.2170867 0.9761523 0 -0.2170867 0.9761523 0 -0.2170867 0.9057467 0 -0.4238194 0.9057467 0 -0.4238194 -0.4237986 0 0.9057564 -0.4237986 0 0.9057564 -0.2170755 0 0.9761548 -0.2170755 0 0.9761548 0.2170755 0 0.9761548 0.2170755 0 0.9761548 0.4237986 0 0.9057564 0.4237986 0 0.9057564 -0.9057467 0 -0.4238194 -0.9057467 0 -0.4238194 -0.9761523 0 -0.2170867 -0.9761523 0 -0.2170867 -0.9761523 0 0.2170867 -0.9761523 0 0.2170867 -0.9057467 0 0.4238194 -0.9057467 0 0.4238194 0 -1 0 0 -1 0 0 -1 0 0 -1 0 0 -1 0 0 -1 0 0 -1 0 0 -1 0 0 -1 0 0 -1 0 0 -1 0 0 -1 0 0 -1 0 0 -1 0 0 -1 0 0 -1 0 0 -1 0 0 -1 0 0 -1 0 0 -1 0 0 -1 0 0 -1 0 0 -1 0 0 -1 0 0 -1 0 0 -1 0 0 -1 0 0 -1 0 0 -1 0 -0.983795 0.008825734 -0.1790796 -0.9958284 0.001418013 0.0912344 -0.863245 0.008113291 0.5047199 -0.8422998 0 0.5390093 -0.3487021 0.01097896 0.9371693 -0.4226286 0 0.9063029 -1.076575e-16 0.001846523 0.9999983 0.3487021 0.01097896 0.9371693 0.4226286 0 0.9063029 0.863245 0.008113291 0.5047199 0.8422998 0 0.5390093 0.9958284 0.001418013 0.0912344 0.983795 0.008825734 -0.1790796 0.954322 0 -0.2987801 0.642791 0 -0.7660416 0.642791 0 -0.7660416 1.128228e-16 0 -1 1.128228e-16 0 -1 -0.642791 0 -0.7660416 -0.642791 0 -0.7660416 -0.954322 0 -0.2987801 0.4743724 -0.8722576 0.1189014 0.5197561 -0.852716 0.05224044 0.3546058 -0.9350154 -0.0009512113 0.4967095 -0.8671335 -0.03686771 0.4730135 -0.8726384 -0.1214924 -0.4743724 -0.8722576 -0.1189014 -0.5197561 -0.852716 -0.05224044 -0.3546058 -0.9350154 0.0009512113 -0.4967095 -0.8671335 0.03686771 -0.4730135 -0.8726384 0.1214924 0.1419795 -0.50599 -0.8507738 0.2800703 -0.5059772 -0.8158111 0.4105223 -0.5059858 -0.758584 0.5297838 -0.5059779 -0.6806728 0.6345886 -0.5059885 -0.5841857 0.7220931 -0.5059828 -0.4717659 0.7898788 -0.5060029 -0.346486 0.83615 -0.5059889 -0.2117272 0.8596008 -0.5059789 -0.0712162 0.8595951 -0.5059886 0.07121681 0.8361459 -0.5059961 0.2117263 0.7898863 -0.5059916 0.3464853 0.722089 -0.5059836 0.4717712 0.6345936 -0.5059875 0.5841812 0.5297845 -0.5059863 0.680666 0.4105244 -0.5059846 0.7585837 0.2800672 -0.5059835 0.8158082 0.1419697 -0.505984 0.8507789 2.060806e-07 -0.5059852 0.8625421 -0.1419697 -0.5059843 0.8507787 -0.2800676 -0.5059836 0.815808 -0.4105248 -0.5059842 0.7585838 -0.5297836 -0.5059865 0.6806665 -0.6345969 -0.5059819 0.5841825 -0.7220875 -0.5059875 0.4717693 -0.7898788 -0.5060036 0.346485 -0.83615 -0.5059889 0.2117272 -0.8596008 -0.5059789 0.0712162 -0.8595951 -0.5059886 -0.07121681 -0.8361459 -0.5059961 -0.2117263 -0.7898863 -0.5059916 -0.3464853 -0.7220925 -0.5059795 -0.4717701 -0.6345906 -0.5059905 -0.5841818 -0.5297811 -0.5059715 -0.6806797 -0.4105269 -0.5059873 -0.7585806 -0.2800633 -0.5059827 -0.8158101 -0.1419849 -0.5059977 -0.8507683 2.182444e-06 -0.505994 -0.862537 0.08059213 -0.871927 -0.4829579 0.1589886 -0.8719207 -0.4631165 0.2330373 -0.8719279 -0.4306221 0.3007454 -0.8719211 -0.3864011 0.3602506 -0.8719174 -0.3316317 0.4099111 -0.8719228 -0.2678124 0.4484206 -0.8719125 -0.1966912 0.4484141 -0.8719157 0.1966924 0.4099105 -0.871925 0.2678062 0.3602487 -0.8719169 0.331635 0.3007494 -0.8719198 0.386401 0.2330469 -0.8719193 0.4306343 0.1589891 -0.8719184 0.4631207 0.08059406 -0.8719201 0.48297 -1.775356e-07 -0.8719194 0.4896494 -0.0805935 -0.8719199 0.4829704 -0.1589898 -0.8719184 0.4631205 -0.2330465 -0.8719196 0.430634 -0.3007486 -0.8719198 0.3864014 -0.3602486 -0.8719188 0.3316302 -0.4099068 -0.8719247 0.2678128 -0.4484218 -0.8719121 0.1966908 -0.4484139 -0.8719156 -0.1966933 -0.4099146 -0.8719237 -0.2678042 -0.3602471 -0.871916 -0.3316392 -0.3007464 -0.8719227 -0.3863966 -0.2330391 -0.8719282 -0.4306204 -0.1589856 -0.8719187 -0.4631212 -0.08060051 -0.8719252 -0.4829596 5.694399e-06 -0.8719137 -0.4896596 3.72813e-06 0.997936 -0.06421621 0 0.9981977 -0.06001188 -4.67291e-05 0.9981974 -0.06001612 0.0002027982 0.9851304 -0.171808 -0.002727483 0.9979004 -0.064709 0.0004068288 0.8182395 -0.5748774 0 0.4061187 -0.9138203 -0.0001834546 0.4131596 -0.9106586 0.0003766013 0.8096544 -0.5869069 -0.01172613 0.987744 -0.1556417 0.002282476 0.3367826 0.9415797 0.01249215 0.7126889 0.701369 0 0.6841536 0.729338 -0.3944676 0.8951511 0.2076048 -0.5169195 0.8542481 0.05526675 -0.7251057 0.6886068 0.006518656 -0.8569252 0.515411 -0.00554674 -0.9419955 0.3356219 0.001576295 0 0.5133764 0.8581636 0 0.5133764 0.8581636 0 0.8297737 0.5581 0 0.8297737 0.5581 0 0.7770431 0.6294474 0 0.7770431 0.6294474 0.725014 0.6887066 0.006157707 0.3944676 0.8951511 0.2076048 0.5164891 0.8544655 0.05592663 0.8569252 0.515411 -0.00554674 0.9419955 0.3356219 0.001576295 -0.01249215 0.7126889 0.701369 0 0.6841536 0.729338 -0.002282476 0.3367826 0.9415797 0.1870955 0.6946512 -0.6945898 0 0.8390608 -0.5440376 0.01447439 0.4131844 -0.9105324 0.9077175 0.4195819 -1.734017e-05 0.6943155 0.6948977 -0.1871981 0.5440316 0.8390647 0 1.781269e-06 0.9824424 -0.1865662 0.729958 -0.6834764 -0.004620326 0.7066231 -0.7075901 0.000253046 0.7077592 -0.7064405 0.004328076 0.7193563 0.6793901 0.1447603 0.5293555 0.6630032 0.5293483 0.1448508 0.6793726 0.7193546 0.6946894 0.1865631 0.6946948 0.005891981 0.9764571 0.215631 0.008984996 0.9745578 0.2239562 -0.1455932 0.6788981 0.7196527 -0.7193574 0.6793883 0.1447634 -0.6946935 0.694691 -0.1865621 0.6946898 -0.6946938 -0.1865653 0.694691 0.6946935 -0.1865621 1.781269e-06 0.9824424 -0.1865662 0.1447673 -0.7193589 -0.6793859 0.5293583 -0.5293482 -0.6630009 0.7193574 -0.1447634 -0.6793883 -0.694692 0.6946897 -0.1865725 -0.5440316 0.8390647 0 -0.9081312 0.4186812 -0.001939968 -0.1447663 -0.7193585 -0.6793865 0.6946935 0.1865621 -0.694691 -0.0008943078 0.4195681 -0.9077234 -0.1908999 0.6961829 -0.6920163 0 0.8390608 -0.5440376 -0.7193563 -0.1447603 -0.6793901 -0.694691 0.1865621 -0.6946935 -0.144767 -0.719357 0.679388 0.1865663 -0.6946923 0.6946911 0.6793859 -0.7193589 0.1447673 0.6630047 -0.5293522 0.5293496 0.679387 -0.1447655 0.7193582 -0.7193555 -0.144763 0.6793905 -0.6946898 0.1865653 0.6946938 -0.5293583 0.6630009 0.5293482 -0.729958 -0.6834764 0.004620326 -0.7066231 -0.7075901 -0.000253046 -0.7077592 -0.7064405 -0.004328076 -0.6946901 -0.6946941 0.1865631 -0.5293573 -0.5293472 0.6630025 0.529357 0.6629994 -0.5293515 0.1501394 0.6762389 -0.7212206 0.719346 0.6790782 -0.1462675 -0.1456739 0.6792223 -0.7193303 -0.008522481 0.8687252 -0.495221 0.001214502 0.8677976 -0.4969163 0.8390681 0.5440264 0 0.4088973 0.9122302 -0.02528054 -0.5293515 0.6629994 -0.529357 -0.7219064 0.6751225 -0.1518573 -0.08060216 0 -0.9967464 -0.00232039 0.1416789 -0.9899099 0.4195811 0.0005824375 -0.9077177 0.7205575 0.1483238 -0.6773456 0.8390681 0 -0.5440264 -0.4195815 0.9077141 -0.002567915 -0.8390681 0.5440264 0 -0.7071068 0 -0.7071068 -0.7193577 0.1447642 -0.6793878 0.5293515 0.529357 -0.6629994 3.879897e-06 0.7486156 -0.6630042 -0.7193369 0.145113 -0.6793354 -0.8390681 0 -0.5440264 -4.465523e-16 0.1381212 -0.9904153 0.06969642 0.01386841 -0.9974718 -0.4144122 0.01158402 -0.9100155 -0.529357 0.5293515 -0.6629994 3.879897e-06 0.7486156 -0.6630042 -0.529357 0.5293515 -0.6629994 0.7071068 0 -0.7071068 0.7193563 0.1447603 -0.6793901 0.5293515 0.529357 -0.6629994 -0.5293555 -0.5293483 -0.6630032 -0.6946894 -0.6946948 -0.1865631 0.7071075 0 -0.707106 0.679389 0.1447653 -0.7193563 0.6669548 0.7257908 -0.1685199 0.6630037 0.5293533 -0.5293499 0.9098744 0.4134694 -0.03422841 0.5754652 0.8178263 0 0.1522139 0.9883291 -0.006048505 -0.009549618 0.9954549 -0.09475381 -0.1572656 0.9875067 -0.009904564 0.009549618 0.9954549 -0.09475381 -0.6717981 0.7242022 -0.155623 -0.9204576 0.3729154 -0.1170125 -0.56984 0.8216752 -0.01149449 -0.6793893 0.1447649 -0.7193562 -0.6630021 0.5293569 -0.5293482 -0.7071075 0 -0.707106</float_array>
          <technique_common>
            <accessor count="1064" source="#normals-array-array" stride="3">
              <param type="float" name="X"/>
              <param type="float" name="Y"/>
              <param type="float" name="Z"/>
            </accessor>
          </technique_common>
        </source>
        <vertices id="verts-array-vertices">
          <input semantic="POSITION" source="#verts-array"/>
        </vertices>
        <triangles count="1328" material="material0">
          <input offset="0" semantic="VERTEX" source="#verts-array-vertices"/>
          <input offset="1" semantic="NORMAL" source="#normals-array"/>
          <p>0 0 1 1 2 2 3 3 4 4 5 5 6 6 7 7 5 5 8 8 5 5 7 7 5 5 8 8 9 9 9 9 10 10 5 5 11 11 5 5 10 10 5 5 11 11 3 3 4 4 12 12 5 5 13 13 5 5 12 12 5 5 13 13 2 2 14 14 2 2 13 13 2 2 14 14 15 15 15 15 16 16 2 2 17 17 2 2 16 16 2 2 17 17 18 18 18 18 19 19 2 2 20 20 2 2 19 19 2 2 20 20 0 0 21 21 22 22 23 23 24 24 23 23 22 22 25 25 26 26 27 27 27 27 28 28 25 25 29 29 25 25 28 28 25 25 29 29 30 30 30 30 31 31 25 25 32 32 25 25 31 31 25 25 32 32 33 33 34 34 35 35 22 22 36 36 22 22 35 35 33 33 37 37 25 25 38 38 25 25 37 37 25 25 38 38 22 22 39 39 22 22 38 38 22 22 39 39 34 34 36 36 40 40 22 22 41 41 22 22 40 40 22 22 41 41 24 24 42 42 43 43 44 44 42 42 44 44 45 45 46 46 47 47 48 48 46 46 48 48 49 49 50 50 49 49 48 48 49 49 50 50 51 51 43 43 42 42 52 52 49 49 52 52 42 42 52 52 49 49 53 53 51 51 53 53 49 49 53 53 51 51 54 54 45 45 55 55 46 46 56 56 46 46 55 55 46 46 56 56 47 47 51 51 57 57 54 54 58 58 54 54 57 57 54 54 58 58 59 59 55 55 59 59 58 58 59 59 55 55 60 60 45 45 60 60 55 55 60 60 45 45 61 61 44 44 61 61 45 45 62 62 63 63 64 64 65 65 64 64 63 63 66 66 67 67 68 68 69 69 68 68 67 67 70 70 71 71 72 72 73 73 74 74 75 75 70 70 75 75 74 74 75 75 70 70 76 76 76 76 70 70 77 77 72 72 77 77 70 70 77 77 72 72 78 78 79 79 80 80 81 81 82 82 81 81 80 80 83 83 84 84 85 85 83 83 85 85 86 86 87 87 88 88 85 85 89 89 85 85 88 88 89 89 90 90 85 85 91 91 85 85 90 90 85 85 91 91 86 86 92 92 93 93 94 94 95 95 92 92 96 96 94 94 96 96 92 92 96 96 94 94 97 97 98 98 97 97 94 94 99 99 100 100 101 101 102 102 101 101 100 100 102 102 103 103 101 101 104 104 101 101 103 103 101 101 104 104 105 105 106 106 107 107 108 108 109 109 110 110 111 111 111 111 110 110 112 112 113 113 112 112 110 110 112 112 113 113 114 114 111 111 106 106 109 109 108 108 109 109 106 106 109 109 108 108 115 115 116 116 115 115 108 108 115 115 116 116 117 117 118 118 117 117 116 116 117 117 118 118 119 119 120 120 119 119 118 118 119 119 120 120 121 121 122 122 121 121 120 120 121 121 122 122 123 123 124 124 123 123 122 122 123 123 124 124 113 113 125 125 113 113 124 124 113 113 125 125 114 114 126 126 127 127 128 128 129 129 130 130 131 131 131 131 130 130 132 132 133 133 132 132 130 130 132 132 133 133 134 134 131 131 126 126 129 129 128 128 129 129 126 126 129 129 128 128 135 135 136 136 135 135 128 128 135 135 136 136 137 137 138 138 137 137 136 136 137 137 138 138 139 139 140 140 139 139 138 138 139 139 140 140 141 141 142 142 141 141 140 140 141 141 142 142 143 143 144 144 143 143 142 142 143 143 144 144 133 133 145 145 133 133 144 144 133 133 145 145 134 134 146 146 147 147 148 148 149 149 150 150 151 151 151 151 150 150 152 152 153 153 152 152 150 150 152 152 153 153 154 154 151 151 146 146 149 149 148 148 149 149 146 146 149 149 148 148 155 155 156 156 155 155 148 148 155 155 156 156 157 157 158 158 157 157 156 156 157 157 158 158 159 159 160 160 159 159 158 158 159 159 160 160 161 161 162 162 161 161 160 160 161 161 162 162 163 163 164 164 163 163 162 162 163 163 164 164 153 153 165 165 153 153 164 164 153 153 165 165 154 154 166 166 167 167 168 168 169 169 170 170 171 171 171 171 170 170 172 172 173 173 172 172 170 170 172 172 173 173 174 174 171 171 166 166 169 169 168 168 169 169 166 166 169 169 168 168 175 175 176 176 175 175 168 168 175 175 176 176 177 177 178 178 177 177 176 176 177 177 178 178 179 179 180 180 179 179 178 178 179 179 180 180 181 181 182 182 181 181 180 180 181 181 182 182 183 183 184 184 183 183 182 182 183 183 184 184 173 173 185 185 173 173 184 184 173 173 185 185 174 174 186 186 187 187 188 188 189 189 190 190 186 186 189 189 186 186 191 191 188 188 192 192 193 193 188 188 193 193 186 186 194 194 186 186 193 193 186 186 194 194 191 191 195 195 196 196 197 197 198 198 199 199 200 200 201 201 200 200 199 199 200 200 201 201 202 202 195 195 202 202 201 201 202 202 195 195 203 203 197 197 203 203 195 195 204 204 205 205 206 206 207 207 208 208 209 209 210 210 209 209 208 208 209 209 210 210 211 211 210 210 212 212 211 211 213 213 211 211 212 212 211 211 213 213 214 214 215 215 214 214 213 213 214 214 215 215 216 216 209 209 217 217 207 207 218 218 207 207 217 217 207 207 218 218 219 219 220 220 219 219 218 218 219 219 220 220 221 221 222 222 221 221 220 220 221 221 222 222 223 223 209 209 224 224 225 225 225 225 226 226 209 209 227 227 209 209 226 226 209 209 227 227 217 217 228 228 217 217 227 227 217 217 228 228 229 229 230 230 229 229 228 228 229 229 230 230 231 231 232 232 231 231 230 230 231 231 232 232 233 233 234 234 233 233 232 232 233 233 234 234 235 235 234 234 236 236 235 235 237 237 235 235 236 236 235 235 237 237 224 224 238 238 224 224 237 237 224 224 238 238 225 225 206 206 239 239 240 240 206 206 240 240 241 241 242 242 235 235 243 243 241 241 243 243 235 235 243 243 241 241 244 244 240 240 244 244 241 241 245 245 233 233 246 246 235 235 246 246 233 233 246 246 235 235 247 247 242 242 247 247 235 235 239 239 206 206 248 248 205 205 248 248 206 206 248 248 205 205 249 249 250 250 249 249 205 205 249 249 250 250 245 245 251 251 245 245 250 250 245 245 251 251 233 233 216 216 223 223 214 214 222 222 214 214 223 223 214 214 222 222 252 252 206 206 253 253 254 254 252 252 255 255 214 214 256 256 214 214 255 255 214 214 256 256 253 253 257 257 253 253 256 256 253 253 257 257 254 254 254 254 258 258 206 206 259 259 206 206 258 258 206 206 259 259 204 204 260 260 204 204 259 259 204 204 260 260 261 261 262 262 261 261 260 260 261 261 262 262 222 222 263 263 222 222 262 262 222 222 263 263 252 252 264 264 265 265 266 266 266 266 267 267 268 268 268 268 269 269 266 266 270 270 266 266 269 269 266 266 270 270 264 264 271 271 264 264 270 270 264 264 271 271 272 272 271 271 273 273 272 272 274 274 272 272 273 273 272 272 274 274 275 275 276 276 275 275 274 274 275 275 276 276 277 277 278 278 275 275 279 279 280 280 279 279 275 275 281 281 282 282 283 283 278 278 283 283 282 282 283 283 278 278 284 284 279 279 284 284 278 278 280 280 275 275 285 285 277 277 285 285 275 275 285 285 277 277 286 286 268 268 286 286 277 277 286 286 268 268 287 287 267 267 287 287 268 268 287 287 267 267 281 281 288 288 281 281 267 267 281 281 288 288 282 282 289 289 290 290 291 291 292 292 291 291 290 290 291 291 292 292 293 293 294 294 289 289 295 295 291 291 295 295 289 289 295 295 291 291 296 296 297 297 296 296 291 291 298 298 299 299 300 300 301 301 302 302 303 303 300 300 304 304 298 298 301 301 298 298 304 304 298 298 301 301 305 305 303 303 305 305 301 301 306 306 307 307 308 308 309 309 308 308 307 307 310 310 311 311 312 312 313 313 312 312 311 311 314 314 315 315 316 316 317 317 316 316 315 315 318 318 319 319 320 320 321 321 320 320 319 319 322 322 323 323 324 324 325 325 324 324 323 323 326 326 327 327 328 328 329 329 328 328 327 327 330 330 331 331 332 332 333 333 332 332 331 331 334 334 335 335 336 336 337 337 336 336 335 335 336 336 337 337 338 338 339 339 338 338 337 337 338 338 339 339 340 340 341 341 340 340 339 339 340 340 341 341 342 342 343 343 342 342 341 341 342 342 343 343 344 344 345 345 344 344 343 343 344 344 345 345 346 346 347 347 346 346 345 345 346 346 347 347 348 348 349 349 348 348 347 347 348 348 349 349 334 334 335 335 334 334 349 349 350 350 351 351 352 352 353 353 352 352 351 351 352 352 353 353 354 354 355 355 354 354 353 353 354 354 355 355 356 356 357 357 356 356 355 355 356 356 357 357 358 358 359 359 358 358 357 357 358 358 359 359 360 360 361 361 360 360 359 359 360 360 361 361 362 362 363 363 362 362 361 361 362 362 363 363 364 364 365 365 364 364 363 363 364 364 365 365 350 350 351 351 350 350 365 365 366 366 367 367 368 368 369 369 368 368 367 367 368 368 369 369 370 370 371 371 370 370 369 369 370 370 371 371 372 372 373 373 372 372 371 371 372 372 373 373 374 374 375 375 374 374 373 373 374 374 375 375 376 376 377 377 376 376 375 375 376 376 377 377 378 378 379 379 378 378 377 377 378 378 379 379 380 380 381 381 380 380 379 379 380 380 381 381 366 366 367 367 366 366 381 381 382 382 383 383 384 384 385 385 384 384 383 383 384 384 385 385 386 386 387 387 386 386 385 385 386 386 387 387 388 388 389 389 388 388 387 387 388 388 389 389 390 390 391 391 390 390 389 389 390 390 391 391 392 392 393 393 392 392 391 391 392 392 393 393 394 394 395 395 394 394 393 393 394 394 395 395 396 396 397 397 396 396 395 395 396 396 397 397 382 382 383 383 382 382 397 397 398 398 399 399 400 400 401 401 400 400 399 399 400 400 401 401 402 402 403 403 402 402 401 401 402 402 403 403 404 404 405 405 404 404 403 403 404 404 405 405 406 406 407 407 406 406 405 405 406 406 407 407 408 408 409 409 408 408 407 407 408 408 409 409 410 410 411 411 410 410 409 409 410 410 411 411 412 412 413 413 412 412 411 411 412 412 413 413 398 398 399 399 398 398 413 413 414 414 415 415 416 416 417 417 416 416 415 415 416 416 417 417 418 418 419 419 418 418 417 417 418 418 419 419 420 420 421 421 420 420 419 419 420 420 421 421 422 422 423 423 422 422 421 421 422 422 423 423 424 424 425 425 424 424 423 423 424 424 425 425 426 426 427 427 426 426 425 425 426 426 427 427 428 428 429 429 428 428 427 427 428 428 429 429 414 414 415 415 414 414 429 429 430 430 431 431 432 432 433 433 432 432 431 431 432 432 433 433 434 434 435 435 434 434 433 433 434 434 435 435 436 436 437 437 436 436 435 435 436 436 437 437 438 438 439 439 438 438 437 437 438 438 439 439 440 440 441 441 440 440 439 439 440 440 441 441 442 442 443 443 442 442 441 441 442 442 443 443 444 444 445 445 444 444 443 443 444 444 445 445 446 446 447 447 446 446 445 445 446 446 447 447 448 448 449 449 448 448 447 447 448 448 449 449 450 450 451 451 450 450 449 449 450 450 451 451 452 452 453 453 452 452 451 451 452 452 453 453 454 454 455 455 454 454 453 453 454 454 455 455 456 456 457 457 456 456 455 455 456 456 457 457 458 458 459 459 458 458 457 457 458 458 459 459 460 460 461 461 460 460 459 459 460 460 461 461 462 462 463 463 462 462 461 461 462 462 463 463 464 464 465 465 464 464 463 463 464 464 465 465 466 466 430 430 466 466 465 465 466 466 430 430 432 432 467 467 468 468 469 469 469 469 470 470 467 467 471 471 467 467 470 470 467 467 471 471 472 472 471 471 473 473 472 472 474 474 472 472 473 473 472 472 474 474 475 475 474 474 476 476 475 475 477 477 475 475 476 476 475 475 477 477 478 478 477 477 479 479 478 478 480 480 478 478 479 479 478 478 480 480 481 481 480 480 482 482 481 481 483 483 481 481 482 482 481 481 483 483 484 484 483 483 485 485 484 484 486 486 484 484 485 485 484 484 486 486 487 487 486 486 488 488 487 487 489 489 487 487 488 488 487 487 489 489 490 490 489 489 491 491 490 490 492 492 490 490 491 491 490 490 492 492 493 493 492 492 494 494 493 493 495 495 493 493 494 494 493 493 495 495 496 496 495 495 497 497 496 496 498 498 496 496 497 497 496 496 498 498 499 499 498 498 500 500 499 499 501 501 499 499 500 500 499 499 501 501 502 502 501 501 503 503 502 502 504 504 502 502 503 503 502 502 504 504 505 505 504 504 506 506 505 505 507 507 505 505 506 506 505 505 507 507 508 508 507 507 509 509 508 508 510 510 508 508 509 509 508 508 510 510 511 511 510 510 512 512 511 511 513 513 511 511 512 512 511 511 513 513 514 514 513 513 515 515 514 514 516 516 514 514 515 515 514 514 516 516 517 517 516 516 518 518 517 517 519 519 517 517 518 518 517 517 519 519 520 520 519 519 521 521 520 520 522 522 520 520 521 521 520 520 522 522 468 468 523 523 468 468 522 522 468 468 523 523 469 469 524 524 525 525 526 526 527 527 526 526 525 525 528 528 529 529 530 530 531 531 530 530 529 529 532 532 533 533 534 534 535 535 534 534 533 533 536 536 537 537 538 538 539 539 538 538 537 537 540 540 541 541 542 542 543 543 542 542 541 541 544 544 537 537 545 545 536 536 545 545 537 537 545 545 536 536 546 546 547 547 546 546 536 536 546 546 547 547 548 548 549 549 548 548 547 547 548 548 549 549 550 550 551 551 550 550 549 549 550 550 551 551 552 552 553 553 530 530 554 554 531 531 554 554 530 530 554 554 531 531 555 555 556 556 555 555 531 531 555 555 556 556 557 557 558 558 557 557 556 556 557 557 558 558 559 559 560 560 559 559 558 558 559 559 560 560 535 535 561 561 535 535 560 560 535 535 561 561 534 534 562 562 544 544 563 563 545 545 563 563 544 544 563 563 545 545 564 564 565 565 564 564 545 545 564 564 565 565 566 566 567 567 566 566 565 565 566 566 567 567 568 568 569 569 568 568 567 567 568 568 569 569 570 570 571 571 570 570 569 569 570 570 571 571 527 527 535 535 527 527 571 571 527 527 535 535 526 526 533 533 526 526 535 535 572 572 573 573 574 574 552 552 574 574 573 573 574 574 552 552 575 575 551 551 575 575 552 552 573 573 541 541 552 552 540 540 552 552 541 541 552 552 540 540 576 576 577 577 576 576 540 540 576 576 577 577 578 578 579 579 578 578 577 577 578 578 579 579 580 580 581 581 580 580 579 579 580 580 581 581 582 582 583 583 582 582 581 581 582 582 583 583 554 554 584 584 554 554 583 583 554 554 584 584 553 553 585 585 553 553 584 584 586 586 587 587 588 588 589 589 588 588 587 587 588 588 589 589 590 590 591 591 590 590 589 589 590 590 591 591 592 592 593 593 592 592 591 591 592 592 593 593 594 594 595 595 594 594 593 593 594 594 595 595 596 596 597 597 596 596 595 595 596 596 597 597 598 598 599 599 598 598 597 597 598 598 599 599 600 600 601 601 600 600 599 599 600 600 601 601 602 602 603 603 602 602 601 601 602 602 603 603 604 604 605 605 604 604 603 603 604 604 605 605 606 606 607 607 606 606 605 605 606 606 607 607 608 608 609 609 608 608 607 607 608 608 609 609 610 610 611 611 610 610 609 609 610 610 611 611 612 612 613 613 612 612 611 611 612 612 613 613 614 614 615 615 614 614 613 613 614 614 615 615 616 616 617 617 616 616 615 615 616 616 617 617 618 618 619 619 618 618 617 617 618 618 619 619 620 620 621 621 620 620 619 619 620 620 621 621 586 586 587 587 586 586 621 621 622 622 623 623 624 624 625 625 624 624 623 623 624 624 625 625 626 626 627 627 626 626 625 625 626 626 627 627 628 628 629 629 628 628 627 627 628 628 629 629 630 630 631 631 630 630 629 629 630 630 631 631 632 632 633 633 632 632 631 631 632 632 633 633 634 634 635 635 634 634 633 633 634 634 635 635 636 636 637 637 636 636 635 635 636 636 637 637 638 638 639 639 638 638 637 637 638 638 639 639 640 640 641 641 640 640 639 639 640 640 641 641 622 622 623 623 622 622 641 641 642 642 643 643 644 644 645 645 644 644 643 643 644 644 645 645 646 646 647 647 646 646 645 645 646 646 647 647 648 648 649 649 648 648 647 647 648 648 649 649 650 650 649 649 651 651 650 650 652 652 650 650 651 651 650 650 652 652 653 653 654 654 653 653 652 652 653 653 654 654 655 655 656 656 655 655 654 654 655 655 656 656 657 657 658 658 657 657 656 656 657 657 658 658 642 642 659 659 642 642 658 658 642 642 659 659 643 643 660 660 661 661 662 662 663 663 662 662 661 661 662 662 663 663 664 664 665 665 664 664 663 663 664 664 665 665 666 666 667 667 666 666 665 665 666 666 667 667 668 668 669 669 668 668 667 667 668 668 669 669 670 670 671 671 670 670 669 669 670 670 671 671 672 672 673 673 672 672 671 671 672 672 673 673 674 674 675 675 674 674 673 673 674 674 675 675 676 676 677 677 676 676 675 675 676 676 677 677 678 678 679 679 678 678 677 677 678 678 679 679 660 660 661 661 660 660 679 679 680 680 681 681 682 682 683 683 682 682 681 681 682 682 683 683 684 684 685 685 684 684 683 683 684 684 685 685 686 686 687 687 686 686 685 685 686 686 687 687 688 688 687 687 689 689 688 688 690 690 688 688 689 689 688 688 690 690 691 691 692 692 691 691 690 690 691 691 692 692 693 693 694 694 693 693 692 692 693 693 694 694 695 695 696 696 695 695 694 694 695 695 696 696 680 680 697 697 680 680 696 696 680 680 697 697 681 681 698 698 699 699 700 700 701 701 700 700 699 699 700 700 701 701 702 702 703 703 702 702 701 701 702 702 703 703 704 704 705 705 704 704 703 703 704 704 705 705 706 706 707 707 706 706 705 705 706 706 707 707 708 708 709 709 708 708 707 707 708 708 709 709 710 710 711 711 710 710 709 709 710 710 711 711 712 712 713 713 712 712 711 711 712 712 713 713 714 714 715 715 714 714 713 713 714 714 715 715 716 716 717 717 716 716 715 715 716 716 717 717 698 698 699 699 698 698 717 717 718 718 719 719 720 720 721 721 720 720 719 719 720 720 721 721 722 722 723 723 722 722 721 721 722 722 723 723 724 724 725 725 724 724 723 723 724 724 725 725 726 726 725 725 727 727 726 726 728 728 726 726 727 727 726 726 728 728 729 729 730 730 729 729 728 728 729 729 730 730 731 731 732 732 731 731 730 730 731 731 732 732 733 733 734 734 733 733 732 732 733 733 734 734 718 718 735 735 718 718 734 734 718 718 735 735 719 719 736 736 737 737 738 738 739 739 738 738 737 737 738 738 739 739 740 740 741 741 740 740 739 739 740 740 741 741 742 742 743 743 742 742 741 741 742 742 743 743 744 744 745 745 744 744 743 743 744 744 745 745 746 746 747 747 746 746 745 745 746 746 747 747 748 748 749 749 748 748 747 747 748 748 749 749 750 750 751 751 750 750 749 749 750 750 751 751 752 752 753 753 752 752 751 751 752 752 753 753 754 754 755 755 754 754 753 753 754 754 755 755 736 736 737 737 736 736 755 755 756 756 757 757 758 758 759 759 758 758 757 757 758 758 759 759 760 760 761 761 760 760 759 759 760 760 761 761 762 762 763 763 762 762 761 761 762 762 763 763 764 764 763 763 765 765 764 764 766 766 764 764 765 765 764 764 766 766 767 767 768 768 767 767 766 766 767 767 768 768 769 769 770 770 769 769 768 768 769 769 770 770 771 771 772 772 771 771 770 770 771 771 772 772 756 756 773 773 756 756 772 772 756 756 773 773 757 757 774 774 775 775 776 776 777 777 776 776 775 775 776 776 777 777 778 778 779 779 778 778 777 777 778 778 779 779 780 780 781 781 780 780 779 779 782 782 783 783 784 784 785 785 784 784 783 783 784 784 785 785 786 786 787 787 786 786 785 785 786 786 787 787 788 788 789 789 788 788 787 787 790 790 791 791 792 792 793 793 792 792 791 791 792 792 793 793 794 794 795 795 794 794 793 793 794 794 795 795 796 796 797 797 796 796 795 795 798 798 799 799 800 800 801 801 800 800 799 799 800 800 801 801 802 802 803 803 802 802 801 801 802 802 803 803 804 804 805 805 804 804 803 803 806 806 807 807 808 808 808 808 807 807 809 809 810 810 809 809 807 807 809 809 810 810 811 811 812 812 813 813 810 810 814 814 810 810 813 813 810 810 814 814 811 811 815 815 816 816 817 817 818 818 817 817 816 816 819 819 820 820 821 821 815 815 822 822 816 816 823 823 816 816 822 822 816 816 823 823 812 812 824 824 812 812 823 823 812 812 824 824 813 813 825 825 826 826 818 818 827 827 818 818 826 826 818 818 827 827 817 817 819 819 821 821 828 828 808 808 829 829 806 806 830 830 806 806 829 829 806 806 830 830 819 819 831 831 819 819 830 830 819 819 831 831 820 820 821 821 832 832 828 828 833 833 828 828 832 832 828 828 833 833 825 825 834 834 825 825 833 833 825 825 834 834 826 826 835 835 836 836 837 837 838 838 837 837 836 836 837 837 838 838 839 839 838 838 840 840 839 839 841 841 839 839 840 840 839 839 841 841 842 842 843 843 842 842 841 841 842 842 843 843 844 844 843 843 845 845 844 844 846 846 844 844 845 845 844 844 846 846 847 847 848 848 847 847 846 846 847 847 848 848 849 849 850 850 849 849 848 848 849 849 850 850 851 851 852 852 851 851 850 850 851 851 852 852 853 853 854 854 853 853 852 852 853 853 854 854 835 835 855 855 835 835 854 854 835 835 855 855 836 836 856 856 857 857 858 858 859 859 858 858 857 857 858 858 859 859 26 26 860 860 26 26 859 859 861 861 862 862 863 863 864 864 863 863 862 862 863 863 864 864 6 6 865 865 6 6 864 864 497 497 866 866 498 498 867 867 498 498 866 866 498 498 867 867 500 500 868 868 500 500 867 867 500 500 868 868 501 501 869 869 501 501 868 868 501 501 869 869 503 503 870 870 503 503 869 869 503 503 870 870 504 504 871 871 504 504 870 870 504 504 871 871 506 506 872 872 506 506 871 871 506 506 872 872 507 507 873 873 507 507 872 872 507 507 873 873 509 509 874 874 509 509 873 873 509 509 874 874 510 510 875 875 510 510 874 874 510 510 875 875 512 512 876 876 512 512 875 875 512 512 876 876 513 513 877 877 513 513 876 876 513 513 877 877 515 515 878 878 515 515 877 877 515 515 878 878 516 516 879 879 516 516 878 878 516 516 879 879 518 518 880 880 518 518 879 879 518 518 880 880 519 519 881 881 519 519 880 880 519 519 881 881 521 521 882 882 521 521 881 881 521 521 882 882 522 522 883 883 522 522 882 882 522 522 883 883 523 523 884 884 523 523 883 883 523 523 884 884 469 469 885 885 469 469 884 884 469 469 885 885 470 470 886 886 470 470 885 885 470 470 886 886 471 471 887 887 471 471 886 886 471 471 887 887 473 473 888 888 473 473 887 887 473 473 888 888 474 474 889 889 474 474 888 888 474 474 889 889 476 476 890 890 476 476 889 889 476 476 890 890 477 477 891 891 477 477 890 890 477 477 891 891 479 479 892 892 479 479 891 891 479 479 892 892 480 480 893 893 480 480 892 892 480 480 893 893 482 482 894 894 482 482 893 893 482 482 894 894 483 483 895 895 483 483 894 894 483 483 895 895 485 485 896 896 485 485 895 895 485 485 896 896 486 486 897 897 486 486 896 896 486 486 897 897 488 488 898 898 488 488 897 897 488 488 898 898 489 489 899 899 489 489 898 898 489 489 899 899 491 491 900 900 491 491 899 899 491 491 900 900 492 492 901 901 492 492 900 900 492 492 901 901 494 494 902 902 494 494 901 901 494 494 902 902 495 495 903 903 495 495 902 902 495 495 903 903 497 497 866 866 497 497 903 903 866 866 904 904 867 867 905 905 867 867 904 904 867 867 905 905 868 868 906 906 868 868 905 905 868 868 906 906 869 869 907 907 869 869 906 906 869 869 907 907 870 870 908 908 870 870 907 907 870 870 908 908 871 871 909 909 871 871 908 908 871 871 909 909 872 872 910 910 872 872 909 909 872 872 910 910 873 873 860 860 873 873 910 910 873 873 860 860 874 874 859 859 874 874 860 860 874 874 859 859 875 875 857 857 875 875 859 859 875 875 857 857 876 876 856 856 876 876 857 857 876 876 856 856 877 877 911 911 877 877 856 856 877 877 911 911 878 878 912 912 878 878 911 911 878 878 912 912 879 879 913 913 879 879 912 912 879 879 913 913 880 880 914 914 880 880 913 913 880 880 914 914 881 881 915 915 881 881 914 914 881 881 915 915 882 882 916 916 882 882 915 915 882 882 916 916 883 883 917 917 883 883 916 916 883 883 917 917 884 884 918 918 884 884 917 917 884 884 918 918 885 885 919 919 885 885 918 918 885 885 919 919 886 886 920 920 886 886 919 919 886 886 920 920 887 887 921 921 887 887 920 920 887 887 921 921 888 888 922 922 888 888 921 921 888 888 922 922 889 889 923 923 889 889 922 922 889 889 923 923 890 890 924 924 890 890 923 923 890 890 924 924 891 891 925 925 891 891 924 924 891 891 925 925 892 892 865 865 892 892 925 925 892 892 865 865 893 893 864 864 893 893 865 865 893 893 864 864 894 894 862 862 894 894 864 864 894 894 862 862 895 895 861 861 895 895 862 862 895 895 861 861 896 896 926 926 896 896 861 861 896 896 926 926 897 897 927 927 897 897 926 926 897 897 927 927 898 898 928 928 898 898 927 927 898 898 928 928 899 899 929 929 899 899 928 928 899 899 929 929 900 900 930 930 900 900 929 929 900 900 930 930 901 901 931 931 901 901 930 930 901 901 931 931 902 902 932 932 902 902 931 931 902 902 932 932 903 903 933 933 903 903 932 932 903 903 933 933 866 866 904 904 866 866 933 933 858 858 1 1 856 856 0 0 856 856 1 1 856 856 0 0 911 911 20 20 911 911 0 0 911 911 20 20 912 912 19 19 912 912 20 20 912 912 19 19 913 913 18 18 913 913 19 19 913 913 18 18 914 914 17 17 914 914 18 18 914 914 17 17 915 915 16 16 915 915 17 17 915 915 16 16 916 916 15 15 916 916 16 16 916 916 15 15 917 917 14 14 917 917 15 15 917 917 14 14 918 918 13 13 918 918 14 14 918 918 13 13 919 919 12 12 919 919 13 13 919 919 12 12 920 920 4 4 920 920 12 12 920 920 4 4 921 921 3 3 921 921 4 4 921 921 3 3 922 922 11 11 922 922 3 3 922 922 11 11 923 923 10 10 923 923 11 11 923 923 10 10 924 924 9 9 924 924 10 10 924 924 9 9 925 925 8 8 925 925 9 9 925 925 8 8 865 865 7 7 865 865 8 8 865 865 7 7 6 6 863 863 21 21 861 861 23 23 861 861 21 21 861 861 23 23 926 926 24 24 926 926 23 23 926 926 24 24 927 927 41 41 927 927 24 24 927 927 41 41 928 928 40 40 928 928 41 41 928 928 40 40 929 929 36 36 929 929 40 40 929 929 36 36 930 930 35 35 930 930 36 36 930 930 35 35 931 931 34 34 931 931 35 35 931 931 34 34 932 932 39 39 932 932 34 34 932 932 39 39 933 933 38 38 933 933 39 39 933 933 38 38 904 904 37 37 904 904 38 38 904 904 37 37 905 905 33 33 905 905 37 37 905 905 33 33 906 906 32 32 906 906 33 33 906 906 32 32 907 907 31 31 907 907 32 32 907 907 31 31 908 908 30 30 908 908 31 31 908 908 30 30 909 909 29 29 909 909 30 30 909 909 29 29 910 910 28 28 910 910 29 29 910 910 28 28 860 860 27 27 860 860 28 28 860 860 27 27 26 26 934 934 935 935 936 936 934 934 936 936 937 937 938 938 937 937 936 936 937 937 938 938 939 939 314 314 316 316 940 940 941 941 940 940 316 316 940 940 941 941 942 942 939 939 942 942 941 941 942 942 939 939 943 943 938 938 943 943 939 939 265 265 264 264 944 944 945 945 944 944 264 264 944 944 945 945 946 946 96 96 946 946 945 945 946 946 96 96 97 97 98 98 947 947 948 948 98 98 948 948 97 97 97 97 948 948 949 949 950 950 949 949 948 948 949 949 950 950 951 951 326 326 951 951 950 950 951 951 326 326 328 328 324 324 952 952 322 322 953 953 322 322 952 952 954 954 955 955 956 956 953 953 952 952 956 956 957 957 956 956 952 952 956 956 957 957 954 954 100 100 99 99 958 958 959 959 100 100 960 960 958 958 960 960 100 100 960 960 958 958 961 961 962 962 961 961 958 958 961 961 962 962 332 332 330 330 332 332 962 962 101 101 963 963 99 99 964 964 99 99 963 963 964 964 963 963 965 965 282 282 965 965 963 963 965 965 282 282 288 288 62 62 966 966 63 63 967 967 63 63 966 966 199 199 198 198 966 966 968 968 966 966 198 198 966 966 968 968 967 967 188 188 187 187 969 969 970 970 969 969 187 187 969 969 970 970 971 971 972 972 971 971 970 970 971 971 972 972 63 63 858 858 26 26 973 973 974 974 973 973 26 26 973 973 974 974 76 76 75 75 76 76 974 974 1 1 858 858 975 975 973 973 975 975 858 858 975 975 973 973 77 77 76 76 77 77 973 973 72 72 976 976 977 977 67 67 978 978 977 977 72 72 977 977 979 979 978 978 979 979 977 977 979 979 978 978 79 79 976 976 67 67 977 977 67 67 66 66 978 978 980 980 978 978 66 66 64 64 65 65 981 981 982 982 981 981 65 65 981 981 982 982 980 980 980 980 982 982 978 978 80 80 978 978 982 982 978 978 80 80 79 79 84 84 83 83 983 983 983 983 65 65 63 63 84 84 983 983 984 984 63 63 984 984 983 983 984 984 63 63 972 972 73 73 75 75 974 974 73 73 974 974 985 985 26 26 985 985 974 974 985 985 26 26 25 25 69 69 67 67 976 976 72 72 71 71 986 986 72 72 986 986 976 976 987 987 976 976 986 986 976 976 987 987 69 69 25 25 988 988 989 989 42 42 990 990 989 989 25 25 989 989 985 985 990 990 985 985 989 989 985 985 990 990 73 73 988 988 42 42 989 989 987 987 991 991 69 69 992 992 69 69 991 991 293 293 292 292 991 991 993 993 991 991 292 292 991 991 993 993 992 992 49 49 42 42 988 988 49 49 988 988 994 994 25 25 994 994 988 988 994 994 25 25 22 22 74 74 73 73 990 990 74 74 990 990 995 995 42 42 995 995 990 990 995 995 42 42 45 45 197 197 196 196 996 996 997 997 996 996 196 196 996 996 997 997 998 998 68 68 998 998 997 997 998 998 68 68 69 69 46 46 49 49 999 999 46 46 999 999 1000 1000 88 88 1000 1000 999 999 1000 1000 88 88 87 87 81 81 82 82 1001 1001 81 81 1001 1001 1002 1002 5 5 1002 1002 1001 1001 1002 1002 5 5 2 2 2 2 1003 1003 1004 1004 78 78 1005 1005 1004 1004 2 2 1004 1004 1002 1002 1005 1005 1002 1002 1004 1004 1002 1002 1005 1005 81 81 1003 1003 78 78 1004 1004 83 83 86 86 1006 1006 83 83 1006 1006 1007 1007 82 82 1007 1007 1006 1006 1007 1007 82 82 80 80 77 77 78 78 1003 1003 77 77 1003 1003 975 975 2 2 975 975 1003 1003 975 975 2 2 1 1 79 79 81 81 1005 1005 79 79 1005 1005 979 979 78 78 979 979 1005 1005 979 979 78 78 72 72 80 80 982 982 1008 1008 65 65 983 983 1008 1008 80 80 1008 1008 1007 1007 983 983 1007 1007 1008 1008 1007 1007 983 983 83 83 982 982 65 65 1008 1008 863 863 6 6 1009 1009 1010 1010 1009 1009 6 6 1009 1009 1010 1010 90 90 91 91 90 90 1010 1010 21 21 863 863 1011 1011 1009 1009 1011 1011 863 863 1011 1011 1009 1009 89 89 90 90 89 89 1009 1009 86 86 91 91 1010 1010 86 86 1010 1010 1012 1012 6 6 1012 1012 1010 1010 1012 1012 6 6 5 5 5 5 1001 1001 1013 1013 82 82 1006 1006 1013 1013 5 5 1013 1013 1012 1012 1006 1006 1012 1012 1013 1013 1012 1012 1006 1006 86 86 1001 1001 82 82 1013 1013 1014 1014 1015 1015 94 94 1014 1014 94 94 1016 1016 1016 1016 74 74 995 995 1016 1016 995 995 1014 1014 45 45 1014 1014 995 995 1014 1014 45 45 1015 1015 102 102 100 100 1017 1017 1018 1018 1017 1017 100 100 98 98 94 94 1019 1019 1015 1015 1019 1019 94 94 1019 1019 1015 1015 1018 1018 1018 1018 1015 1015 1017 1017 45 45 1017 1017 1015 1015 1017 1017 45 45 46 46 74 74 1016 1016 70 70 1020 1020 70 70 1016 1016 94 94 93 93 1016 1016 1021 1021 1016 1016 93 93 1016 1016 1021 1021 1020 1020 1022 1022 1023 1023 102 102 1022 1022 102 102 1017 1017 1017 1017 46 46 1000 1000 1017 1017 1000 1000 1022 1022 87 87 1022 1022 1000 1000 1022 1022 87 87 1023 1023 1024 1024 1025 1025 1026 1026 1027 1027 1026 1026 1025 1025 1026 1026 1027 1027 1028 1028 71 71 1028 1028 1027 1027 1028 1028 71 71 70 70 103 103 102 102 1029 1029 1023 1023 1029 1029 102 102 1029 1029 1023 1023 1030 1030 87 87 1030 1030 1023 1023 1030 1030 87 87 85 85 1025 1025 1024 1024 1031 1031 1025 1025 1031 1031 1032 1032 291 291 1032 1032 1031 1031 1032 1032 291 291 293 293 71 71 1027 1027 1033 1033 1025 1025 1034 1034 1033 1033 71 71 1033 1033 986 986 1034 1034 986 986 1033 1033 986 986 1034 1034 987 987 1027 1027 1025 1025 1033 1033 84 84 1035 1035 85 85 1036 1036 85 85 1035 1035 1037 1037 1038 1038 1035 1035 1039 1039 1035 1035 1038 1038 1035 1035 1039 1039 1036 1036 987 987 1034 1034 1040 1040 1025 1025 1032 1032 1040 1040 987 987 1040 1040 991 991 1032 1032 991 991 1040 1040 991 991 1032 1032 293 293 1034 1034 1025 1025 1040 1040 972 972 1041 1041 1042 1042 1037 1037 1035 1035 1042 1042 972 972 1042 1042 984 984 1035 1035 984 984 1042 1042 984 984 1035 1035 84 84 1041 1041 1037 1037 1042 1042 187 187 186 186 1043 1043 187 187 1043 1043 1044 1044 1038 1038 1044 1044 1043 1043 1044 1044 1038 1038 1037 1037 187 187 1044 1044 1045 1045 1037 1037 1041 1041 1045 1045 187 187 1045 1045 970 970 1041 1041 970 970 1045 1045 970 970 1041 1041 972 972 1044 1044 1037 1037 1045 1045 1046 1046 999 999 49 49 1046 1046 49 49 994 994 994 994 22 22 1047 1047 994 994 1047 1047 1046 1046 88 88 1046 1046 1047 1047 1046 1046 88 88 999 999 89 89 88 88 1047 1047 89 89 1047 1047 1011 1011 22 22 1011 1011 1047 1047 1011 1011 22 22 21 21 310 310 312 312 1048 1048 310 310 1048 1048 1049 1049 201 201 1049 1049 1048 1048 1049 1049 201 201 199 199 62 62 1050 1050 1051 1051 310 310 1049 1049 1051 1051 62 62 1051 1051 966 966 1049 1049 966 966 1051 1051 966 966 1049 1049 199 199 1050 1050 310 310 1051 1051 311 311 310 310 1052 1052 1050 1050 1052 1052 310 310 1052 1052 1050 1050 1053 1053 1053 1053 1050 1050 1054 1054 62 62 1054 1054 1050 1050 1054 1054 62 62 64 64 64 64 981 981 1054 1054 1055 1055 1054 1054 981 981 66 66 1056 1056 980 980 1057 1057 980 980 1056 1056 1058 1058 308 308 309 309 309 309 1059 1059 1058 1058 1060 1060 1058 1058 1059 1059 1058 1058 1060 1060 68 68 1056 1056 68 68 1060 1060 68 68 1056 1056 66 66 196 196 1061 1061 1062 1062 308 308 1058 1058 1062 1062 196 196 1062 1062 997 997 1058 1058 997 997 1062 1062 997 997 1058 1058 68 68 1061 1061 308 308 1062 1062 306 306 308 308 1061 1061 306 306 1061 1061 1063 1063 196 196 1063 1063 1061 1061 1063 1063 196 196 195 195</p>
        </triangles>
      </mesh>
    </geometry>
  </library_geometries>
  <library_materials>
    <material id="3607e4b5305940d49d95d37150599a54" name="defaultmaterial">
      <instance_effect url="#09edd53e5da74fed9663db1f65914dc7"/>
    </material>
  </library_materials>
  <library_visual_scenes>
    <visual_scene id="scene">
      <node id="node0" name="node0">
        <instance_geometry url="#7728b14f74774319a26e83f861431560">
          <bind_material>
            <technique_common>
              <instance_material symbol="material0" target="#3607e4b5305940d49d95d37150599a54"/>
            </technique_common>
          </bind_material>
        </instance_geometry>
      </node>
    </visual_scene>
  </library_visual_scenes>
  <scene>
    <instance_visual_scene url="#scene"/>
  </scene>
</COLLADA>
