<COLLADA xmlns="http://www.collada.org/2005/11/COLLADASchema" version="1.4.1">
  <asset>
    <created>2026-10-05T22:47:04.580648</created>
    <modified>2026-10-05T22:47:04.580648</modified>
    <up_axis>Y_UP</up_axis>
  </asset>
  <library_effects>
    <effect id="3b6b637929b547cb85305f7c48337689" name="3b6b637929b547cb85305f7c48337689">
      <profile_COMMON>
        <technique sid="common">
          <phong>
            <emission>
              <color>0.0 0.0 0.0 1.0</color>
            </emission>
            <ambient>
              <color>0.0 0.0 0.0 1.0</color>
            </ambient>
            <diffuse>
              <color>0.23529411764705882 0.23529411764705882 0.23529411764705882 1.0</color>
            </diffuse>
            <specular>
              <color>0.0 0.0 0.0 1.0</color>
            </specular>
            <shininess>
              <float>0.0</float>
            </shininess>
            <reflective>
              <color>0.0 0.0 0.0 1.0</color>
            </reflective>
            <reflectivity>
              <float>0.0</float>
            </reflectivity>
            <transparent>
              <color>0.0 0.0 0.0 1.0</color>
            </transparent>
            <transparency>
              <float>1.0</float>
            </transparency>
          </phong>
        </technique>
        <extra>
          <technique profile="GOOGLEEARTH">
            <double_sided>0</double_sided>
          </technique>
        </extra>
      </profile_COMMON>
    </effect>
  </library_effects>
  <library_geometries>
    <geometry id="090e100910c04ce4bef3831cc99fe552" name="ce1d1ecd8db44301aac78a830f2e05f2">
      <mesh>
        <source id="verts-array">
          <float_array count="2322" id="verts-array-array">0.01316683 -0.009187934 -0.02838122 0.01231413 -0.007581514 -0.02794752 0.01212393 -0.007036254 -0.02838162 0.01224713 -0.007403184 -0.02790342 0.01175073 -0.004605204 -0.02838162 0.01180733 -0.005523294 -0.02755612 0.01175073 -0.004605204 -0.02748722 0.01141523 -0.001837034 -0.02363972 0.01114763 -0.001993654 -0.02292862 0.01969053 -0.002004424 -0.02548632 0.01102083 0.001995466 -0.02264772 0.01128873 0.001932926 -0.02327862 0.01969053 0.001995576 -0.02548632 0.01141853 0.001824466 -0.02364972 0.01925353 0.001409786 -0.02683132 0.01066123 0.001916206 -0.02196602 0.02012753 0.001409786 -0.02414132 0.009794425 0.001347026 -0.02072072 0.009390025 0.0008748073 -0.02025072 0.02030853 -4.423662e-06 -0.02358422 0.009253625 0.0006371633 -0.02010342 0.009099125 -4.423662e-06 -0.01994202 0.009385525 -0.0008768647 -0.02024572 0.009223625 -0.0005798107 -0.02007142 0.02012753 -0.001418634 -0.02414132 0.01050823 -0.001858284 -0.02171372 0.009867125 -0.001421404 -0.02081042 0.009746925 -0.001310224 -0.02066262 0.01925353 -0.001418634 -0.02683132 0.01160923 -0.001426434 -0.02433932 0.01152883 -0.001656554 -0.02401962 0.01160703 0.001425326 -0.02433032 0.01172073 0.0005507213 -0.02491712 0.01907253 -4.423662e-06 -0.02738842 0.01173373 -4.423662e-06 -0.02500392 0.01169033 -0.0009609827 -0.02473372 -0.02125117 -0.004504424 -0.008760419 -0.02125117 0.004495576 -0.008760419 -0.01278217 0.004495576 -0.01082872 0.006423625 -0.004504424 -0.01777522 0.005958625 -0.004504424 -0.01747762 0.009223625 -0.0005798107 -0.02007142 0.009099125 -4.423662e-06 -0.01994202 0.01140993 0.004495576 -0.02362302 0.01141853 0.001824466 -0.02364972 0.01128873 0.001932926 -0.02327862 0.01135373 0.004495576 -0.02345732 0.01102083 0.001995466 -0.02264772 0.01067283 0.004495576 -0.02198582 0.01066123 0.001916206 -0.02196602 0.009659825 0.004495576 -0.02055842 0.009794425 0.001347026 -0.02072072 0.009411825 0.004495576 -0.02027492 0.009390025 0.0008748073 -0.02025072 0.008301225 0.004495576 -0.01918932 0.009253625 0.0006371633 -0.02010342 0.005958625 0.004495576 -0.01747762 0.01172073 0.0005507213 -0.02491712 0.01160703 0.001425326 -0.02433032 0.01175073 0.004495576 -0.02748192 0.01173373 -4.423662e-06 -0.02500392 0.01175073 -0.004504424 -0.02748192 0.01169033 -0.0009609827 -0.02473372 0.01181903 0.004495576 -0.02661802 0.009411825 -0.004504424 -0.02027492 0.009385525 -0.0008768647 -0.02024572 0.009746925 -0.001310224 -0.02066262 0.009867125 -0.001421404 -0.02081042 0.01050823 -0.001858284 -0.02171372 0.01111123 -0.004504424 -0.02284492 0.01114763 -0.001993654 -0.02292862 0.01140993 -0.004504424 -0.02362302 0.01141523 -0.001837034 -0.02363972 0.01179173 -0.004504424 -0.02550262 0.01152883 -0.001656554 -0.02401962 0.01160923 -0.001426434 -0.02433932 0.004581025 0.004495576 -0.01668112 0.001238325 -0.004504424 -0.01511202 -0.0007154748 0.004495576 -0.01435212 -0.0007154748 -0.004504424 -0.01435212 -0.005560175 0.004495576 -0.01276552 -0.007194475 -0.004504424 -0.01229522 -0.01278217 -0.004504424 -0.01082872 -0.02983427 0.004495576 -0.006448619 -0.02729357 -0.004504424 -0.007186319 -0.03306987 0.004495576 -0.005399119 -0.03306987 -0.004504424 -0.005399119 -0.03466907 -0.004504424 -0.004817319 -0.03654437 0.004495576 -0.004062719 -0.03700117 -0.004504424 -0.003864519 -0.03924547 -0.004504424 -0.002783819 -0.04005047 0.004495576 -0.002342119 -0.04005047 -0.004504424 -0.002342119 -0.04229947 0.004495576 -0.000882319 -0.04368897 -0.004504424 0.000276781 -0.04406387 0.004495576 0.000642981 -0.04406387 -0.004504424 0.000642981 -0.04499097 0.004495576 0.001701181 -0.04549617 -0.004504424 0.002414381 -0.04623997 0.004495576 0.003813481 -0.04623997 -0.004504424 0.003813481 -0.04650097 -0.004504424 0.004511581 -0.04686877 0.004495576 0.006207981 -0.04692147 -0.004504424 0.007635581 -0.04692147 0.004495576 0.007635581 -0.04656447 0.004495576 0.01004168 -0.04655227 -0.004504424 0.01008978 -0.04586597 0.004495576 0.01214898 -0.04586597 -0.004504424 0.01214898 -0.04498447 -0.004504424 0.01403448 -0.04339437 0.004495576 0.01669028 -0.04243537 -0.004504424 0.01805998 -0.04243537 0.004495576 0.01805998 -0.04181997 -0.004504424 0.01888088 -0.03881387 0.004495576 0.02246548 -0.03620767 -0.004504424 0.02520848 -0.03620767 0.004495576 0.02520848 -0.02966857 -0.004504424 0.03128628 -0.02966857 0.004495576 0.03128628 -0.02957447 -0.006571494 0.03100818 0.01175073 -0.004554884 -0.02748322 0.01175073 -0.004605204 -0.02748722 0.01180733 -0.005523294 -0.02755612 0.01224713 -0.007403184 -0.02790342 0.01240493 -0.007581644 -0.02544942 0.01231413 -0.007581514 -0.02794752 0.01316683 -0.009187934 -0.02838122 -0.03583177 -0.007581644 0.02471358 -0.02945457 -0.007585424 0.03065448 -0.03458767 -0.01018532 0.02348018 -0.02886937 -0.01012112 0.02892568 -0.02931057 -0.008434644 0.03022938 -0.02765187 -0.01219702 0.02532438 -0.02793587 -0.01191602 0.02616448 -0.03272807 -0.01191492 0.02163668 -0.02829817 -0.01140182 0.02723658 -0.02688617 -0.01250442 0.02305478 -0.03058757 -0.01250442 0.01951458 -0.03388737 -0.01250442 0.01595808 -0.03786467 -0.01191492 0.01584528 -0.03889597 -0.01250442 0.006993981 -0.03892827 -0.01250442 0.007246781 -0.04194217 -0.01191492 0.007211481 -0.03856647 -0.01250442 0.008849981 -0.04172177 -0.01191492 0.008854981 -0.03790267 -0.01250442 0.01031318 -0.04057087 -0.01191492 0.01171528 -0.03746287 -0.01250442 0.01110138 -0.03547357 -0.01250442 0.01401018 -0.02595437 -0.01191492 -0.002383719 -0.02592407 -0.01250442 0.000739681 -0.03182797 -0.01250442 0.002661181 -0.005848175 -0.01191492 -0.007494519 -0.004408375 -0.01250442 -0.004769519 -0.001276475 -0.01191492 -0.008879319 0.0008382252 -0.01250442 -0.006412719 0.01675883 -0.01191492 -0.02507132 0.01894373 -0.01250442 -0.02092742 0.01639383 -0.01191492 -0.02291542 0.01842823 -0.01250442 -0.01961042 0.01567143 -0.01191492 -0.02082902 0.01659803 -0.01250442 -0.01644802 0.01453703 -0.01191492 -0.01876232 0.01527533 -0.01250442 -0.01483202 0.01305033 -0.01191492 -0.01686532 0.01284153 -0.01250442 -0.01255942 0.01123513 -0.01191492 -0.01513942 0.01082193 -0.01250442 -0.01109282 0.009164725 -0.01191492 -0.01361052 0.007690625 -0.01250442 -0.009278319 0.006272925 -0.01191492 -0.01193872 0.003142225 -0.01191492 -0.01050412 0.01754153 -0.01221762 -0.02855372 0.01973383 -0.01250442 -0.02807422 0.01678263 -0.01191492 -0.02718732 0.01982493 -0.01250442 -0.02622072 0.01976173 -0.01250442 -0.02481062 0.01414643 -0.01033382 -0.02866632 0.01568053 -0.01146512 -0.02877692 0.01663333 -0.01191822 -0.02869792 -0.04133167 -0.007581644 0.01850608 -0.04443957 -0.007581644 0.01374818 -0.04595597 -0.007581644 0.009937381 -0.04591567 -0.007581644 0.004701981 -0.04497907 -0.007581644 0.002748181 -0.04435797 -0.007581644 0.001893081 -0.04326737 -0.007581644 0.000725181 -0.04109657 -0.007581644 -0.000976519 -0.03895797 -0.007581644 -0.002239519 -0.03675287 -0.007581644 -0.003301319 -0.03445057 -0.007581644 -0.004242019 -0.02712827 -0.007581644 -0.006593419 -0.007028275 -0.007581644 -0.01170262 0.001473325 -0.007581644 -0.01454322 0.004284725 -0.007581644 -0.01583072 0.006762025 -0.007581644 -0.01726112 -0.04350717 -0.01018532 0.003698181 -0.04299667 -0.01018532 0.002995681 -0.04206727 -0.01018532 0.002001381 -0.04012617 -0.01018532 0.000481981 -0.03813977 -0.01018532 -0.000690519 -0.03604597 -0.01018532 -0.001698419 -0.03382837 -0.01018532 -0.002604319 -0.02665767 -0.01018532 -0.004906019 -0.006555275 -0.01018532 -0.01001582 -0.002096975 -0.01018532 -0.01136602 0.007725125 -0.01018532 -0.01579782 0.005081725 -0.01018532 -0.01427062 0.002142225 -0.01018532 -0.01292422 0.009824125 -0.007581644 -0.01981342 0.01111723 -0.01018532 -0.01863172 0.009559325 -0.01018532 -0.01715152 0.01167423 -0.007581644 -0.02259602 0.01089453 -0.007581644 -0.02117732 0.01235463 -0.01018532 -0.02020932 0.01327643 -0.01018532 -0.02188772 0.01385653 -0.01018532 -0.02356292 0.01415013 -0.01018532 -0.02529782 0.01399453 -0.01018452 -0.02863472 -0.03877467 -0.01250442 0.006752681 -0.04175967 -0.01191492 0.006053981 -0.04456057 -0.01018532 0.007180781 -0.04425877 -0.01018532 0.009503481 -0.04288887 -0.01018532 0.01293328 -0.03994197 -0.01018532 0.01743958 -0.03289847 -0.01191492 -0.000156519 -0.03400487 -0.01250442 0.003558581 -0.03498937 -0.01191492 0.000697481 -0.03550907 -0.01250442 0.004290081 -0.03691687 -0.01191492 0.001624881 -0.03761827 -0.01250442 0.005607181 -0.03867577 -0.01191492 0.002662081 -0.03820867 -0.01250442 0.006104781 -0.04027347 -0.01191492 0.003908981 -0.03861987 -0.01250442 0.006540981 -0.04096187 -0.01191492 0.004643881 -0.04130707 -0.01191492 0.005118181 -0.04424977 -0.01018532 0.005243981 -0.04631217 -0.007581644 0.007160281 0.04107523 0.005882496 -0.02748192 0.0407019 0.007264516 -0.02748192 0.04046576 0.007835626 -0.02273192 0.03885322 0.01015248 -0.02748192 0.04119637 0.004495576 -0.002481919 0.04119637 0.004495576 -0.02273192 0.04095361 0.006451526 -0.002632919 0.0407019 0.007264516 -0.02273192 0.03882477 0.01018068 -0.003949819 0.03909436 0.009900466 -0.003783619 0.04023927 0.008289906 -0.003076119 0.04057782 0.007580096 -0.002866219 0.03757489 0.01119098 -0.004717319 0.03596533 0.01200108 -0.02748192 0.03319633 0.01249558 -0.02748192 0.03319633 0.01249558 -0.007373019 0.03361723 0.01248448 -0.007120019 0.03566753 0.01210438 -0.005880619 0.03620753 0.01190728 -0.005552119 0.03989247 0.006005296 -0.02373192 0.03975699 0.005995576 -0.02373192 0.04011071 0.004646376 -0.02748192 0.04002514 0.006034386 -0.02373192 0.04060162 0.004784326 -0.02748192 0.04094738 0.005140016 -0.02748192 0.04037727 0.006268406 -0.02364992 0.04106556 0.005443666 -0.02748192 0.04061762 0.006810796 -0.02336512 0.04054043 0.007648176 -0.02285722 0.02511353 0.004646376 -0.02748192 0.02407813 0.005995576 -0.02373192 0.02351923 0.004628386 -0.02753212 0.01985773 0.004628386 -0.02753192 0.01009403 0.007458106 -0.02019112 0.01116453 0.007458106 -0.02170012 -0.04195947 0.007458106 -0.000426419 -0.03993577 0.007458106 -0.001751919 -0.01642527 0.01121838 -0.006166319 -0.01608517 0.01195478 -0.004762019 -0.004111475 0.01195478 -0.007866619 -0.02966827 0.004623746 0.03128518 -0.02956497 0.006662176 0.03098018 -0.03367647 0.007458106 0.02688658 -0.02945447 0.007577516 0.03065408 -0.02926747 0.008637846 0.03010238 -0.03315887 0.008897996 0.02634178 0.01973383 0.01249558 -0.02807422 0.01692443 0.01195478 -0.02679922 0.01678983 0.01195478 -0.02427312 0.01784543 0.01228408 -0.02849492 0.01520103 0.01116498 -0.02877882 0.01451763 0.01065668 -0.02872632 0.01418903 0.01018058 -0.02670212 0.01316673 0.009179046 -0.02838162 0.01289153 0.008752916 -0.02826282 0.01313853 0.008897996 -0.02666482 0.01202803 0.006692486 -0.02774912 0.01175073 0.004596356 -0.02748722 0.01175073 0.004546036 -0.02748322 0.01165753 0.01195478 -0.01533802 0.01576793 0.01249558 -0.01539212 0.01356033 0.01195478 -0.01725932 0.01740783 0.01249558 -0.01766082 0.01508973 0.01195478 -0.01941912 0.01890243 0.01249558 -0.02080832 0.01617423 0.01195478 -0.02176572 0.01942463 0.01249558 -0.02263032 0.01965113 0.01249558 -0.02385682 0.01401083 0.01249558 -0.01356452 0.009441225 0.01195478 -0.01364702 0.01105433 0.01249558 -0.01124742 0.007003925 0.01195478 -0.01218352 0.009036425 0.01249558 -0.01000332 0.001628225 0.01195478 -0.009773719 0.002651425 0.01249558 -0.007069519 0.001306525 0.01249558 -0.006577019 -0.003291575 0.01249558 -0.005094019 -0.01110337 0.01249558 -0.003002419 -0.01540477 0.01249558 -0.001951819 -0.03340167 0.01249558 0.003294081 -0.02962807 0.01249558 0.001879181 -0.02835197 0.01195478 -0.001559819 -0.02751297 0.01249558 0.001207181 -0.02248487 0.01249558 -0.000195719 -0.03453747 0.01195478 0.000635181 -0.03765687 0.01195478 0.002174481 -0.03548237 0.01249558 0.004275981 -0.03748577 0.01249558 0.005507481 -0.03924537 0.01195478 0.003212781 -0.03751677 0.01249558 0.005530481 -0.04094927 0.01195478 0.004825681 -0.03866187 0.01249558 0.006594081 -0.04152197 0.01195478 0.005773481 -0.03889597 0.01249558 0.006993981 -0.04181817 0.01195478 0.007388581 -0.03892777 0.01249558 0.007314181 -0.04161047 0.01195478 0.008794381 -0.03853137 0.01249558 0.008942981 -0.04090787 0.01195478 0.01074908 -0.03914567 0.01195478 0.01385368 -0.03676617 0.01249558 0.01221048 -0.03502607 0.01195478 0.01903768 -0.03288217 0.01249558 0.01709758 -0.02793567 0.01190738 0.02616388 -0.02757027 0.01225128 0.02508248 -0.03054977 0.01195478 0.02359508 -0.02688617 0.01249558 0.02305478 -0.03180447 0.01249558 0.01826028 0.009859225 0.01018058 -0.01740152 0.01070823 0.01121838 -0.01642732 0.01147043 0.01018058 -0.01902702 0.01245703 0.01121838 -0.01819242 0.01272313 0.01018058 -0.02079442 0.01384043 0.01121838 -0.02014512 0.01359143 0.01018058 -0.02267202 0.01481073 0.01121838 -0.02224412 0.01408113 0.01018058 -0.02466732 0.01535993 0.01121838 -0.02448122 0.01548043 0.01121838 -0.02674802 0.01604363 0.01164758 -0.02875742 0.008635025 0.01121838 -0.01484612 0.007914125 0.01018058 -0.01591862 0.006318625 0.01121838 -0.01345562 0.005705725 0.01018058 -0.01459332 0.001116825 0.01121838 -0.01112522 0.0006595252 0.01018058 -0.01233382 -0.004521275 0.01121838 -0.009252319 -0.004887675 0.01018058 -0.01049152 -0.01672937 0.01018058 -0.007422319 -0.02877127 0.01121838 -0.002942519 -0.02914617 0.01018058 -0.004179219 -0.03510517 0.01121838 -0.000693619 -0.03561277 0.01018058 -0.001882019 -0.03838217 0.01121838 0.000924781 -0.03903087 0.01018058 -0.000192819 -0.04010917 0.01121838 0.002054481 -0.04088177 0.01018058 0.001018581 -0.04209247 0.01121838 0.003941981 -0.04311487 0.01018058 0.003151581 -0.04284687 0.01121838 0.005196781 -0.02881507 0.01026678 0.02876488 -0.02823177 0.01150158 0.02704038 -0.03243487 0.01018058 0.02557968 -0.03154487 0.01121838 0.02464268 -0.03705557 0.01018058 0.02087428 -0.03609737 0.01121838 0.02000718 -0.04142217 0.01018058 0.01537348 -0.04034737 0.01121838 0.01465598 -0.04340077 0.01018058 0.01187948 -0.04222387 0.01121838 0.01134578 -0.04426487 0.01018058 0.009462681 -0.04301167 0.01121838 0.009147181 -0.04455447 0.01018058 0.007458981 -0.04326257 0.01121838 0.007425781 -0.04451277 0.01018058 0.006477681 -0.04403167 0.01018058 0.004680981 -0.03632097 0.007458106 -0.003539719 -0.02966927 0.007458106 -0.005904319 -0.04454097 0.007458106 0.002049081 -0.04568457 0.007458106 0.003961581 -0.04630377 0.007458106 0.006272681 -0.04635647 0.007458106 0.007505381 -0.04601297 0.007458106 0.009902781 -0.04504247 0.007458106 0.01262398 -0.04292137 0.007458106 0.01637438 -0.03839217 0.007458106 0.02208388 -0.03783497 0.008897996 0.02157958 -0.04229637 0.008897996 0.01595718 -0.04435807 0.008897996 0.01231358 -0.04528417 0.008897996 0.009719281 -0.04560527 0.008897996 0.007486081 -0.04555707 0.008897996 0.006358081 -0.04499547 0.008897996 0.004261481 -0.04394647 0.008897996 0.002508681 -0.04151017 0.008897996 0.000175981 -0.03955847 0.008897996 -0.001101919 -0.03602577 0.008897996 -0.002848619 -0.02945117 0.008897996 -0.005185119 0.01189043 0.007458106 -0.02326892 0.01229723 0.007458106 -0.02492682 0.01238743 0.007458106 -0.02663822 0.008674825 0.007458106 -0.01876052 0.004850825 0.007458106 -0.01618032 0.009168625 0.008897996 -0.01819392 0.01066783 0.008897996 -0.01970582 0.01181433 0.008897996 -0.02132252 0.01259953 0.008897996 -0.02302012 0.01304093 0.008897996 -0.02481862 0.005207225 0.008897996 -0.01551872 0.0002875252 0.008897996 -0.01331692 2.162518e-05 0.007458106 -0.01401982 -0.005185775 0.008897996 -0.01149952 -0.005398875 0.007458106 -0.01222012 -0.01697677 0.008897996 -0.008443919 -0.01715357 0.007458106 -0.009174319 -0.02966857 0.004495576 0.03128628 -0.02966857 -0.004504424 0.03128628 -0.01980077 0.004495576 0.03026448 -0.01980077 -0.004504424 0.03026448 -0.01636937 0.004495576 0.02967128 -0.01636937 -0.004504424 0.02967128 -0.01450457 0.004495576 0.02928318 -0.009137975 -0.004504424 0.02785748 -0.006258275 0.004495576 0.02686968 -0.006258275 -0.004504424 0.02686968 -0.003862975 0.004495576 0.02591008 0.001173525 -0.004504424 0.02343858 0.001760725 0.004495576 0.02310898 0.001760725 -0.004504424 0.02310898 0.005838625 0.004495576 0.02059158 0.005838625 -0.004504424 0.02059158 0.01091523 0.004495576 0.01701448 0.01091523 -0.004504424 0.01701448 0.02213933 -0.004504424 0.008769281 0.02213933 0.004495576 0.008769281 0.03304733 -0.004504424 0.001845681 0.03304733 0.004495576 0.001845681 0.04119637 -0.004504424 -0.002481919 0.04119637 0.004495576 -0.002481919 0.01973383 0.01249558 -0.02807422 0.01973383 0.004628386 -0.02807422 0.01784543 0.01228408 -0.02849492 0.01909033 0.004628386 -0.02822302 0.01604363 0.01164758 -0.02875742 0.01973383 -0.01250442 -0.02807422 0.01754153 -0.01221762 -0.02855372 0.01973383 -0.004637234 -0.02807422 0.01663333 -0.01191822 -0.02869792 0.01909033 -0.004637234 -0.02822302 0.01568053 -0.01146512 -0.02877692 0.01520103 0.01116498 -0.02877882 0.01399453 -0.01018452 -0.02863472 0.01316683 -0.009187934 -0.02838122 0.01316673 0.009179046 -0.02838162 0.01414643 -0.01033382 -0.02866632 0.01451763 0.01065668 -0.02872632 0.04005568 -0.005900814 -0.02373192 0.04037536 -0.006084634 -0.02366832 0.04071443 -0.004864014 -0.02748192 0.04067062 -0.006646394 -0.02336372 0.04107247 -0.005460144 -0.02748192 0.0399305 -0.005875304 -0.02373192 0.0401102 -0.004648334 -0.02748192 0.03980304 -0.005866784 -0.02373192 0.04107886 -0.005870564 -0.02748192 0.04067322 -0.007254584 -0.02298822 0.04055865 -0.007634414 -0.02273192 0.04119637 -0.004504424 -0.02273192 0.04107519 0.004495576 -0.02320912 0.04107519 -0.004504424 -0.02320912 0.04090348 0.004495576 -0.02343902 0.04090348 -0.004504424 -0.02343902 0.04067353 0.004495576 -0.02361072 0.04067353 -0.004504424 -0.02361072 0.04019637 0.004495576 -0.02373192 0.04019637 -0.004504424 -0.02373192 0.04002514 0.006034386 -0.02373192 0.04037727 0.006268406 -0.02364992 0.04061762 0.006810796 -0.02336512 0.04054043 0.007648176 -0.02285722 0.04005568 -0.005900814 -0.02373192 0.04037536 -0.006084634 -0.02366832 0.04067062 -0.006646394 -0.02336372 0.0407019 -0.007273364 -0.02273192 0.04067322 -0.007254584 -0.02298822 0.01909033 0.004628386 -0.02822302 0.01973383 0.004628386 -0.02807422 0.01985773 0.004628386 -0.02753192 0.02236513 0.004628386 -0.02763212 0.02351923 0.004628386 -0.02753212 0.01909033 -0.004637234 -0.02822302 0.02081543 -0.0007822407 -0.02666972 0.01987533 -0.004637234 -0.02751612 0.02148283 -0.001104424 -0.02606872 0.02407813 -0.005866784 -0.02373192 0.02215033 -0.0007822407 -0.02546772 0.02081543 0.0007733933 -0.02666972 0.01909033 0.004628386 -0.02822302 0.02148283 0.001095576 -0.02606872 0.01985773 0.004628386 -0.02753192 0.02215033 0.0007733933 -0.02546772 0.02407813 0.005995576 -0.02373192 0.02061073 0.0004165283 -0.02685392 0.02053893 -4.423662e-06 -0.02691862 0.02061073 -0.0004253757 -0.02685392 0.02235493 -0.0004253757 -0.02528352 0.02242673 -4.423662e-06 -0.02521882 0.02235493 0.0004165283 -0.02528352 0.03989247 0.006005296 -0.02373192 0.0399305 -0.005875304 -0.02373192 0.03980304 -0.005866784 -0.02373192 0.03975699 0.005995576 -0.02373192 0.02407813 -0.005866784 -0.02373192 0.02407813 0.005995576 -0.02373192 0.01987533 -0.004637234 -0.02751612 0.02407813 -0.005866784 -0.02373192 0.02379503 -0.004637194 -0.02751622 0.02445403 -0.004645534 -0.02749052 0.02511353 -0.004648334 -0.02748192 0.02379503 -0.004637194 -0.02751622 0.02236513 -0.004637234 -0.02763212 0.01987533 -0.004637234 -0.02751612 0.01973383 -0.004637234 -0.02807422 0.01909033 -0.004637234 -0.02822302 0.02511353 0.004646376 -0.02748192 0.02351923 0.004628386 -0.02753212 0.02511353 0.01249558 -0.02748192 0.02236513 0.01249558 -0.02763212 0.02236513 0.004628386 -0.02763212 0.01212393 -0.007036254 -0.02838162 0.01175073 -0.004605204 -0.02838162 0.01316683 -0.009187934 -0.02838122 0.01175073 0.004596356 -0.02838162 0.01316673 0.009179046 -0.02838162 0.01211943 0.007012786 -0.02838162 0.01289153 0.008752916 -0.02826282 0.01316673 0.009179046 -0.02838162 0.01211943 0.007012786 -0.02838162 0.01202803 0.006692486 -0.02774912 0.01175073 0.004596356 -0.02838162 0.01175073 0.004596356 -0.02748722 0.03319633 0.01249558 -0.02748192 0.03596533 0.01200108 -0.02748192 0.04011071 0.004646376 -0.02748192 0.03885322 0.01015248 -0.02748192 0.0407019 0.007264516 -0.02748192 0.04094738 0.005140016 -0.02748192 0.04060162 0.004784326 -0.02748192 0.04106556 0.005443666 -0.02748192 0.04107523 0.005882496 -0.02748192 0.04119637 -0.004504424 -0.002481919 -0.02100317 0.01249558 0.02235528 0.02236513 0.01249558 -0.02763212 0.02511353 0.01249558 -0.02748192 0.008448325 0.01249558 0.008880081 0.02118823 0.01249558 -0.000250119 0.02947283 0.01249558 -0.005325319 0.02196003 0.01249558 -0.000754819 0.005405325 0.01249558 0.01113418 -0.002703575 0.01249558 0.01644088 -0.001145975 0.01249558 0.01554298 -0.01634907 0.01249558 0.02149778 -0.01153287 0.01249558 0.02022438 -0.007992175 0.01249558 0.01896278 0.02236513 -0.01250442 -0.02763212 0.02511353 -0.01250442 -0.02748192 0.03319633 -0.01250442 -0.02748192 0.03319633 -0.01250442 -0.007373019 0.01944403 -0.01250442 0.000914581 0.005405325 -0.01250442 0.01113418 0.02947283 -0.01250442 -0.005325319 -0.02097957 -0.01250442 0.02235178 0.003523325 -0.01250442 0.01248378 -0.002703575 -0.01250442 0.01644088 -0.004342375 -0.01250442 0.01730938 -0.007013975 -0.01250442 0.01855688 -0.01206037 -0.01250442 0.02038678 -0.01623557 -0.01250442 0.02147278 0.0407019 -0.007273364 -0.02748192 0.03378663 -0.01248262 -0.007018219 0.03596533 -0.01200992 -0.02748192 0.03568353 -0.01210802 -0.005870819 0.03885322 -0.01016132 -0.02748192 0.0375541 -0.01121342 -0.004730019 0.03907722 -0.009928034 -0.003794319 0.04023259 -0.008311214 -0.003080319 0.04095175 -0.006467604 -0.002634019 -0.02957447 -0.006571494 0.03100818 -0.02945457 -0.007585424 0.03065448 -0.01988627 -0.007466934 0.02970218 0.03378663 -0.01248262 -0.007018219 0.03568353 -0.01210802 -0.005870819 0.03090153 -0.01196362 -0.002811619 0.0375541 -0.01121342 -0.004730019 -0.001302275 -0.01196362 0.01897008 0.003016825 -0.01196362 0.01633308 0.007108625 -0.01196362 0.01347058 -0.02056857 -0.01196362 0.02521388 -0.02793587 -0.01191602 0.02616448 -0.02765187 -0.01219702 0.02532438 -0.005875075 -0.01196362 0.02121448 -0.01066727 -0.01196362 0.02298318 -0.01560997 -0.01196362 0.02429568 0.008721025 -0.01018942 0.01568248 0.01578393 -0.01122722 0.008820981 0.01654943 -0.01018942 0.009862081 0.02357223 -0.01122722 0.003371881 0.02428263 -0.01018942 0.004451281 0.03161553 -0.01122722 -0.001555419 0.03225403 -0.01018942 -0.000431919 0.03907722 -0.009928034 -0.003794319 0.02277783 -0.01196362 0.002164881 -0.02886937 -0.01012112 0.02892568 -0.02829817 -0.01140182 0.02723658 -0.02015717 -0.01018942 0.02791998 -0.02035137 -0.01122722 0.02664238 -0.01501767 -0.01018942 0.02696798 -0.01529727 -0.01122722 0.02570638 -0.009847875 -0.01018942 0.02559488 -0.01023477 -0.01122722 0.02436188 -0.004796975 -0.01018942 0.02373038 -0.005305975 -0.01122722 0.02254258 2.432518e-05 -0.01018942 0.02136428 -0.0006019748 -0.01122722 0.02023398 0.004528725 -0.01018942 0.01861478 0.003814925 -0.01122722 0.01753758 0.007959725 -0.01122722 0.01463818 0.01492803 -0.01196362 0.007656881 -0.01462767 -0.007466934 0.02872798 -0.009308275 -0.007466934 0.02731478 -0.004086975 -0.007466934 0.02538728 0.0008979252 -0.007466934 0.02294108 0.005524425 -0.007466934 0.02011748 0.02527373 -0.007466934 0.005956981 0.03314483 -0.007466934 0.001135281 0.04095175 -0.006467604 -0.002634019 0.02486053 -0.008906824 0.005329281 0.03277343 -0.008906824 0.000481881 0.04023259 -0.008311214 -0.003080319 -0.02931057 -0.008434644 0.03022938 -0.01999917 -0.008906824 0.02895918 -0.01479027 -0.008906824 0.02799428 -0.009533275 -0.008906824 0.02659778 -0.004382975 -0.008906824 0.02469648 0.0005337252 -0.008906824 0.02228368 0.005109325 -0.008906824 0.01949108 0.009782825 -0.007466934 0.01713918 0.009340125 -0.008906824 0.01653188 0.01761733 -0.007466934 0.01131438 0.01717213 -0.008906824 0.01070898 -0.02823177 0.01150158 0.02704038 -0.02881507 0.01026678 0.02876488 -0.02015657 0.01017678 0.02792368 -0.02926747 0.008637846 0.03010238 -0.02945447 0.007577516 0.03065408 -0.01989327 0.007572986 0.02965588 -0.02966827 0.004623746 0.03128518 0.03909436 0.009900466 -0.003783619 0.03882477 0.01018068 -0.003949819 0.03225593 0.01017678 -0.000428619 -0.02757027 0.01225128 0.02508248 -0.02793567 0.01190738 0.02616388 -0.02055017 0.01190628 0.02533468 -0.01558357 0.01190628 0.02441488 -0.01063077 0.01190628 0.02309968 -0.005826975 0.01190628 0.02132668 -0.001243075 0.01190628 0.01907688 0.003084225 0.01190628 0.01643488 0.007180525 0.01190628 0.01356928 0.01500033 0.01190628 0.007755281 0.02284493 0.01190628 0.002266881 0.03757489 0.01119098 -0.004717319 0.03620753 0.01190728 -0.005552119 0.03096193 0.01190628 -0.002705419 0.03566753 0.01210438 -0.005880619 0.03361723 0.01248448 -0.007120019 0.04095361 0.006451526 -0.002632919 0.04057782 0.007580096 -0.002866219 0.03312163 0.007572986 0.001094581 0.04023927 0.008289906 -0.003076119 -0.02956497 0.006662176 0.03098018 -0.01463777 0.007572986 0.02868218 -0.009322275 0.007572986 0.02727008 -0.004105475 0.007572986 0.02534428 0.0008752252 0.007572986 0.02290008 0.005498525 0.007572986 0.02007848 0.009755325 0.007572986 0.01710128 0.01758953 0.007572986 0.01127668 0.02524803 0.007572986 0.005917881 -0.01501687 0.01017678 0.02697168 -0.009846775 0.01017678 0.02559848 -0.004795575 0.01017678 0.02373388 2.612518e-05 0.01017678 0.02136758 0.004530825 0.01017678 0.01861798 0.008723225 0.01017678 0.01568548 0.01655163 0.01017678 0.009865181 0.02428473 0.01017678 0.004454381 0.02445403 -0.004645534 -0.02749052 0.02511353 -0.004648334 -0.02748192 0.02511353 -0.01250442 -0.02748192 0.02379503 -0.004637194 -0.02751622 0.02236513 -0.01250442 -0.02763212 0.02236513 -0.004637234 -0.02763212 0.03319633 -0.01250442 -0.02748192 0.04071443 -0.004864014 -0.02748192 0.04107247 -0.005460144 -0.02748192 0.0401102 -0.004648334 -0.02748192 0.04107886 -0.005870564 -0.02748192 0.0407019 -0.007273364 -0.02748192 0.03885322 -0.01016132 -0.02748192 0.03596533 -0.01200992 -0.02748192 0.01175073 0.004546036 -0.02748322 0.01175073 0.004596356 -0.02748722 0.01175073 0.004596356 -0.02838162 0.01175073 -0.004605204 -0.02748722 0.01175073 -0.004554884 -0.02748322 0.01175073 -0.004605204 -0.02838162 0.01175073 -0.004504424 -0.02748192 0.01175073 0.004495576 -0.02748192 0.01993093 -0.0007822407 -0.02474662 0.02012753 -0.001418634 -0.02414132 0.02003043 -4.423662e-06 -0.02444022 0.02030853 -4.423662e-06 -0.02358422 0.01993093 0.0007733933 -0.02474662 0.02012753 0.001409786 -0.02414132 0.01969053 0.001095576 -0.02548632 0.01969053 0.001995576 -0.02548632 0.01945023 0.0007733933 -0.02622612 0.01925353 0.001409786 -0.02683132 0.01935063 -4.423662e-06 -0.02653252 0.01907253 -4.423662e-06 -0.02738842 0.01945023 -0.0007822407 -0.02622612 0.01925353 -0.001418634 -0.02683132 0.01969053 -0.001104424 -0.02548632 0.01969053 -0.002004424 -0.02548632 0.02003043 -4.423662e-06 -0.02444022 0.02242673 -4.423662e-06 -0.02521882 0.02235493 -0.0004253757 -0.02528352 0.01993093 -0.0007822407 -0.02474662 0.02235493 0.0004165283 -0.02528352 0.01993093 0.0007733933 -0.02474662 0.02215033 0.0007733933 -0.02546772 0.01969053 0.001095576 -0.02548632 0.02148283 0.001095576 -0.02606872 0.01945023 0.0007733933 -0.02622612 0.02081543 0.0007733933 -0.02666972 0.02215033 -0.0007822407 -0.02546772 0.02148283 -0.001104424 -0.02606872 0.01969053 -0.001104424 -0.02548632 0.02081543 -0.0007822407 -0.02666972 0.01945023 -0.0007822407 -0.02622612 0.02061073 -0.0004253757 -0.02685392 0.01935063 -4.423662e-06 -0.02653252 0.02053893 -4.423662e-06 -0.02691862 0.02061073 0.0004165283 -0.02685392</float_array>
          <technique_common>
            <accessor count="774" source="#verts-array-array" stride="3">
              <param type="float" name="X"/>
              <param type="float" name="Y"/>
              <param type="float" name="Z"/>
            </accessor>
          </technique_common>
        </source>
        <source id="normals-array">
          <float_array count="2322" id="normals-array-array">-0.889427 -0.4311255 -0.1518233 -0.9052897 -0.4085152 -0.1164729 -0.9715984 -0.2274866 0.06516436 -0.9583529 -0.2855857 -0.0006810379 -0.9917474 -0.1212994 -0.0415148 -0.9801995 -0.1623543 -0.1133575 -0.9981051 -0.06153291 0 0.08972165 0.9443489 0.316473 -0.04117414 0.9977215 -0.05344663 0.002604966 0.9999865 -0.004492791 -0.02363408 -0.9971085 -0.07222223 0.05336627 -0.983086 0.175197 -0.01630351 -0.9998586 0.00412829 0.1150888 -0.9169685 0.381999 0.201282 -0.7069829 0.6779829 -0.1351148 -0.8983337 -0.4180199 -0.2319105 -0.7067074 -0.6684176 -0.2377691 -0.640732 -0.7300194 -0.2888815 -0.4239889 -0.8583594 -0.3160182 0.004136539 -0.9487441 -0.3041907 -0.2402771 -0.9218107 -0.3355614 0.0219247 -0.9417631 -0.3381292 0.3051607 -0.8902503 -0.7402461 -0.008982002 -0.672276 -0.2144538 0.7092135 -0.6715846 -0.1498146 0.8890385 -0.432627 -0.2548589 0.6853575 -0.6821525 -0.284196 0.5641354 -0.7752315 0.2171112 0.7070537 0.6730065 0.182422 0.7325967 0.6557624 0.1284753 0.8482787 0.5137289 0.2133078 -0.7233956 0.6566571 0.2884872 -0.3525614 0.890211 0.3001481 0.005749203 0.9538753 0.2961914 0.06759953 0.9527334 0.2637961 0.4506546 0.8528318 -0.2453689 -0.1009074 -0.9641638 -0.248222 0.1020989 -0.9633077 -0.2503011 0.08049939 -0.9648156 -0.5740321 -0.1370747 -0.8072779 -0.5075886 -0.1131593 -0.8541363 -0.6581162 0.0184558 -0.7526901 -0.6337512 -0.00120198 -0.773536 -0.9660314 0.096382 -0.2397789 -0.9567066 -0.0001709144 -0.2910541 -0.9335457 -0.001650968 -0.3584547 -0.9255511 0.09221856 -0.3672206 -0.903825 -0.004227774 -0.4278813 -0.8604094 0.09196498 -0.5012366 -0.8484171 -0.002139052 -0.5293239 -0.7813162 0.09480559 -0.6168929 -0.7817454 -0.001867877 -0.6235949 -0.7233053 0.09434856 -0.6840525 -0.7293307 -0.00873641 -0.6841056 -0.6326128 0.1033068 -0.7675473 -0.662654 -0.01768955 -0.7487168 -0.5556499 0.08094988 -0.8274662 -0.9977263 -0.03123977 -0.05971933 -0.9895221 -0.0314395 -0.140917 -0.9983827 0.02757143 0.04971685 -0.9997064 0.003046008 -0.02403832 -0.9998905 -0.01473366 0.001393145 -0.9956523 0.04589418 -0.08105695 -0.9911858 0.1320525 0.01062123 -0.7347169 -0.09657794 -0.6714639 -0.7387781 6.876215e-05 -0.6739487 -0.7625635 0.001479996 -0.6469116 -0.7904945 0.0103736 -0.6123812 -0.8416234 0.02043505 -0.5396781 -0.8904172 -0.09812436 -0.4444422 -0.913289 -0.001276767 -0.4073101 -0.9560398 -0.09408941 -0.2777321 -0.9572626 0.02010754 -0.2885202 -0.9907371 -0.1212615 -0.0611202 -0.9798818 0.05851829 -0.1908069 -0.985448 0.09712274 -0.1394971 -0.4523564 0.09496277 -0.886767 -0.3982749 -0.1021196 -0.9115639 -0.3522841 0.09388449 -0.9311722 -0.3265741 -0.08322395 -0.9415005 -0.2828662 0.09336983 -0.954604 -0.2790381 -0.0957113 -0.9554984 -0.2418435 -0.08549415 -0.9665415 -0.2847781 0.09250198 -0.9541199 -0.2712707 -0.09645236 -0.9576582 -0.3305199 0.1021973 -0.9382496 -0.31607 -0.1033762 -0.943087 -0.358191 -0.09844348 -0.9284439 -0.3985136 0.0965434 -0.912067 -0.4047476 -0.09808342 -0.9091529 -0.457879 -0.1011351 -0.8832432 -0.4910891 0.09612247 -0.8657898 -0.5237424 -0.1046634 -0.8454227 -0.5974861 0.09396123 -0.7963552 -0.6441901 -0.1049302 -0.7576336 -0.7012043 0.1014155 -0.7057106 -0.7319414 -0.104931 -0.6732394 -0.8051344 0.09524217 -0.5853952 -0.8305895 -0.09905733 -0.5480043 -0.9186556 0.097279 -0.3828952 -0.9071638 -0.100123 -0.4086922 -0.9643117 -0.100659 -0.2448893 -0.9849755 0.09456439 -0.1445018 -0.9948295 -0.1009098 0.01146647 -0.9940302 0.09403748 0.05532526 -0.9676221 0.09695762 0.2330381 -0.9676638 -0.09812613 0.232375 -0.915571 0.1000541 0.3895111 -0.9237181 -0.1049014 0.3684299 -0.8735202 -0.09858723 0.4767001 -0.8449479 0.09640219 0.526089 -0.8183922 -0.1042795 0.5651195 -0.7916178 0.1035719 0.6021745 -0.772301 -0.1001943 0.6273056 -0.743334 0.09575648 0.6620312 -0.7124794 -0.09816744 0.6947923 -0.7048721 0.1046777 0.7015681 -0.6794393 -0.06316121 0.7310082 -0.6807933 0.003934637 0.732465 -0.666103 -0.2185575 0.7131195 -0.9997846 -0.00111825 0.02072483 -0.9991363 -0.03498737 0.02241793 -0.9848194 -0.1645849 0.05515932 -0.952423 -0.3022397 0.03926432 -0.9174076 -0.3916246 -0.07066497 -0.9041591 -0.4259317 0.03284187 -0.8172294 -0.5740935 0.05052522 -0.666775 -0.3822517 0.6397614 -0.6331998 -0.3706531 0.6794662 -0.5126267 -0.7062809 0.4882428 -0.5036254 -0.6768819 0.5368354 -0.590258 -0.5063434 0.6286587 -0.1816493 -0.9653532 0.1873412 -0.2777487 -0.9146416 0.2937456 -0.2817122 -0.9232669 0.2611829 -0.381889 -0.8316215 0.4031954 -0.02572832 -0.9966691 0.0773866 -0.07063992 -0.9954319 0.06422858 -0.07564277 -0.9949417 0.06609931 -0.308283 -0.9217732 0.2351505 -0.1015697 -0.9943394 -0.03118828 -0.1070802 -0.9942329 0.005903662 -0.3926582 -0.9196781 -0.003414342 -0.09922813 -0.9944681 0.03445237 -0.3776437 -0.9207149 0.09833246 -0.08987989 -0.9949798 0.0440096 -0.3460672 -0.9208155 0.1798227 -0.0850345 -0.9949711 0.05293004 -0.07930764 -0.9950905 0.05920445 -0.1050916 -0.9242 -0.367165 -0.02801254 -0.9951124 -0.09469204 -0.03398721 -0.9951002 -0.09284648 -0.1007531 -0.92645 -0.3626833 -0.02601168 -0.9954708 -0.09144014 -0.1189799 -0.9267957 -0.3562212 -0.03203108 -0.9955459 -0.08866958 -0.3692756 -0.9286628 -0.03494319 -0.08630139 -0.9959046 -0.02694761 -0.3615905 -0.9279353 -0.09048973 -0.08236947 -0.9958469 -0.03878365 -0.3381861 -0.9289087 -0.1508605 -0.07447397 -0.9958479 -0.05235034 -0.3104442 -0.9285286 -0.203615 -0.06737335 -0.9957668 -0.0625241 -0.2744828 -0.9285653 -0.2498514 -0.05863719 -0.9957116 -0.07155489 -0.2397177 -0.9280363 -0.2851037 -0.05091322 -0.9956551 -0.07796618 -0.2043313 -0.9279314 -0.3117564 -0.04120567 -0.995709 -0.08285881 -0.1706997 -0.9271624 -0.3335137 -0.1473446 -0.9246791 -0.3510813 -0.2197051 -0.9711131 0.09310724 -0.1059074 -0.9940708 0.0246346 -0.3707777 -0.9277537 0.04239024 -0.09354351 -0.9956152 1.397196e-05 -0.0908199 -0.9958027 -0.01135015 -0.6130951 -0.7217632 0.3212044 -0.537724 -0.8318446 0.137432 -0.3831654 -0.9228182 0.03988607 -0.7315272 -0.3853291 0.562485 -0.8165711 -0.3877317 0.4276398 -0.8934301 -0.387154 0.2278036 -0.8848825 -0.3796358 -0.2699253 -0.7903594 -0.3788133 -0.4814899 -0.7200157 -0.371851 -0.5859217 -0.6215492 -0.376 -0.6872412 -0.5326806 -0.3646772 -0.7637158 -0.435654 -0.3827764 -0.8146704 -0.3751832 -0.3833028 -0.8439885 -0.3186148 -0.3861417 -0.8656669 -0.2540109 -0.3854752 -0.8870667 -0.2569052 -0.3884409 -0.884937 -0.3450504 -0.3863622 -0.8553739 -0.4206527 -0.3923452 -0.8179955 -0.5234402 -0.3921486 -0.7564588 -0.6096789 -0.7042821 -0.363701 -0.545969 -0.7062893 -0.4506364 -0.4788721 -0.7053072 -0.5227076 -0.3990992 -0.7059869 -0.5850661 -0.333189 -0.7074658 -0.6232794 -0.2867307 -0.7082178 -0.6451457 -0.2417481 -0.707693 -0.6638739 -0.1949357 -0.708165 -0.6786033 -0.1884368 -0.7115268 -0.6769203 -0.2206379 -0.719009 -0.6590486 -0.3838099 -0.7136225 -0.5860315 -0.3217193 -0.7130619 -0.6229281 -0.2673425 -0.7125172 -0.6487274 -0.6623576 -0.3950972 -0.6365379 -0.5174731 -0.7146655 -0.4706111 -0.4472369 -0.7179076 -0.5334678 -0.8520849 -0.3908756 -0.3480913 -0.7672146 -0.3931311 -0.5067837 -0.5831796 -0.7152317 -0.385156 -0.6385806 -0.7154277 -0.2835103 -0.6739725 -0.7183438 -0.1724621 -0.6887088 -0.7240863 -0.03713646 -0.666517 -0.7395343 0.09404325 -0.08693629 -0.9948167 -0.05274315 -0.3759065 -0.919152 -0.117703 -0.7127966 -0.7012929 -0.01045796 -0.6888701 -0.7023676 0.17927 -0.6302365 -0.7038878 0.3276338 -0.5632422 -0.7055511 0.4300651 -0.1309479 -0.923842 -0.3596786 -0.04038735 -0.9951477 -0.0897214 -0.1549767 -0.924218 -0.3490032 -0.04827304 -0.9950143 -0.08727165 -0.1807796 -0.923877 -0.337298 -0.06068247 -0.9948049 -0.08173669 -0.2160672 -0.9230381 -0.3183012 -0.0686503 -0.994918 -0.07365624 -0.2609384 -0.9221333 -0.2856245 -0.07701571 -0.9949697 -0.06406101 -0.2968523 -0.9228231 -0.2455122 -0.3334358 -0.9214865 -0.1992066 -0.6802411 -0.7013294 -0.213094 -0.9265919 -0.3754153 -0.02215605 0.9926538 0.08817416 0.08284805 0.9194609 0.3931784 -0.001563496 0.8817493 0.4717166 0.001263944 0.7042231 0.7098832 -0.01164652 0.9981886 0.06016256 0 0.9885422 0.08614732 -0.1239474 0.9773238 0.2117501 0.000159056 0.9522827 0.2764028 -0.1294574 0.7023617 0.7115693 -0.01889561 0.7815406 0.6235197 -0.02043502 0.869899 0.4932018 -0.005254574 0.9306033 0.3660294 -2.129549e-06 0.5738641 0.81895 -0.0009416927 0.3620639 0.9321439 -0.004181428 0.08824574 0.9960987 0 0.02003257 0.9997981 0.001569117 0.1307022 0.9913855 -0.008463549 0.290183 0.956971 -0.0005758273 0.4248625 0.9052575 -0.0008202783 0.1342397 -0.929135 0.3445111 0.03200315 -0.939504 0.3410397 0.1290077 -0.9305961 0.3425607 0.3579368 -0.8726335 0.3322528 0.4758577 -0.809836 0.3431109 0.7899603 -0.53934 0.2916763 0.714834 -0.6383207 0.2855856 0.9544748 -0.2259784 0.1947092 0.9828971 -0.1138422 0.1447522 0.9463136 0.3229105 -0.01481348 -1.773674e-05 -0.9409529 0.3385374 -1.661593e-06 -0.9409538 0.338535 -8.624063e-06 -0.9409566 0.3385273 1.849099e-05 -0.9409579 0.3385237 -0.7233154 0.3298251 -0.606655 -0.8162326 0.3317818 -0.4729537 -0.5825464 0.3312668 -0.7422277 -0.4699491 0.3270314 -0.819877 -0.136743 0.8396831 -0.5255793 -0.08034728 0.946626 -0.3121595 -0.0904087 0.947727 -0.3060062 -0.6826389 0.07791612 0.7265901 -0.6665038 0.2202137 0.712235 -0.6555846 0.3242887 0.6819426 -0.6219956 0.3839363 0.6824327 -0.5741862 0.5225197 0.6303042 -0.5786708 0.5507371 0.601522 -0.09464678 0.9952832 0.0212924 -0.3219035 0.9466547 0.01493505 -0.3114857 0.9492241 -0.04416215 -0.21423 0.9740662 0.07280425 -0.5561287 0.8285763 0.06466972 -0.6457821 0.7599364 0.07390658 -0.7007815 0.7132079 0.01548129 -0.7815104 0.6200735 0.06892283 -0.8689446 0.4866331 0.09013053 -0.8388181 0.5441552 0.0167116 -0.9541199 0.2719151 0.1253689 -0.992654 0.08338041 0.08766837 -0.9968697 0.004304571 0.07894522 -0.2088922 0.9483604 -0.2386978 -0.06728868 0.9961268 -0.05660108 -0.2413298 0.9489831 -0.2029555 -0.07486433 0.9961907 -0.04471583 -0.2725733 0.9491978 -0.1572494 -0.08220275 0.9961413 -0.0307448 -0.2957909 0.949534 -0.1043691 -0.08668088 0.9960277 -0.02037577 -0.08717177 0.9961524 -0.009025273 -0.05923036 0.9961358 -0.0648473 -0.1789044 0.9480697 -0.2629772 -0.05052761 0.9960498 -0.07301911 -0.1466767 0.9479622 -0.2825838 -0.04239593 0.996059 -0.07790426 -0.1159933 0.9481031 -0.2960507 -0.03424444 0.9959386 -0.08326816 -0.02938342 0.9958864 -0.08571398 -0.02570234 0.9958642 -0.08714277 -0.02252234 0.9959091 -0.08750903 -0.02209013 0.9957198 -0.08974501 -0.03706866 0.9954153 -0.08817207 -0.03261753 0.9953247 -0.09091084 -0.09611649 0.9451374 -0.312213 -0.026678 0.9956329 -0.08946189 -0.02416711 0.9954535 -0.09213227 -0.1272506 0.9450213 -0.3012343 -0.1622304 0.9449723 -0.2840928 -0.0448091 0.9953688 -0.08504792 -0.05320237 0.995531 -0.07802282 -0.2045254 0.9441069 -0.258518 -0.06159606 0.9953916 -0.07349471 -0.2591251 0.9429667 -0.2089687 -0.07828917 0.9949213 -0.06326531 -0.3156283 0.9414511 -0.1185267 -0.09864264 0.9946148 -0.0317967 -0.3362401 0.9417522 -0.006741182 -0.1003625 0.9949329 0.005991927 -0.3206356 0.9438084 0.08011565 -0.09143029 0.9951694 0.035754 -0.298068 0.9445214 0.1379669 -0.272191 0.9446328 0.1832511 -0.08140617 0.9952395 0.05358503 -0.2448483 0.9450966 0.2164297 -0.07178307 0.9955189 0.06155768 -0.2711758 0.9188087 0.2868001 -0.1759542 0.9715048 0.1588036 -0.2299514 0.9460614 0.2282326 -0.03782509 0.9966962 0.07187459 -0.06788293 0.9954168 0.06735912 -0.4627338 0.712884 -0.5269477 -0.3562542 0.8417982 -0.4055351 -0.5365791 0.713325 -0.4508329 -0.4128803 0.8421932 -0.3467572 -0.6062187 0.7136462 -0.35101 -0.4662634 0.8424779 -0.2698693 -0.6609752 0.7138062 -0.2315005 -0.5082535 0.8426141 -0.1779882 -0.692893 0.7137223 -0.1024684 -0.5328201 0.8425476 -0.07884397 -0.5411586 0.8407555 0.01666126 -0.4333621 0.9004985 0.03605208 -0.3033973 0.841392 -0.4472244 -0.367436 0.741517 -0.5613762 -0.2499208 0.8415112 -0.4789556 -0.3290618 0.716977 -0.6145423 -0.1959798 0.8412282 -0.5039118 -0.2543617 0.7122343 -0.6542342 -0.1533468 0.8407495 -0.5192543 -0.198932 0.7117091 -0.6737182 -0.17719 0.7105145 -0.6810087 -0.1601585 0.8384659 -0.5208878 -0.2072594 0.7091803 -0.6738745 -0.2124578 0.8380013 -0.5026087 -0.2748479 0.7086648 -0.6498098 -0.2706927 0.8379491 -0.4738848 -0.3501464 0.7086103 -0.612592 -0.3399243 0.836877 -0.4290553 -0.439462 0.7073553 -0.5536439 -0.428408 0.8357672 -0.3434527 -0.5531157 0.7062123 -0.4419585 -0.5072483 0.8382232 -0.2002023 -0.4771627 0.7035459 0.5266297 -0.3639094 0.8453957 0.3909937 -0.4856306 0.7111048 0.5084219 -0.3774596 0.8369941 0.3961883 -0.5286297 0.7088426 0.4670041 -0.4087347 0.8381545 0.361155 -0.5855702 0.7080418 0.3946953 -0.4531071 0.8374235 0.30564 -0.6423383 0.7077701 0.2940458 -0.4971653 0.8371834 0.2279268 -0.6860678 0.7073108 0.1703598 -0.531306 0.8367669 0.13242 -0.7057958 0.7075082 0.03583835 -0.5426238 0.839973 -0.002177646 -0.6940546 0.7118774 -0.1073257 -0.6520622 0.7060844 -0.2761516 -0.3712713 0.3305939 -0.8676781 -0.2752158 0.3323212 -0.9021191 -0.741699 0.3321863 -0.5826963 -0.8703604 0.3258028 -0.3692225 -0.9344355 0.3263612 -0.1425438 -0.94381 0.3272399 0.04622508 -0.91729 0.3268394 0.2274975 -0.8593067 0.3208264 0.3983244 -0.7872556 0.3299609 0.520917 -0.705509 0.3299521 0.627207 -0.6261561 0.5495777 0.5530759 -0.6932819 0.5488456 0.4670425 -0.7603471 0.548617 0.3476949 -0.8118122 0.5482001 0.2010907 -0.8351915 0.5483606 0.04190243 -0.8270142 0.5476797 -0.1268643 -0.7708521 0.5471029 -0.3262906 -0.6544357 0.5471829 -0.5218283 -0.5203787 0.5481757 -0.6547591 -0.414783 0.5493843 -0.7253495 -0.3256229 0.5494183 -0.7694864 -0.245597 0.5498975 -0.7983075 -0.8903726 0.3308075 -0.3127349 -0.9315269 0.3369718 -0.1367754 -0.9338152 0.3576637 -0.008112578 -0.6008558 0.3306355 -0.7277723 -0.4569452 0.3275141 -0.827004 -0.5331062 0.5590033 -0.6350693 -0.6374499 0.553674 -0.5358197 -0.7204083 0.553971 -0.4172866 -0.785635 0.5541162 -0.275196 -0.8235401 0.5540456 -0.1217177 -0.4046211 0.5537361 -0.7277762 -0.3019183 0.552673 -0.7767869 -0.3433701 0.3311014 -0.878902 -0.236072 0.5521887 -0.7995984 -0.2666853 0.3295127 -0.9057043 -0.2101195 0.5510935 -0.8075554 -0.2337496 0.3295673 -0.9147385 0.1029973 0.00414346 0.994673 0.1027939 -0.06294811 0.9927089 0.141065 0.09785406 0.9851524 0.1389699 -0.09247944 0.985969 0.1832279 0.1051142 0.9774347 0.2008854 -0.09536784 0.9749616 0.2353159 0.09623212 0.9671431 0.2862058 -0.09171381 0.9537687 0.3323864 0.1008189 0.9377392 0.3629853 -0.0969078 0.9267419 0.406075 0.09609781 0.908773 0.4581 -0.09308346 0.8840135 0.4860033 0.09838195 0.8684018 0.505509 -0.09609329 0.8574536 0.5477908 0.09787873 0.83087 0.5484368 -0.09452516 0.8308321 0.5830655 0.09883457 0.806391 0.5819042 -0.09384872 0.8078242 0.5644319 -0.09414036 0.820094 0.563053 0.098082 0.8205798 0.4989758 -0.0970803 0.8611612 0.4991276 0.09586316 0.8612095 0.4598983 -0.06815202 0.8853524 0.4681389 0.06133414 0.8815238 0.1907089 0 -0.9816466 0.194961 0.0008561788 -0.9808106 0.1844368 -0.005255933 -0.9828303 0.1738884 0.00029121 -0.9847653 0.1021501 -0.03135967 -0.9942746 0.1887259 0 -0.9820298 0.1866405 0.00816397 -0.9823944 0.1920454 -0.004006136 -0.9813779 0.1325197 0.02278824 -0.9909184 0.1848335 -0.004103607 -0.9827613 0.05419661 0.01652428 -0.9983935 0.0297101 -0.02699886 -0.9991939 -0.219911 0.003490786 -0.9755137 -0.2928683 -2.241784e-05 -0.9561528 -0.2501159 0.001962914 -0.9682139 -0.1090803 0.00014919 -0.9940329 -0.1181151 -0.001399761 -0.9929989 0.3126878 0.8999775 0.3037546 0.6765457 0.681762 0.2783639 0.5879468 0.7564001 0.2866661 0.9657005 0.2097017 0.1531264 0.9348896 0.3062405 0.1794384 0.1339927 0.9430165 0.3045749 0.1618441 0.9358966 0.3128961 0.03033735 0.9498857 0.3111218 0.9933519 -0.09484537 0.06524063 0.9772969 -0.2105823 0.02336172 0.8914219 -0.4529608 -0.01390786 0.9888086 -0.08467879 -0.1228297 0.9036012 0.07413653 -0.4219106 0.9040301 -0.06983656 -0.4217255 0.7099665 0.05129024 -0.7023652 0.7077875 -0.05055292 -0.7046142 0.4380841 0.02870536 -0.8984755 0.4417738 -0.02873332 -0.8966662 0.1283448 0.007375433 -0.9917022 0.1258007 -0.00323823 -0.9920502 0.1296916 0.009713003 -0.9915068 0.5230158 0.07644738 -0.8488876 0.906915 0.1752945 -0.3831149 0.9284003 0.3564041 -0.105114 0.1066283 -0.01074309 -0.9942409 0.4912083 -0.0662997 -0.8685153 0.9209337 -0.1498781 -0.3597468 0.9616337 -0.2636291 -0.07589657 0.9796199 -0.1600613 -0.1213478 0 -1 0 0 -1 0 0 -1 0 0 -1 0 0 -1 0 0.6691611 -1.723136e-05 -0.7431173 0.6690822 4.049263e-05 -0.7431884 0.6691569 -1.984043e-05 -0.7431212 0.6691394 -1.236073e-05 -0.7431369 0.6691285 6.394743e-07 -0.7431467 0.6691111 -1.352144e-05 -0.7431624 0.6690821 -4.183091e-05 -0.7431885 0.6691741 3.508653e-05 -0.7431056 0.6691372 1.124796e-05 -0.7431389 0.6691715 4.423935e-05 -0.743108 0.6691115 1.160662e-05 -0.743162 0.6691258 2.531164e-06 -0.7431491 0.669172 4.860734e-06 -0.7431076 0.6691849 3.206164e-20 -0.7430959 0.669172 -4.860734e-06 -0.7431076 0.6691968 3.474359e-05 -0.7430852 0.6691607 2.030795e-07 -0.7431178 0.6691982 -3.46678e-05 -0.7430839 0 0 -1 0 0 -1 0 0 -1 0 0 -1 0 0 -1 0 0 -1 -1.821731e-06 0.9510567 0.3090163 -1.060156e-06 0.9510565 0.3090171 -8.05486e-06 0.9510566 0.3090167 -2.953396e-06 0.9510561 0.3090183 3.439165e-06 0.9510562 0.3090181 -1.021045e-05 1 -0.0002191551 -9.536488e-06 1 -0.0002046892 -1.972628e-07 1 -4.234008e-06 0 1 0 0 1 0 0.01579403 0 -0.9998753 0.05900963 -0.0005184159 -0.9982573 0.02582288 -0.002045793 -0.9996644 0.1117755 -0.002128625 -0.9937312 0.1261097 0 -0.9920163 0.0005613347 8.617269e-05 -0.9999998 0.0002962146 4.248449e-06 -1 0.0003280722 2.401089e-05 -0.9999999 7.424377e-05 -1.995236e-05 -1 4.690371e-05 -1.449272e-05 -1 0 0 -1 -0.8186486 0.3918965 -0.4197994 -0.7973596 0.3854915 -0.4643425 -0.9481472 0.3176231 0.0115103 -0.9751054 0.2209737 -0.01844302 -0.9907984 0.1347856 -0.01229991 -0.9913627 0.1311488 0 0 0 -1 0 0 -1 0 0 -1 0 0 -1 0 0 -1 0 0 -1 0 0 -1 0 0 -1 0 0 -1 0.9981747 -0.06039198 0 0.01839321 0.9954299 0.09370704 0 1 0 0 1 0 0.05740925 0.995295 0.078052 0.05373374 0.9954647 0.0785027 0.04322455 0.9956997 0.08193793 0.05060546 0.9954732 0.08044994 0.05648905 0.9952017 0.07989146 0.04698589 0.9950391 0.08769005 0.05211679 0.9948817 0.08656957 0.02153017 0.9951127 0.09636959 0.02972974 0.9950605 0.09471445 0.03757616 0.9949763 0.09279101 0 -1 0 0 -1 0 0.08697023 -0.9962089 -0.001982175 0.01480126 -0.9990668 0.04057557 0.05079978 -0.9959067 0.07476125 0.05407695 -0.995681 0.07546536 0.04572338 -0.9958553 0.07862357 0.01670303 -0.9957434 0.09064268 0.05379651 -0.9955092 0.07789312 0.04761481 -0.9955123 0.08178084 0.04196142 -0.9953787 0.0863743 0.03716966 -0.9954503 0.08773265 0.02780766 -0.9954856 0.09074766 0.02049147 -0.9955346 0.09214659 0.9179029 -0.3967973 -0.002478753 0.1439906 -0.9895781 -0.001397373 0.3632352 -0.931679 -0.005873946 0.3535741 -0.9354064 0.0003643415 0.7057265 -0.7084215 -0.009439614 0.5745132 -0.8184947 0.001001055 0.7589229 -0.6511719 -0.003364448 0.8891386 -0.457637 -0.0009499859 0.9725539 -0.232675 0.001082223 0.1018877 -0.2174908 0.97073 0.09654617 -0.3699439 0.924024 0.1374332 -0.3305487 0.9337289 0.03122244 -0.9891643 0.1434546 0.1648202 -0.9389645 0.3019602 0.1584904 -0.9472445 0.2785833 0.2721579 -0.8217117 0.5007195 0.1575862 -0.9453998 0.2852818 0.1754923 -0.9466386 0.2703292 0.18904 -0.9461506 0.2627982 0.05180825 -0.9449764 0.32301 0.04694542 -0.9133886 0.4043728 0.03102135 -0.9651664 0.2597914 0.1285947 -0.9452201 0.3000372 0.0986895 -0.9453495 0.3107647 0.07133115 -0.9455455 0.3175777 0.4118669 -0.7101209 0.5710464 0.3172809 -0.840161 0.4398435 0.4113501 -0.711068 0.5702398 0.2968287 -0.84065 0.4529903 0.385076 -0.7115983 0.5876601 0.2710694 -0.8402578 0.4695618 0.3525541 -0.711109 0.6083006 0.3521663 -0.6576034 0.6659855 0.1750873 -0.9472067 0.2685962 0.07418872 -0.6786756 0.7306815 0.06052628 -0.8310185 0.552942 0.1014435 -0.7098326 0.6970272 0.0789719 -0.8379897 0.5399413 0.1547762 -0.7093457 0.6876576 0.1196039 -0.8386057 0.5314465 0.2128441 -0.7090499 0.672269 0.164532 -0.838353 0.5197052 0.2778483 -0.7089092 0.6482654 0.214826 -0.8382225 0.5012313 0.3393639 -0.7090819 0.6180898 0.2623522 -0.8383793 0.4777986 0.3856827 -0.7095745 0.5897057 0.2980027 -0.8388143 0.4556148 0.3180235 -0.8393181 0.4409152 0.1915273 -0.9454275 0.2635983 0.2109537 -0.3238178 0.9223018 0.2820959 -0.3304679 0.9006736 0.3778802 -0.3188635 0.8692138 0.4532733 -0.3294261 0.8282643 0.5181795 -0.3283847 0.7897173 0.5122605 -0.3411443 0.7881686 0.4703366 -0.3331675 0.8171799 0.4405653 -0.2318144 0.867274 0.4569822 -0.5520979 0.6973917 0.4196613 -0.5513522 0.7210376 0.4093006 -0.4570336 0.7896793 0.08864436 -0.5030541 0.8596969 0.1212463 -0.5501803 0.8261967 0.1833979 -0.5500458 0.8147483 0.2521433 -0.5497651 0.7963555 0.3291002 -0.5496504 0.7678395 0.4019963 -0.5498077 0.7321956 0.4570241 -0.5502406 0.6988307 0.5507205 -0.3275669 0.7677283 0.4882559 -0.5507395 0.6769728 0.5541899 -0.3389174 0.7602688 0.4879827 -0.5516025 0.676467 0.06188701 0.8418436 0.5361617 0.07648109 0.6973793 0.7126098 0.1090957 0.7073304 0.6984138 0.09074576 0.5220307 0.8480856 0.09627342 0.378867 0.9204299 0.1391484 0.3824493 0.9134387 0.1035626 0.07441109 0.9918356 0.3596259 0.6229754 0.6946732 0.3221957 0.7307143 0.6018692 0.3438401 0.7105944 0.6138645 0.03072435 0.9689456 0.2453577 0.04390222 0.9198495 0.3898071 0.06450868 0.9236934 0.3776627 0.08408522 0.9238787 0.3733335 0.1157552 0.923494 0.3657316 0.1516998 0.9236198 0.3520136 0.1841528 0.9236424 0.3361138 0.208641 0.9252652 0.3167859 0.2216175 0.9250876 0.3083806 0.2225647 0.9242011 0.3103504 0.2064463 0.9268366 0.3136142 0.2661891 0.8224929 0.5026418 0.1996727 0.9080304 0.3682549 0.1792611 0.9272378 0.3287789 0.1307061 0.9584635 0.2535029 0.0577256 0.9899372 0.1291979 0.4561799 0.2158873 0.8633033 0.4353466 0.3711307 0.8202045 0.4526812 0.3900662 0.801828 0.3994422 0.5009433 0.7677901 0.102963 0.2271182 0.968409 0.2036725 0.384474 0.9003873 0.2758834 0.3733451 0.8857211 0.3663413 0.3852997 0.8469582 0.44304 0.3822385 0.8109311 0.5060573 0.3839513 0.772326 0.5397379 0.3833017 0.7495084 0.5408694 0.3897511 0.7453552 0.4936285 0.4057805 0.7692029 0.1551212 0.7077713 0.6892004 0.2133978 0.7072271 0.6740113 0.2786239 0.7069684 0.6500496 0.3402346 0.7072968 0.6196544 0.386431 0.7082032 0.5908632 0.4123793 0.7092437 0.5717664 0.4113657 0.7110344 0.5702704 0.3848193 0.7120619 0.5872665 0.02677939 0.001153356 -0.9996407 0.006528473 0 -0.9999787 0.02577878 0.002200589 -0.9996652 0.05930416 0.001500221 -0.9982388 0.1118028 0.002124093 -0.9937281 0.1233541 0 -0.9923627 0 0 -1 0 0 -1 0 0 -1 0 0 -1 0 0 -1 0 0 -1 0 0 -1 0 0 -1 -1 0 0 -1 0 0 -1 0 0 -1 0 0 -1 0 0 -1 0 0 -1 0 0 -1 0 0 -0.9510769 1.632565e-05 0.3089542 -0.9510748 3.258191e-05 0.3089608 -0.9510712 2.635979e-05 0.3089718 -0.9510708 8.73435e-06 0.308973 -0.9510645 -6.427193e-05 0.3089926 -0.9510692 -4.375195e-05 0.308978 -0.9510712 -1.981486e-05 0.3089718 -0.9510637 -1.816265e-05 0.3089948 -0.9510436 -1.764717e-05 0.3090569 -0.9510462 -3.426362e-05 0.3090487 -0.9510513 -2.813098e-05 0.3090329 -0.9510517 -9.321314e-06 0.3090317 -0.9510566 6.615433e-05 0.3090166 -0.9510518 4.647659e-05 0.3090317 -0.9510489 1.981335e-05 0.3090405 -0.9510564 1.816322e-05 0.3090175 -0.2780118 7.583065e-17 -0.9605777 -0.3090152 -7.759851e-17 -0.9510571 -0.2849909 0.356112 -0.8899238 -0.2006372 0.7145469 -0.6701996 -0.2849909 -0.356112 -0.8899238 -0.2006331 -0.7145441 -0.6702038 -0.2149064 -0.7185604 -0.6614274 -6.192781e-07 -1 -1.984836e-05 -0.03959622 -0.9917582 -0.121852 0.229079 -0.7095586 0.6663704 0.1781035 -0.8172156 0.5481221 -0.2149028 0.7185616 -0.6614273 -0.03959093 0.9917571 -0.1218625 -8.13852e-06 1 -2.041917e-05 0.1781048 0.817217 0.5481196 0.2403406 0.7208384 0.6500987 0.2941189 0.4057744 0.8653561 0.3351633 -0.01999214 0.9419479 0.347412 -0.03872294 0.9369127 0.3476212 -0.3786056 0.8577979</float_array>
          <technique_common>
            <accessor count="774" source="#normals-array-array" stride="3">
              <param type="float" name="X"/>
              <param type="float" name="Y"/>
              <param type="float" name="Z"/>
            </accessor>
          </technique_common>
        </source>
        <vertices id="verts-array-vertices">
          <input semantic="POSITION" source="#verts-array"/>
        </vertices>
        <triangles count="1198" material="material0">
          <input offset="0" semantic="VERTEX" source="#verts-array-vertices"/>
          <input offset="1" semantic="NORMAL" source="#normals-array"/>
          <p>0 0 1 1 2 2 3 3 2 2 1 1 2 2 3 3 4 4 5 5 4 4 3 3 4 4 5 5 6 6 7 7 8 8 9 9 10 10 11 11 12 12 13 13 12 12 11 11 12 12 13 13 14 14 10 10 12 12 15 15 16 16 15 15 12 12 15 15 16 16 17 17 17 17 16 16 18 18 19 19 18 18 16 16 18 18 19 19 20 20 20 20 19 19 21 21 22 22 21 21 19 19 21 21 22 22 23 23 9 9 8 8 24 24 8 8 25 25 24 24 26 26 24 24 25 25 24 24 26 26 19 19 27 27 19 19 26 26 19 19 27 27 22 22 28 28 29 29 9 9 30 30 9 9 29 29 9 9 30 30 7 7 13 13 31 31 14 14 32 32 14 14 31 31 14 14 32 32 33 33 34 34 33 33 32 32 33 33 34 34 28 28 35 35 28 28 34 34 28 28 35 35 29 29 36 36 37 37 38 38 39 39 40 40 41 41 41 41 40 40 42 42 43 43 44 44 45 45 43 43 45 45 46 46 47 47 46 46 45 45 46 46 47 47 48 48 49 49 48 48 47 47 48 48 49 49 50 50 51 51 50 50 49 49 50 50 51 51 52 52 53 53 52 52 51 51 52 52 53 53 54 54 55 55 54 54 53 53 54 54 55 55 56 56 57 57 58 58 59 59 57 57 59 59 60 60 61 61 60 60 59 59 60 60 61 61 62 62 44 44 43 43 58 58 63 63 58 58 43 43 58 58 63 63 59 59 39 39 41 41 64 64 65 65 64 64 41 41 64 64 65 65 66 66 66 66 67 67 64 64 68 68 64 64 67 67 64 64 68 68 69 69 70 70 69 69 68 68 69 69 70 70 71 71 72 72 71 71 70 70 71 71 72 72 73 73 74 74 73 73 72 72 73 73 74 74 61 61 75 75 61 61 74 74 61 61 75 75 62 62 55 55 42 42 56 56 40 40 56 56 42 42 56 56 40 40 76 76 77 77 76 76 40 40 76 76 77 77 78 78 79 79 78 78 77 77 78 78 79 79 80 80 81 81 80 80 79 79 80 80 81 81 38 38 82 82 38 38 81 81 38 38 82 82 36 36 37 37 36 36 83 83 84 84 83 83 36 36 83 83 84 84 85 85 84 84 86 86 85 85 87 87 85 85 86 86 85 85 87 87 88 88 87 87 89 89 88 88 90 90 88 88 89 89 88 88 90 90 91 91 92 92 91 91 90 90 91 91 92 92 93 93 94 94 93 93 92 92 93 93 94 94 95 95 96 96 95 95 94 94 95 95 96 96 97 97 98 98 97 97 96 96 97 97 98 98 99 99 98 98 100 100 99 99 101 101 99 99 100 100 99 99 101 101 102 102 103 103 102 102 101 101 102 102 103 103 104 104 104 104 103 103 105 105 106 106 105 105 103 103 105 105 106 106 107 107 106 106 108 108 107 107 109 109 107 107 108 108 107 107 109 109 110 110 111 111 110 110 109 109 110 110 111 111 112 112 113 113 112 112 111 111 112 112 113 113 114 114 115 115 114 114 113 113 114 114 115 115 116 116 117 117 116 116 115 115 116 116 117 117 118 118 119 119 117 117 115 115 61 61 120 120 73 73 121 121 73 73 120 120 122 122 123 123 124 124 125 125 124 124 123 123 124 124 125 125 126 126 127 127 128 128 119 119 129 129 130 130 131 131 132 132 133 133 134 134 135 135 134 134 133 133 136 136 132 132 137 137 134 134 137 137 132 132 137 137 134 134 138 138 139 139 138 138 134 134 140 140 141 141 142 142 143 143 142 142 141 141 142 142 143 143 144 144 145 145 144 144 143 143 144 144 145 145 146 146 147 147 146 146 145 145 146 146 147 147 139 139 148 148 139 139 147 147 139 139 148 148 138 138 149 149 150 150 151 151 150 150 152 152 153 153 154 154 153 153 152 152 153 153 154 154 155 155 156 156 157 157 158 158 159 159 158 158 157 157 158 158 159 159 160 160 161 161 160 160 159 159 160 160 161 161 162 162 163 163 162 162 161 161 162 162 163 163 164 164 165 165 164 164 163 163 164 164 165 165 166 166 167 167 166 166 165 165 166 166 167 167 168 168 169 169 168 168 167 167 168 168 169 169 170 170 155 155 170 170 169 169 170 170 155 155 171 171 154 154 171 171 155 155 172 172 173 173 174 174 175 175 174 174 173 173 174 174 175 175 156 156 176 176 156 156 175 175 156 156 176 176 157 157 177 177 178 178 174 174 179 179 174 174 178 178 174 174 179 179 172 172 119 119 115 115 127 127 113 113 127 127 115 115 127 127 113 113 180 180 111 111 180 180 113 113 180 180 111 111 181 181 111 111 109 109 181 181 108 108 181 181 109 109 181 181 108 108 182 182 103 103 101 101 183 183 100 100 98 98 184 184 96 96 184 184 98 98 184 184 96 96 185 185 94 94 185 185 96 96 185 185 94 94 186 186 92 92 186 186 94 94 186 186 92 92 187 187 90 90 187 187 92 92 187 187 90 90 188 188 89 89 188 188 90 90 188 188 89 89 189 189 87 87 189 189 89 89 189 189 87 87 190 190 86 86 190 190 87 87 190 190 86 86 191 191 86 86 84 84 191 191 36 36 191 191 84 84 191 191 36 36 192 192 82 82 192 192 36 36 192 192 82 82 81 81 81 81 79 79 193 193 77 77 193 193 79 79 193 193 77 77 194 194 40 40 194 194 77 77 194 194 40 40 195 195 39 39 195 195 40 40 195 195 39 39 64 64 101 101 100 100 183 183 184 184 183 183 100 100 183 183 184 184 196 196 185 185 196 196 184 184 196 196 185 185 197 197 186 186 197 197 185 185 197 197 186 186 198 198 187 187 198 198 186 186 198 198 187 187 199 199 188 188 199 199 187 187 199 199 188 188 200 200 189 189 200 200 188 188 200 200 189 189 201 201 190 190 201 201 189 189 201 201 190 190 202 202 191 191 202 202 190 190 202 202 191 191 203 203 192 192 203 203 191 191 203 203 192 192 204 204 81 81 193 193 192 192 205 205 192 192 193 193 192 192 205 205 204 204 195 195 206 206 194 194 207 207 194 194 206 206 194 194 207 207 193 193 208 208 193 193 207 207 193 193 208 208 205 205 209 209 210 210 211 211 121 121 122 122 73 73 124 124 73 73 122 122 73 73 124 124 71 71 212 212 71 71 124 124 71 71 212 212 69 69 213 213 69 69 212 212 69 69 213 213 64 64 209 209 64 64 213 213 64 64 209 209 195 195 211 211 195 195 209 209 195 195 211 211 206 206 210 210 209 209 214 214 213 213 214 214 209 209 214 214 213 213 215 215 212 212 215 215 213 213 215 215 212 212 216 216 124 124 216 216 212 212 216 216 124 124 217 217 126 126 217 217 124 124 217 217 126 126 218 218 219 219 140 140 220 220 142 142 220 220 140 140 220 220 142 142 221 221 144 144 221 221 142 142 221 221 144 144 222 222 146 146 222 222 144 144 222 222 146 146 223 223 139 139 223 223 146 146 223 223 139 139 224 224 134 134 224 224 139 139 224 224 134 134 129 129 135 135 129 129 134 134 129 129 135 135 130 130 149 149 151 151 225 225 226 226 225 225 151 151 225 225 226 226 227 227 228 228 227 227 226 226 227 227 228 228 229 229 230 230 229 229 228 228 229 229 230 230 231 231 232 232 231 231 230 230 231 231 232 232 233 233 234 234 233 233 232 232 233 233 234 234 235 235 219 219 235 235 234 234 235 235 219 219 236 236 220 220 236 236 219 219 236 236 220 220 237 237 221 221 237 237 220 220 237 237 221 221 238 238 222 222 238 238 221 221 238 238 222 222 182 182 223 223 182 182 222 222 182 182 223 223 181 181 224 224 181 181 223 223 181 181 224 224 180 180 129 129 180 180 224 224 180 180 129 129 127 127 131 131 127 127 129 129 127 127 131 131 128 128 204 204 149 149 203 203 225 225 203 203 149 149 203 203 225 225 202 202 227 227 202 202 225 225 202 202 227 227 201 201 229 229 201 201 227 227 201 201 229 229 200 200 231 231 200 200 229 229 200 200 231 231 199 199 233 233 199 199 231 231 199 199 233 233 198 198 235 235 198 198 233 233 198 198 235 235 197 197 236 236 197 197 235 235 197 197 236 236 196 196 237 237 196 196 236 236 196 196 237 237 183 183 238 238 183 183 237 237 183 183 238 238 103 103 182 182 103 103 238 238 103 103 182 182 106 106 108 108 106 106 182 182 150 150 149 149 152 152 204 204 152 152 149 149 152 152 204 204 154 154 205 205 154 154 204 204 154 154 205 205 171 171 208 208 171 171 205 205 171 171 208 208 170 170 207 207 170 170 208 208 170 170 207 207 168 168 206 206 168 168 207 207 168 168 206 206 166 166 211 211 166 166 206 206 166 166 211 211 164 164 210 210 164 164 211 211 164 164 210 210 162 162 214 214 162 162 210 210 162 162 214 214 160 160 215 215 160 160 214 214 160 160 215 215 158 158 216 216 158 158 215 215 158 158 216 216 156 156 217 217 156 156 216 216 156 156 217 217 174 174 218 218 174 174 217 217 174 174 218 218 177 177 239 239 240 240 241 241 242 242 241 241 240 240 243 243 244 244 245 245 246 246 245 245 244 244 247 247 248 248 246 246 248 248 249 249 246 246 250 250 246 246 249 249 246 246 250 250 245 245 246 246 241 241 247 247 242 242 247 247 241 241 247 247 242 242 251 251 252 252 251 251 242 242 253 253 254 254 252 252 255 255 252 252 254 254 255 255 256 256 252 252 257 257 252 252 256 256 252 252 257 257 251 251 258 258 259 259 260 260 258 258 260 260 261 261 260 260 262 262 261 261 263 263 261 261 262 262 261 261 263 263 264 264 265 265 264 264 263 263 264 264 265 265 266 266 266 266 265 265 267 267 239 239 267 267 265 265 267 267 239 239 241 241 260 260 259 259 268 268 269 269 268 268 259 259 268 268 269 269 270 270 271 271 270 270 269 269 272 272 273 273 48 48 274 274 275 275 91 91 276 276 277 277 278 278 279 279 280 280 281 281 282 282 283 283 284 284 285 285 286 286 287 287 286 286 285 285 288 288 289 289 290 290 291 291 292 292 293 293 294 294 295 295 296 296 63 63 297 297 63 63 296 296 63 63 297 297 59 59 298 298 299 299 300 300 301 301 300 300 299 299 300 300 301 301 302 302 303 303 302 302 301 301 302 302 303 303 304 304 305 305 304 304 303 303 304 304 305 305 287 287 306 306 287 287 305 305 287 287 306 306 285 285 307 307 308 308 309 309 310 310 309 309 308 308 309 309 310 310 311 311 312 312 311 311 310 310 311 311 312 312 313 313 313 313 312 312 314 314 278 278 314 314 312 312 314 314 278 278 315 315 315 315 278 278 316 316 277 277 316 316 278 278 316 316 277 277 317 317 318 318 319 319 320 320 321 321 320 320 319 319 320 320 321 321 322 322 320 320 323 323 318 318 324 324 318 318 323 323 318 318 324 324 325 325 325 325 324 324 326 326 327 327 326 326 324 324 326 326 327 327 328 328 329 329 328 328 327 327 328 328 329 329 330 330 331 331 330 330 329 329 330 330 331 331 332 332 333 333 332 332 331 331 332 332 333 333 334 334 335 335 334 334 333 333 334 334 335 335 336 336 335 335 337 337 336 336 338 338 336 336 337 337 336 336 338 338 339 339 340 340 339 339 338 338 339 339 340 340 341 341 342 342 343 343 344 344 345 345 344 344 343 343 344 344 345 345 340 340 346 346 340 340 345 345 340 340 346 346 341 341 347 347 348 348 349 349 350 350 349 349 348 348 349 349 350 350 351 351 352 352 351 351 350 350 351 351 352 352 353 353 354 354 353 353 352 352 353 353 354 354 355 355 356 356 355 355 354 354 355 355 356 356 291 291 357 357 291 291 356 356 291 291 357 357 289 289 358 358 289 289 357 357 348 348 298 298 350 350 300 300 350 350 298 298 350 350 300 300 352 352 302 302 352 352 300 300 352 352 302 302 354 354 304 304 354 354 302 302 354 354 304 304 356 356 287 287 356 356 304 304 356 356 287 287 357 357 286 286 357 357 287 287 357 357 286 286 358 358 288 288 358 358 286 286 359 359 360 360 361 361 362 362 361 361 360 360 361 361 362 362 363 363 364 364 363 363 362 362 363 363 364 364 365 365 366 366 365 365 364 364 365 365 366 366 367 367 367 367 276 276 365 365 278 278 365 365 276 276 365 365 278 278 363 363 312 312 363 363 278 278 363 363 312 312 361 361 310 310 361 361 312 312 361 361 310 310 359 359 308 308 359 359 310 310 368 368 369 369 370 370 371 371 370 370 369 369 370 370 371 371 372 372 373 373 372 372 371 371 372 372 373 373 374 374 375 375 374 374 373 373 374 374 375 375 376 376 377 377 376 376 375 375 376 376 377 377 378 378 379 379 380 380 381 381 382 382 381 381 380 380 381 381 382 382 383 383 384 384 383 383 382 382 383 383 384 384 385 385 386 386 385 385 384 384 385 385 386 386 387 387 388 388 387 387 386 386 387 387 388 388 389 389 390 390 389 389 388 388 389 389 390 390 391 391 392 392 391 391 390 390 391 391 392 392 393 393 378 378 393 393 392 392 393 393 378 378 394 394 377 377 394 394 378 378 380 380 342 342 382 382 344 344 382 382 342 342 382 382 344 344 384 384 340 340 384 384 344 344 384 384 340 340 386 386 338 338 386 386 340 340 386 386 338 338 388 388 337 337 388 388 338 338 388 388 337 337 390 390 335 335 390 390 337 337 390 390 335 335 392 392 333 333 392 392 335 335 392 392 333 333 378 378 331 331 378 378 333 333 378 378 331 331 376 376 329 329 376 376 331 331 376 376 329 329 374 374 327 327 374 374 329 329 374 374 327 327 372 372 324 324 372 372 327 327 372 372 324 324 370 370 323 323 370 370 324 324 370 370 323 323 368 368 320 320 368 368 323 323 91 91 275 275 88 88 395 395 88 88 275 275 88 88 395 395 85 85 396 396 85 85 395 395 85 85 396 396 83 83 91 91 93 93 274 274 95 95 274 274 93 93 274 274 95 95 397 397 97 97 397 397 95 95 397 397 97 97 398 398 99 99 398 398 97 97 398 398 99 99 399 399 102 102 399 399 99 99 399 399 102 102 400 400 104 104 400 400 102 102 400 400 104 104 401 401 105 105 401 401 104 104 401 401 105 105 402 402 107 107 402 402 105 105 402 402 107 107 403 403 118 118 279 279 116 116 281 281 116 116 279 279 116 116 281 281 114 114 404 404 114 114 281 281 114 114 404 404 112 112 403 403 112 112 404 404 112 112 403 403 110 110 107 107 110 110 403 403 283 283 379 379 284 284 381 381 284 284 379 379 284 284 381 381 405 405 383 383 405 405 381 381 405 405 383 383 406 406 385 385 406 406 383 383 406 406 385 385 407 407 387 387 407 407 385 385 407 407 387 387 408 408 389 389 408 408 387 387 408 408 389 389 409 409 391 391 409 409 389 389 409 409 391 391 410 410 393 393 410 410 391 391 410 410 393 393 411 411 394 394 411 411 393 393 411 411 394 394 412 412 377 377 412 412 394 394 412 412 377 377 413 413 375 375 413 413 377 377 413 413 375 375 414 414 373 373 414 414 375 375 414 414 373 373 415 415 371 371 415 415 373 373 415 415 371 371 416 416 369 369 416 416 371 371 416 416 369 369 367 367 368 368 367 367 369 369 367 367 368 368 276 276 320 320 276 276 368 368 276 276 320 320 277 277 322 322 277 277 320 320 277 277 322 322 317 317 48 48 273 273 46 46 417 417 46 46 273 273 46 46 417 417 43 43 418 418 43 43 417 417 43 43 418 418 63 63 419 419 63 63 418 418 63 63 419 419 295 295 48 48 50 50 272 272 52 52 272 272 50 50 272 272 52 52 420 420 54 54 420 420 52 52 420 420 54 54 421 421 422 422 347 347 423 423 349 349 423 423 347 347 423 423 349 349 424 424 351 351 424 424 349 349 424 424 351 351 425 425 353 353 425 425 351 351 425 425 353 353 426 426 355 355 426 426 353 353 426 426 355 355 294 294 291 291 294 294 355 355 294 294 291 291 292 292 290 290 292 292 291 291 293 293 295 295 294 294 419 419 294 294 295 295 294 294 419 419 426 426 418 418 426 426 419 419 426 426 418 418 425 425 417 417 425 425 418 418 425 425 417 417 424 424 273 273 424 424 417 417 424 424 273 273 423 423 272 272 423 423 273 273 423 423 272 272 422 422 420 420 422 422 272 272 422 422 420 420 427 427 421 421 427 427 420 420 427 427 421 421 428 428 429 429 428 428 421 421 428 428 429 429 430 430 431 431 430 430 429 429 430 430 431 431 432 432 433 433 432 432 431 431 432 432 433 433 396 396 37 37 396 396 433 433 396 396 37 37 83 83 54 54 56 56 421 421 76 76 421 421 56 56 421 421 76 76 429 429 78 78 429 429 76 76 429 429 78 78 431 431 80 80 431 431 78 78 431 431 80 80 433 433 38 38 433 433 80 80 433 433 38 38 37 37 280 280 282 282 281 281 284 284 281 281 282 282 281 281 284 284 404 404 405 405 404 404 284 284 404 404 405 405 403 403 406 406 403 403 405 405 403 403 406 406 402 402 407 407 402 402 406 406 402 402 407 407 401 401 408 408 401 401 407 407 401 401 408 408 400 400 409 409 400 400 408 408 400 400 409 409 399 399 410 410 399 399 409 409 399 399 410 410 398 398 411 411 398 398 410 410 398 398 411 411 397 397 412 412 397 397 411 411 397 397 412 412 274 274 413 413 274 274 412 412 274 274 413 413 275 275 414 414 275 275 413 413 275 275 414 414 395 395 415 415 395 395 414 414 395 395 415 415 396 396 416 416 396 396 415 415 396 396 416 416 432 432 367 367 432 432 416 416 432 432 367 367 430 430 366 366 430 430 367 367 430 430 366 366 428 428 364 364 428 428 366 366 428 428 364 364 427 427 362 362 427 427 364 364 427 427 362 362 422 422 360 360 422 422 362 362 422 422 360 360 347 347 359 359 347 347 360 360 347 347 359 359 348 348 308 308 348 348 359 359 348 348 308 308 298 298 307 307 298 298 308 308 298 298 307 307 299 299 434 434 435 435 436 436 437 437 436 436 435 435 436 436 437 437 438 438 439 439 438 438 437 437 438 438 439 439 440 440 441 441 440 440 439 439 440 440 441 441 442 442 443 443 442 442 441 441 442 442 443 443 444 444 445 445 444 444 443 443 444 444 445 445 446 446 447 447 446 446 445 445 446 446 447 447 448 448 449 449 448 448 447 447 448 448 449 449 450 450 449 449 451 451 450 450 452 452 450 450 451 451 450 450 452 452 453 453 454 454 453 453 452 452 453 453 454 454 455 455 456 456 455 455 454 454 455 455 456 456 457 457 458 458 459 459 460 460 461 461 460 460 459 459 460 460 461 461 462 462 463 463 464 464 465 465 466 466 465 465 464 464 465 465 466 466 467 467 468 468 467 467 466 466 467 467 468 468 461 461 469 469 461 461 468 468 461 461 469 469 462 462 470 470 471 471 472 472 468 468 473 473 469 469 470 470 469 469 473 473 469 469 470 470 474 474 472 472 474 474 470 470 475 475 476 476 477 477 478 478 477 477 476 476 477 477 478 478 479 479 475 475 477 477 480 480 481 481 480 480 477 477 480 480 481 481 482 482 479 479 478 478 483 483 484 484 483 483 478 478 483 483 484 484 485 485 244 244 486 486 487 487 488 488 487 487 486 486 487 487 488 488 489 489 490 490 489 489 488 488 489 489 490 490 491 491 492 492 491 491 490 490 491 491 492 492 493 493 494 494 493 493 492 492 493 493 495 495 491 491 496 496 491 491 495 495 491 491 496 496 489 489 497 497 489 489 496 496 489 489 497 497 487 487 246 246 244 244 487 487 487 487 497 497 246 246 498 498 246 246 497 497 246 246 498 498 241 241 499 499 494 494 500 500 492 492 500 500 494 494 500 500 492 492 501 501 490 490 501 501 492 492 501 501 490 490 488 488 488 488 486 486 501 501 502 502 501 501 486 486 501 501 502 502 503 503 485 485 503 503 502 502 504 504 505 505 506 506 507 507 506 506 505 505 506 506 507 507 508 508 509 509 510 510 511 511 512 512 511 511 510 510 511 511 512 512 513 513 514 514 513 513 512 512 515 515 516 516 517 517 518 518 517 517 516 516 517 517 518 518 519 519 520 520 519 519 518 518 515 515 521 521 516 516 522 522 516 516 521 521 516 516 522 522 509 509 523 523 509 509 522 522 509 509 523 523 510 510 514 514 524 524 513 513 525 525 513 513 524 524 513 513 525 525 520 520 526 526 520 520 525 525 520 520 526 526 519 519 527 527 495 495 493 493 499 499 528 528 494 494 529 529 494 494 528 528 527 527 493 493 530 530 531 531 532 532 529 529 530 530 529 529 532 532 529 529 530 530 494 494 493 493 494 494 530 530 533 533 534 534 535 535 536 536 535 535 534 534 482 482 481 481 534 534 537 537 534 534 481 481 534 534 537 537 536 536 538 538 539 539 540 540 541 541 540 540 539 539 540 540 541 541 542 542 543 543 544 544 545 545 546 546 545 545 544 544 544 544 547 547 546 546 459 459 546 546 547 547 546 546 459 459 458 458 548 548 549 549 550 550 551 551 550 550 549 549 550 550 551 551 552 552 553 553 552 552 551 551 554 554 555 555 556 556 554 554 556 556 557 557 558 558 557 557 556 556 557 557 558 558 559 559 545 545 560 560 543 543 561 561 543 543 560 560 543 543 561 561 562 562 563 563 562 562 561 561 562 562 563 563 564 564 565 565 566 566 567 567 562 562 567 567 566 566 567 567 562 562 568 568 564 564 568 568 562 562 244 244 243 243 486 486 569 569 486 486 243 243 346 346 345 345 570 570 571 571 285 285 306 306 571 571 306 306 572 572 573 573 574 574 311 311 572 572 306 306 253 253 305 305 253 253 306 306 253 253 305 305 254 254 305 305 303 303 254 254 301 301 254 254 303 303 254 254 301 301 575 575 299 299 575 575 301 301 575 575 299 299 576 576 307 307 576 576 299 299 576 576 307 307 574 574 309 309 574 574 307 307 574 574 309 309 311 311 311 311 313 313 573 573 314 314 573 573 313 313 573 573 314 314 577 577 315 315 577 577 314 314 316 316 578 578 315 315 579 579 315 315 578 578 315 315 579 579 577 577 318 318 341 341 319 319 346 346 319 319 341 341 319 319 346 346 321 321 570 570 321 321 346 346 321 321 570 570 322 322 580 580 322 322 570 570 322 322 580 580 317 317 581 581 317 317 580 580 317 317 581 581 316 316 582 582 316 316 581 581 316 316 582 582 578 578 318 318 325 325 341 341 326 326 341 341 325 325 341 341 326 326 328 328 332 332 334 334 330 330 336 336 330 330 334 334 330 330 336 336 328 328 339 339 328 328 336 336 328 328 339 339 341 341 173 173 583 583 175 175 176 176 175 175 583 583 583 583 584 584 176 176 585 585 176 176 584 584 176 176 585 585 157 157 586 586 157 157 585 585 157 157 586 586 159 159 169 169 587 587 155 155 588 588 155 155 587 587 155 155 588 588 153 153 169 169 167 167 587 587 165 165 587 587 167 167 587 587 165 165 589 589 163 163 589 589 165 165 589 589 163 163 586 586 161 161 586 586 163 163 586 586 161 161 159 159 590 590 136 136 137 137 226 226 137 137 138 138 226 226 151 151 137 137 150 150 137 137 151 151 137 137 150 150 590 590 588 588 591 591 153 153 592 592 153 153 591 591 153 153 592 592 150 150 593 593 150 150 592 592 150 150 593 593 594 594 594 594 595 595 150 150 596 596 150 150 595 595 150 150 596 596 590 590 138 138 148 148 226 226 147 147 226 226 148 148 226 226 147 147 145 145 232 232 230 230 145 145 228 228 145 145 230 230 145 145 228 228 226 226 141 141 140 140 143 143 219 219 143 143 140 140 143 143 219 219 145 145 234 234 145 145 219 219 145 145 234 234 232 232 485 485 597 597 483 483 586 586 585 585 598 598 599 599 598 598 585 585 598 598 599 599 600 600 597 597 485 485 601 601 600 600 599 599 602 602 601 601 602 602 599 599 602 602 601 601 603 603 485 485 603 603 601 601 603 603 485 485 604 604 502 502 604 604 485 485 604 604 502 502 605 605 486 486 605 605 502 502 605 605 486 486 569 569 606 606 607 607 608 608 609 609 610 610 611 611 612 612 611 611 610 610 613 613 591 591 614 614 588 588 614 614 591 591 614 614 588 588 615 615 587 587 615 615 588 588 594 594 593 593 613 613 592 592 613 613 593 593 613 613 592 592 591 591 616 616 617 617 618 618 613 613 619 619 594 594 620 620 594 594 619 619 594 594 620 620 595 595 621 621 595 595 620 620 595 595 621 621 596 596 616 616 596 596 621 621 596 596 616 616 590 590 618 618 590 590 616 616 590 590 618 618 136 136 622 622 623 623 624 624 625 625 624 624 623 623 624 624 625 625 626 626 627 627 626 626 625 625 626 626 627 627 628 628 629 629 628 628 627 627 623 623 630 630 625 625 611 611 625 625 630 630 625 625 611 611 627 627 612 612 627 627 611 611 627 627 612 612 629 629 631 631 632 632 633 633 634 634 633 633 632 632 633 633 634 634 635 635 636 636 635 635 634 634 635 635 636 636 637 637 638 638 637 637 636 636 637 637 638 638 639 639 640 640 639 639 638 638 639 639 640 640 641 641 642 642 641 641 640 640 641 641 642 642 643 643 644 644 643 643 642 642 643 643 644 644 622 622 645 645 622 622 644 644 622 622 645 645 623 623 646 646 623 623 645 645 623 623 646 646 630 630 632 632 617 617 634 634 616 616 634 634 617 617 634 634 616 616 636 636 621 621 636 636 616 616 636 636 621 621 638 638 620 620 638 638 621 621 638 638 620 620 640 640 619 619 640 640 620 620 640 640 619 619 642 642 613 613 642 642 619 619 642 642 613 613 644 644 614 614 644 644 613 613 644 644 614 614 645 645 615 615 645 645 614 614 645 645 615 615 646 646 587 587 646 646 615 615 646 646 587 587 630 630 589 589 630 630 587 587 630 630 589 589 611 611 586 586 611 611 589 589 611 611 586 586 609 609 435 435 606 606 437 437 608 608 437 437 606 606 437 437 608 608 439 439 647 647 439 439 608 608 439 439 647 647 441 441 648 648 441 441 647 647 441 441 648 648 443 443 649 649 443 443 648 648 443 443 649 649 445 445 650 650 445 445 649 649 445 445 650 650 447 447 651 651 447 447 650 650 447 447 651 651 449 449 452 452 652 652 454 454 653 653 454 454 652 652 454 454 653 653 456 456 654 654 456 456 653 653 652 652 655 655 653 653 656 656 653 653 655 655 653 653 656 656 654 654 657 657 654 654 656 656 607 607 658 658 608 608 659 659 608 608 658 658 608 608 659 659 647 647 660 660 647 647 659 659 647 647 660 660 648 648 661 661 648 648 660 660 648 648 661 661 649 649 662 662 649 649 661 661 649 649 662 662 650 650 663 663 650 650 662 662 650 650 663 663 651 651 664 664 651 651 663 663 651 651 664 664 665 665 666 666 665 665 664 664 665 665 666 666 667 667 668 668 667 667 666 666 449 449 651 651 451 451 665 665 451 451 651 651 451 451 665 665 452 452 667 667 452 452 665 665 452 452 667 667 652 652 668 668 652 652 667 667 652 652 668 668 655 655 658 658 631 631 659 659 633 633 659 659 631 631 659 659 633 633 660 660 635 635 660 660 633 633 660 660 635 635 661 661 637 637 661 661 635 635 661 661 637 637 662 662 639 639 662 662 637 637 662 662 639 639 663 663 641 641 663 663 639 639 663 663 641 641 664 664 643 643 664 664 641 641 664 664 643 643 666 666 622 622 666 666 643 643 666 666 622 622 668 668 624 624 668 668 622 622 668 668 624 624 655 655 626 626 655 655 624 624 655 655 626 626 656 656 628 628 656 656 626 626 656 656 628 628 657 657 629 629 657 657 628 628 669 669 670 670 671 671 672 672 673 673 674 674 675 675 434 434 436 436 676 676 677 677 678 678 679 679 680 680 681 681 570 570 345 345 679 679 679 679 681 681 570 570 682 682 570 570 681 681 570 570 682 682 580 580 683 683 580 580 682 682 580 580 683 683 581 581 684 684 581 581 683 683 581 581 684 684 582 582 685 685 582 582 684 684 582 582 685 685 578 578 686 686 578 578 685 685 578 578 686 686 579 579 687 687 579 579 686 686 579 579 687 687 577 577 688 688 577 577 687 687 577 577 688 688 573 573 689 689 573 573 688 688 573 573 689 689 574 574 690 690 691 691 692 692 693 693 692 692 691 691 692 692 693 693 694 694 574 574 689 689 576 576 692 692 576 576 689 689 576 576 692 692 575 575 694 694 575 575 692 692 575 575 694 694 254 254 695 695 696 696 697 697 698 698 697 697 696 696 675 675 436 436 699 699 673 673 699 699 674 674 436 436 674 674 699 699 674 674 436 436 700 700 457 457 695 695 455 455 697 697 455 455 695 695 455 455 697 697 453 453 436 436 438 438 700 700 440 440 700 700 438 438 700 700 440 440 701 701 442 442 701 701 440 440 701 701 442 442 702 702 444 444 702 702 442 442 702 702 444 444 703 703 446 446 703 703 444 444 703 703 446 446 704 704 448 448 704 704 446 446 704 704 448 448 705 705 450 450 705 705 448 448 705 705 450 450 706 706 453 453 706 706 450 450 706 706 453 453 707 707 697 697 707 707 453 453 670 670 672 672 671 671 674 674 671 671 672 672 671 671 674 674 708 708 700 700 708 708 674 674 708 708 700 700 709 709 701 701 709 709 700 700 709 709 701 701 710 710 702 702 710 710 701 701 710 710 702 702 711 711 703 703 711 711 702 702 711 711 703 703 712 712 704 704 712 712 703 703 712 712 704 704 713 713 705 705 713 713 704 704 713 713 705 705 714 714 706 706 714 714 705 705 714 714 706 706 715 715 707 707 715 715 706 706 715 715 707 707 678 678 697 697 678 678 707 707 678 678 697 697 676 676 698 698 676 676 697 697 680 680 669 669 681 681 671 671 681 681 669 669 681 681 671 671 682 682 708 708 682 682 671 671 682 682 708 708 683 683 709 709 683 683 708 708 683 683 709 709 684 684 710 710 684 684 709 709 684 684 710 710 685 685 711 711 685 685 710 710 685 685 711 711 686 686 712 712 686 686 711 711 686 686 712 712 687 687 713 713 687 687 712 712 687 687 713 713 688 688 714 714 688 688 713 713 688 688 714 714 689 689 715 715 689 689 714 714 689 689 715 715 692 692 678 678 692 692 715 715 692 692 678 678 690 690 677 677 690 690 678 678 716 716 717 717 718 718 716 716 718 718 719 719 720 720 719 719 718 718 719 719 720 720 721 721 463 463 721 721 720 720 721 721 463 463 465 465 722 722 718 718 717 717 723 723 724 724 725 725 726 726 725 725 724 724 725 725 726 726 717 717 727 727 717 717 726 726 727 727 728 728 717 717 729 729 717 717 728 728 717 717 729 729 722 722 730 730 731 731 732 732 733 733 734 734 735 735 736 736 735 735 734 734 735 735 736 736 732 732 737 737 732 732 736 736 732 732 737 737 730 730 738 738 739 739 740 740 741 741 740 740 739 739 740 740 741 741 742 742 743 743 742 742 741 741 742 742 743 743 744 744 745 745 744 744 743 743 744 744 745 745 746 746 747 747 746 746 745 745 746 746 747 747 748 748 749 749 748 748 747 747 748 748 749 749 750 750 751 751 750 750 749 749 750 750 751 751 752 752 753 753 752 752 751 751 752 752 753 753 738 738 739 739 738 738 753 753 754 754 755 755 756 756 754 754 756 756 757 757 755 755 754 754 758 758 759 759 758 758 754 754 758 758 759 759 760 760 761 761 760 760 759 759 760 760 761 761 762 762 763 763 762 762 761 761 762 762 763 763 764 764 756 756 765 765 757 757 766 766 757 757 765 765 757 757 766 766 767 767 768 768 767 767 766 766 767 767 768 768 769 769 770 770 769 769 768 768 769 769 770 770 771 771 772 772 771 771 770 770 771 771 772 772 763 763 773 773 763 763 772 772 763 763 773 773 764 764</p>
        </triangles>
      </mesh>
    </geometry>
  </library_geometries>
  <library_materials>
    <material id="0709fb6cbdaa4f1a8ed8890dfa193446" name="defaultmaterial">
      <instance_effect url="#3b6b637929b547cb85305f7c48337689"/>
    </material>
  </library_materials>
  <library_visual_scenes>
    <visual_scene id="scene">
      <node id="node0" name="node0">
        <instance_geometry url="#090e100910c04ce4bef3831cc99fe552">
          <bind_material>
            <technique_common>
              <instance_material symbol="material0" target="#0709fb6cbdaa4f1a8ed8890dfa193446"/>
            </technique_common>
          </bind_material>
        </instance_geometry>
      </node>
    </visual_scene>
  </library_visual_scenes>
  <scene>
    <instance_visual_scene url="#scene"/>
  </scene>
</COLLADA>
