<COLLADA xmlns="http://www.collada.org/2005/11/COLLADASchema" version="1.4.1">
  <asset>
    <created>2026-10-05T22:47:04.726696</created>
    <modified>2026-10-05T22:47:04.726696</modified>
    <up_axis>Y_UP</up_axis>
  </asset>
  <library_effects>
    <effect id="fa296d57621044199ba57f7afde246ab" name="fa296d57621044199ba57f7afde246ab">
      <profile_COMMON>
        <technique sid="common">
          <phong>
            <emission>
              <color>0.0 0.0 0.0 1.0</color>
            </emission>
            <ambient>
              <color>0.0 0.0 0.0 1.0</color>
            </ambient>
            <diffuse>
              <color>0.9490196078431372 0.9490196078431372 0.9490196078431372 1.0</color>
            </diffuse>
            <specular>
              <color>0.0 0.0 0.0 1.0</color>
            </specular>
            <shininess>
              <float>0.0</float>
            </shininess>
            <reflective>
              <color>0.0 0.0 0.0 1.0</color>
            </reflective>
            <reflectivity>
              <float>0.0</float>
            </reflectivity>
            <transparent>
              <color>0.0 0.0 0.0 1.0</color>
            </transparent>
            <transparency>
              <float>1.0</float>
            </transparency>
          </phong>
        </technique>
        <extra>
          <technique profile="GOOGLEEARTH">
            <double_sided>0</double_sided>
          </technique>
        </extra>
      </profile_COMMON>
    </effect>
  </library_effects>
  <library_geometries>
    <geometry id="3ef1db09295e455a90cee920b5816d43" name="57f827b25dd848cfa81557d2dbf4b3c1">
      <mesh>
        <source id="verts-array">
          <float_array count="1314" id="verts-array-array">0.005834423 0.004067504 0.00105 0.005428893 0.003796534 0.00105 0.002772183 0.001149434 0.00105 0.004950543 0.003701384 0.00105 0.002121863 0.002122704 0.00105 0.004472193 0.003796534 0.00105 0.001148593 0.002773024 0.00105 5.432519e-07 0.003001384 0.00105 0.01000054 1.384004e-06 0.00105 0.003000543 1.384004e-06 0.00105 0.009686373 -0.002485516 0.00105 0.002772183 -0.001146666 0.00105 0.009413053 -0.003375696 0.00105 0.002121863 -0.002119936 0.00105 -0.002120777 0.002122704 0.00105 -0.001147507 0.002773024 0.00105 -0.003372447 0.009415364 0.00105 0.006105393 0.004473034 0.00105 0.009686373 0.002488284 0.00105 0.006200543 0.004951384 0.00105 0.008763613 0.004818924 0.00105 0.006105393 0.005429734 0.00105 0.007290233 0.006846854 0.00105 0.005834423 0.005835264 0.00105 0.005428893 0.006106234 0.00105 0.005358813 0.008444664 0.00105 0.004950543 0.006201384 0.00105 0.004066663 0.004067504 0.00105 0.003795693 0.004473034 0.00105 0.003700543 0.004951384 0.00105 0.001148593 -0.002770256 0.00105 5.432519e-07 -0.002998616 0.00105 -0.003349457 -0.003348616 0.00105 -0.001147507 -0.002770256 0.00105 -0.002120777 -0.002119936 0.00105 -0.002771097 -0.001146666 0.00105 -0.002999457 1.384004e-06 0.00105 -0.002771097 0.001149434 0.00105 0.003795693 0.005429734 0.00105 0.004472193 0.006106234 0.00105 0.003090713 0.009511954 0.00105 0.004066663 0.005835264 0.00105 0.0006284483 0.009981654 0.00105 -0.001873267 0.009824254 0.00105 0.006105393 -0.005426966 0.00105 0.005834423 -0.005832496 0.00105 0.007290233 -0.006844086 0.00105 0.005358813 -0.008441896 0.00105 0.003795693 -0.005426966 0.00105 0.003700543 -0.004948616 0.00105 0.003795693 -0.004470266 0.00105 0.004066663 -0.004064736 0.00105 0.006200543 -0.004948616 0.00105 0.008763613 -0.004816156 0.00105 0.006105393 -0.004470266 0.00105 0.005834423 -0.004064736 0.00105 0.005428893 -0.006103466 0.00105 0.004950543 -0.006198616 0.00105 0.003090713 -0.009509186 0.00105 0.004472193 -0.006103466 0.00105 0.0006284483 -0.009978886 0.00105 0.004066663 -0.005832496 0.00105 -0.001873267 -0.009821486 0.00105 -0.003372447 -0.009412596 0.00105 0.004472193 -0.003793766 0.00105 0.004950543 -0.003698616 0.00105 0.005428893 -0.003793766 0.00105 -0.006373697 -0.007703746 0.00105 -0.004257247 -0.009046886 0.00105 -0.004949457 -0.006198616 0.00105 -0.004471107 -0.006103466 0.00105 -0.004065577 -0.005832496 0.00105 -0.004065577 -0.004064736 0.00105 -0.003794607 -0.004470266 0.00105 -0.003699457 -0.004948616 0.00105 -0.003794607 -0.005426966 0.00105 -0.005427807 -0.006103466 0.00105 -0.005833337 -0.005832496 0.00105 -0.008089627 -0.005876466 0.00105 -0.006104307 -0.005426966 0.00105 -0.009297217 -0.003679866 0.00105 -0.006199457 -0.004948616 0.00105 -0.009418337 -0.003357876 0.00105 -0.006104307 -0.004470266 0.00105 -0.005833337 -0.004064736 0.00105 -0.005427807 -0.003793766 0.00105 -0.004949457 -0.003698616 0.00105 -0.004471107 -0.003793766 0.00105 -0.004065577 0.005835264 0.00105 -0.003794607 0.005429734 0.00105 -0.003699457 0.004951384 0.00105 -0.003794607 0.004473034 0.00105 -0.004065577 0.004067504 0.00105 -0.004471107 0.003796534 0.00105 -0.004949457 0.003701384 0.00105 -0.005427807 0.003796534 0.00105 -0.009920607 -0.001251946 0.00105 -0.005833337 0.004067504 0.00105 -0.009920607 0.001254714 0.00105 -0.006104307 0.004473034 0.00105 -0.009297217 0.003682634 0.00105 -0.006199457 0.004951384 0.00105 -0.008089627 0.005879234 0.00105 -0.006104307 0.005429734 0.00105 -0.006373697 0.007706514 0.00105 -0.005833337 0.005835264 0.00105 -0.005427807 0.006106234 0.00105 -0.004257247 0.009049654 0.00105 -0.004949457 0.006201384 0.00105 -0.004471107 0.006106234 0.00105 0.008763613 -0.004816156 -0.00105 0.009413053 -0.003375696 -0.00105 0.009413053 -0.003375696 0.00105 0.009686373 -0.002485516 0.00105 0.008763613 -0.004816156 0.00105 0.007290233 -0.006844086 0.00105 0.007290233 -0.006844086 -0.00105 0.005358813 -0.008441896 0.00105 0.005358813 -0.008441896 -0.00105 0.003090713 -0.009509186 0.00105 0.003090713 -0.009509186 -0.00105 0.0006284483 -0.009978886 0.00105 0.0006284483 -0.009978886 -0.00105 -0.001873267 -0.009821486 0.00105 -0.001873267 -0.009821486 -0.00105 -0.003372447 -0.009412596 -0.00105 -0.003372447 -0.009412596 0.00105 -0.004257247 -0.009046886 -0.00105 -0.004257247 -0.009046886 0.00105 -0.006373697 -0.007703746 0.00105 -0.006373697 -0.007703746 -0.00105 -0.008089627 -0.005876466 0.00105 -0.008089627 -0.005876466 -0.00105 -0.009297217 -0.003679866 0.00105 -0.009297217 -0.003679866 -0.00105 -0.009418337 -0.003357876 -0.00105 -0.009418337 -0.003357876 0.00105 -0.009920607 -0.001251946 -0.00105 -0.009920607 -0.001251946 0.00105 -0.009920607 0.001254714 0.00105 -0.009920607 0.001254714 -0.00105 -0.009297217 0.003682634 0.00105 -0.009297217 0.003682634 -0.00105 -0.008089627 0.005879234 0.00105 -0.008089627 0.005879234 -0.00105 -0.006373697 0.007706514 0.00105 -0.006373697 0.007706514 -0.00105 -0.004257247 0.009049654 0.00105 -0.004257247 0.009049654 -0.00105 -0.003372447 0.009415364 -0.00105 -0.003372447 0.009415364 0.00105 -0.001873267 0.009824254 -0.00105 0.009686373 -0.002485516 -0.00105 0.01000054 1.384004e-06 -0.00105 0.01000054 1.384004e-06 0.00105 0.009686373 0.002488284 -0.00105 0.009686373 0.002488284 0.00105 0.008763613 0.004818924 -0.00105 0.008763613 0.004818924 0.00105 0.007290233 0.006846854 -0.00105 0.007290233 0.006846854 0.00105 0.005358813 0.008444664 -0.00105 0.005358813 0.008444664 0.00105 0.003090713 0.009511954 -0.00105 0.003090713 0.009511954 0.00105 0.0006284483 0.009981654 -0.00105 0.0006284483 0.009981654 0.00105 -0.001873267 0.009824254 0.00105 0.006105393 0.005429734 -0.00105 0.005834423 0.005835264 -0.00105 0.007290233 0.006846854 -0.00105 0.005358813 0.008444664 -0.00105 -0.001147507 0.002773024 -0.00105 -0.002120777 0.002122704 -0.00105 -0.003372447 0.009415364 -0.00105 -0.002771097 0.001149434 -0.00105 -0.002999457 1.384004e-06 -0.00105 -0.003349457 -0.003348616 -0.00105 -0.002771097 -0.001146666 -0.00105 -0.002120777 -0.002119936 -0.00105 5.432519e-07 0.003001384 -0.00105 0.003700543 0.004951384 -0.00105 0.001148593 0.002773024 -0.00105 0.003795693 0.004473034 -0.00105 0.002121863 0.002122704 -0.00105 0.004066663 0.004067504 -0.00105 0.002772183 0.001149434 -0.00105 0.004472193 0.003796534 -0.00105 0.003795693 0.005429734 -0.00105 -0.001873267 0.009824254 -0.00105 0.004066663 0.005835264 -0.00105 0.0006284483 0.009981654 -0.00105 0.004472193 0.006106234 -0.00105 0.003090713 0.009511954 -0.00105 0.004950543 0.006201384 -0.00105 0.005428893 0.006106234 -0.00105 0.004950543 0.003701384 -0.00105 0.002772183 -0.001146666 -0.00105 0.003000543 1.384004e-06 -0.00105 0.001148593 -0.002770256 -0.00105 0.009413053 -0.003375696 -0.00105 5.432519e-07 -0.002998616 -0.00105 -0.001147507 -0.002770256 -0.00105 0.005428893 0.003796534 -0.00105 0.002121863 -0.002119936 -0.00105 0.006200543 0.004951384 -0.00105 0.008763613 0.004818924 -0.00105 0.006105393 0.004473034 -0.00105 0.009686373 0.002488284 -0.00105 0.005834423 0.004067504 -0.00105 0.01000054 1.384004e-06 -0.00105 0.009686373 -0.002485516 -0.00105 -0.005833337 0.004067504 -0.00105 -0.005427807 0.003796534 -0.00105 -0.009418337 -0.003357876 -0.00105 -0.004471107 0.003796534 -0.00105 -0.004065577 0.004067504 -0.00105 -0.004065577 0.005835264 -0.00105 -0.004471107 0.006106234 -0.00105 -0.006373697 0.007706514 -0.00105 -0.005833337 0.005835264 -0.00105 -0.008089627 0.005879234 -0.00105 -0.006104307 0.005429734 -0.00105 -0.009297217 0.003682634 -0.00105 -0.004949457 0.003701384 -0.00105 -0.004257247 0.009049654 -0.00105 -0.004949457 0.006201384 -0.00105 -0.005427807 0.006106234 -0.00105 -0.006199457 0.004951384 -0.00105 -0.006104307 0.004473034 -0.00105 -0.009920607 0.001254714 -0.00105 -0.009920607 -0.001251946 -0.00105 -0.003794607 0.004473034 -0.00105 -0.003699457 0.004951384 -0.00105 -0.003794607 0.005429734 -0.00105 -0.006373697 -0.007703746 -0.00105 -0.008089627 -0.005876466 -0.00105 -0.006104307 -0.005426966 -0.00105 -0.006199457 -0.004948616 -0.00105 -0.009297217 -0.003679866 -0.00105 -0.006104307 -0.004470266 -0.00105 -0.005833337 -0.004064736 -0.00105 -0.004065577 -0.004064736 -0.00105 -0.004471107 -0.003793766 -0.00105 -0.004949457 -0.003698616 -0.00105 -0.005427807 -0.003793766 -0.00105 -0.005833337 -0.005832496 -0.00105 -0.005427807 -0.006103466 -0.00105 -0.004257247 -0.009046886 -0.00105 -0.004949457 -0.006198616 -0.00105 -0.003372447 -0.009412596 -0.00105 -0.004471107 -0.006103466 -0.00105 -0.004065577 -0.005832496 -0.00105 -0.003794607 -0.005426966 -0.00105 -0.003699457 -0.004948616 -0.00105 -0.003794607 -0.004470266 -0.00105 0.004066663 -0.004064736 -0.00105 0.003795693 -0.004470266 -0.00105 0.003700543 -0.004948616 -0.00105 0.003795693 -0.005426966 -0.00105 0.005358813 -0.008441896 -0.00105 0.003090713 -0.009509186 -0.00105 0.004472193 -0.006103466 -0.00105 0.005834423 -0.004064736 -0.00105 0.005428893 -0.003793766 -0.00105 0.004950543 -0.003698616 -0.00105 0.004472193 -0.003793766 -0.00105 0.004066663 -0.005832496 -0.00105 0.0006284483 -0.009978886 -0.00105 -0.001873267 -0.009821486 -0.00105 0.004950543 -0.006198616 -0.00105 0.005428893 -0.006103466 -0.00105 0.007290233 -0.006844086 -0.00105 0.005834423 -0.005832496 -0.00105 0.006105393 -0.005426966 -0.00105 0.008763613 -0.004816156 -0.00105 0.006200543 -0.004948616 -0.00105 0.006105393 -0.004470266 -0.00105 -0.003699457 -0.004948616 -0.00105 -0.003699457 -0.004948616 0.00105 -0.003794607 -0.004470266 -0.00105 -0.003794607 -0.004470266 0.00105 -0.004065577 -0.004064736 -0.00105 -0.004065577 -0.004064736 0.00105 -0.004471107 -0.003793766 -0.00105 -0.004471107 -0.003793766 0.00105 -0.004949457 -0.003698616 -0.00105 -0.004949457 -0.003698616 0.00105 -0.005427807 -0.003793766 -0.00105 -0.005427807 -0.003793766 0.00105 -0.005833337 -0.004064736 -0.00105 -0.005833337 -0.004064736 0.00105 -0.006104307 -0.004470266 -0.00105 -0.006104307 -0.004470266 0.00105 -0.006199457 -0.004948616 -0.00105 -0.006199457 -0.004948616 0.00105 -0.006104307 -0.005426966 -0.00105 -0.006104307 -0.005426966 0.00105 -0.005833337 -0.005832496 -0.00105 -0.005833337 -0.005832496 0.00105 -0.005427807 -0.006103466 -0.00105 -0.005427807 -0.006103466 0.00105 -0.004949457 -0.006198616 -0.00105 -0.004949457 -0.006198616 0.00105 -0.004471107 -0.006103466 -0.00105 -0.004471107 -0.006103466 0.00105 -0.004065577 -0.005832496 -0.00105 -0.004065577 -0.005832496 0.00105 -0.003794607 -0.005426966 -0.00105 -0.003794607 -0.005426966 0.00105 0.006200543 -0.004948616 -0.00105 0.006200543 -0.004948616 0.00105 0.006105393 -0.004470266 -0.00105 0.006105393 -0.004470266 0.00105 0.005834423 -0.004064736 -0.00105 0.005834423 -0.004064736 0.00105 0.005428893 -0.003793766 -0.00105 0.005428893 -0.003793766 0.00105 0.004950543 -0.003698616 -0.00105 0.004950543 -0.003698616 0.00105 0.004472193 -0.003793766 -0.00105 0.004472193 -0.003793766 0.00105 0.004066663 -0.004064736 -0.00105 0.004066663 -0.004064736 0.00105 0.003795693 -0.004470266 -0.00105 0.003795693 -0.004470266 0.00105 0.003700543 -0.004948616 -0.00105 0.003700543 -0.004948616 0.00105 0.003795693 -0.005426966 -0.00105 0.003795693 -0.005426966 0.00105 0.004066663 -0.005832496 -0.00105 0.004066663 -0.005832496 0.00105 0.004472193 -0.006103466 -0.00105 0.004472193 -0.006103466 0.00105 0.004950543 -0.006198616 -0.00105 0.004950543 -0.006198616 0.00105 0.005428893 -0.006103466 -0.00105 0.005428893 -0.006103466 0.00105 0.005834423 -0.005832496 -0.00105 0.005834423 -0.005832496 0.00105 0.006105393 -0.005426966 -0.00105 0.006105393 -0.005426966 0.00105 -0.003699457 0.004951384 -0.00105 -0.003699457 0.004951384 0.00105 -0.003794607 0.005429734 -0.00105 -0.003794607 0.005429734 0.00105 -0.004065577 0.005835264 -0.00105 -0.004065577 0.005835264 0.00105 -0.004471107 0.006106234 -0.00105 -0.004471107 0.006106234 0.00105 -0.004949457 0.006201384 -0.00105 -0.004949457 0.006201384 0.00105 -0.005427807 0.006106234 -0.00105 -0.005427807 0.006106234 0.00105 -0.005833337 0.005835264 -0.00105 -0.005833337 0.005835264 0.00105 -0.006104307 0.005429734 -0.00105 -0.006104307 0.005429734 0.00105 -0.006199457 0.004951384 -0.00105 -0.006199457 0.004951384 0.00105 -0.006104307 0.004473034 -0.00105 -0.006104307 0.004473034 0.00105 -0.005833337 0.004067504 -0.00105 -0.005833337 0.004067504 0.00105 -0.005427807 0.003796534 -0.00105 -0.005427807 0.003796534 0.00105 -0.004949457 0.003701384 -0.00105 -0.004949457 0.003701384 0.00105 -0.004471107 0.003796534 -0.00105 -0.004471107 0.003796534 0.00105 -0.004065577 0.004067504 -0.00105 -0.004065577 0.004067504 0.00105 -0.003794607 0.004473034 -0.00105 -0.003794607 0.004473034 0.00105 0.006200543 0.004951384 -0.00105 0.006200543 0.004951384 0.00105 0.006105393 0.005429734 -0.00105 0.006105393 0.005429734 0.00105 0.005834423 0.005835264 -0.00105 0.005834423 0.005835264 0.00105 0.005428893 0.006106234 -0.00105 0.005428893 0.006106234 0.00105 0.004950543 0.006201384 -0.00105 0.004950543 0.006201384 0.00105 0.004472193 0.006106234 -0.00105 0.004472193 0.006106234 0.00105 0.004066663 0.005835264 -0.00105 0.004066663 0.005835264 0.00105 0.003795693 0.005429734 -0.00105 0.003795693 0.005429734 0.00105 0.003700543 0.004951384 -0.00105 0.003700543 0.004951384 0.00105 0.003795693 0.004473034 -0.00105 0.003795693 0.004473034 0.00105 0.004066663 0.004067504 -0.00105 0.004066663 0.004067504 0.00105 0.004472193 0.003796534 -0.00105 0.004472193 0.003796534 0.00105 0.004950543 0.003701384 -0.00105 0.004950543 0.003701384 0.00105 0.005428893 0.003796534 -0.00105 0.005428893 0.003796534 0.00105 0.005834423 0.004067504 -0.00105 0.005834423 0.004067504 0.00105 0.006105393 0.004473034 -0.00105 0.006105393 0.004473034 0.00105 0.003000543 1.384004e-06 -0.00105 0.003000543 1.384004e-06 0.00105 0.002772183 0.001149434 -0.00105 0.002772183 0.001149434 0.00105 0.002121863 0.002122704 -0.00105 0.002121863 0.002122704 0.00105 0.001148593 0.002773024 -0.00105 0.001148593 0.002773024 0.00105 5.432519e-07 0.003001384 -0.00105 5.432519e-07 0.003001384 0.00105 -0.001147507 0.002773024 -0.00105 -0.001147507 0.002773024 0.00105 -0.002120777 0.002122704 -0.00105 -0.002120777 0.002122704 0.00105 -0.002771097 0.001149434 -0.00105 -0.002771097 0.001149434 0.00105 -0.002999457 1.384004e-06 -0.00105 -0.002999457 1.384004e-06 0.00105 -0.002771097 -0.001146666 -0.00105 -0.002771097 -0.001146666 0.00105 -0.002120777 -0.002119936 -0.00105 -0.002120777 -0.002119936 0.00105 -0.001147507 -0.002770256 -0.00105 -0.001147507 -0.002770256 0.00105 5.432519e-07 -0.002998616 -0.00105 5.432519e-07 -0.002998616 0.00105 0.001148593 -0.002770256 -0.00105 0.001148593 -0.002770256 0.00105 0.002121863 -0.002119936 -0.00105 0.002121863 -0.002119936 0.00105 0.002772183 -0.001146666 -0.00105 0.002772183 -0.001146666 0.00105</float_array>
          <technique_common>
            <accessor count="438" source="#verts-array-array" stride="3">
              <param type="float" name="X"/>
              <param type="float" name="Y"/>
              <param type="float" name="Z"/>
            </accessor>
          </technique_common>
        </source>
        <source id="normals-array">
          <float_array count="1314" id="normals-array-array">0 0 1 0 0 1 0 0 1 0 0 1 0 0 1 0 0 1 0 0 1 0 0 1 0 0 1 0 0 1 0 0 1 0 0 1 0 0 1 0 0 1 0 0 1 0 0 1 0 0 1 0 0 1 0 0 1 0 0 1 0 0 1 0 0 1 0 0 1 0 0 1 0 0 1 0 0 1 0 0 1 0 0 1 0 0 1 0 0 1 0 0 1 0 0 1 0 0 1 0 0 1 0 0 1 0 0 1 0 0 1 0 0 1 0 0 1 0 0 1 0 0 1 0 0 1 0 0 1 0 0 1 0 0 1 0 0 1 0 0 1 0 0 1 0 0 1 0 0 1 0 0 1 0 0 1 0 0 1 0 0 1 0 0 1 0 0 1 0 0 1 0 0 1 0 0 1 0 0 1 0 0 1 0 0 1 0 0 1 0 0 1 0 0 1 0 0 1 0 0 1 0 0 1 0 0 1 0 0 1 0 0 1 0 0 1 0 0 1 0 0 1 0 0 1 0 0 1 0 0 1 0 0 1 0 0 1 0 0 1 0 0 1 0 0 1 0 0 1 0 0 1 0 0 1 0 0 1 0 0 1 0 0 1 0 0 1 0 0 1 0 0 1 0 0 1 0 0 1 0 0 1 0 0 1 0 0 1 0 0 1 0 0 1 0 0 1 0 0 1 0 0 1 0 0 1 0 0 1 0 0 1 0 0 1 0 0 1 0 0 1 0 0 1 0 0 1 0 0 1 0.8648512 -0.5020283 0 0.9356381 -0.3529609 0 0.9356381 -0.3529609 0 0.9776576 -0.2102036 0 0.8648512 -0.5020283 0 0.7289684 -0.6845474 0 0.7289684 -0.6845474 0 0.5358273 -0.8443276 0 0.5358273 -0.8443276 0 0.3090171 -0.9510565 0 0.3090171 -0.9510565 0 0.06278902 -0.9980268 0 0.06278902 -0.9980268 0 -0.1638085 -0.9864922 0 -0.1638085 -0.9864922 0 -0.3231946 -0.9463325 0 -0.3231946 -0.9463325 0 -0.4606377 -0.8875882 0 -0.4606377 -0.8875882 0 -0.637424 -0.7705132 0 -0.637424 -0.7705132 0 -0.8090171 -0.5877851 0 -0.8090171 -0.5877851 0 -0.908456 -0.4179805 0 -0.908456 -0.4179805 0 -0.9562309 -0.292613 0 -0.9562309 -0.292613 0 -0.9931558 -0.1167972 0 -0.9931558 -0.1167972 0 -0.9921146 0.1253344 0 -0.9921146 0.1253344 0 -0.9297761 0.3681255 0 -0.9297761 0.3681255 0 -0.8090171 0.5877851 0 -0.8090171 0.5877851 0 -0.637424 0.7705132 0 -0.637424 0.7705132 0 -0.4606377 0.8875882 0 -0.4606377 0.8875882 0 -0.3231946 0.9463325 0 -0.3231946 0.9463325 0 -0.1638085 0.9864922 0 0.9776576 -0.2102036 0 1 8.905094e-18 0 1 -4.452547e-18 0 0.9685833 0.2486892 0 0.9685833 0.2486892 0 0.876307 0.4817531 0 0.876307 0.4817531 0 0.7289684 0.6845474 0 0.7289684 0.6845474 0 0.5358273 0.8443276 0 0.5358273 0.8443276 0 0.3090171 0.9510565 0 0.3090171 0.9510565 0 0.06278902 0.9980268 0 0.06278902 0.9980268 0 -0.1638085 0.9864922 0 0 0 -1 0 0 -1 0 0 -1 0 0 -1 0 0 -1 0 0 -1 0 0 -1 0 0 -1 0 0 -1 0 0 -1 0 0 -1 0 0 -1 0 0 -1 0 0 -1 0 0 -1 0 0 -1 0 0 -1 0 0 -1 0 0 -1 0 0 -1 0 0 -1 0 0 -1 0 0 -1 0 0 -1 0 0 -1 0 0 -1 0 0 -1 0 0 -1 0 0 -1 0 0 -1 0 0 -1 0 0 -1 0 0 -1 0 0 -1 0 0 -1 0 0 -1 0 0 -1 0 0 -1 0 0 -1 0 0 -1 0 0 -1 0 0 -1 0 0 -1 0 0 -1 0 0 -1 0 0 -1 0 0 -1 0 0 -1 0 0 -1 0 0 -1 0 0 -1 0 0 -1 0 0 -1 0 0 -1 0 0 -1 0 0 -1 0 0 -1 0 0 -1 0 0 -1 0 0 -1 0 0 -1 0 0 -1 0 0 -1 0 0 -1 0 0 -1 0 0 -1 0 0 -1 0 0 -1 0 0 -1 0 0 -1 0 0 -1 0 0 -1 0 0 -1 0 0 -1 0 0 -1 0 0 -1 0 0 -1 0 0 -1 0 0 -1 0 0 -1 0 0 -1 0 0 -1 0 0 -1 0 0 -1 0 0 -1 0 0 -1 0 0 -1 0 0 -1 0 0 -1 0 0 -1 0 0 -1 0 0 -1 0 0 -1 0 0 -1 0 0 -1 0 0 -1 0 0 -1 0 0 -1 0 0 -1 0 0 -1 0 0 -1 0 0 -1 0 0 -1 0 0 -1 0 0 -1 0 0 -1 0 0 -1 0 0 -1 0 0 -1 0 0 -1 -1 2.25199e-18 0 -1 0 0 -0.9238783 -0.3826865 0 -0.9238783 -0.3826865 0 -0.7071068 -0.7071068 0 -0.7071068 -0.7071068 0 -0.3826865 -0.9238783 0 -0.3826865 -0.9238783 0 0 -1 0 0 -1 0 0.3826865 -0.9238783 0 0.3826865 -0.9238783 0 0.7071068 -0.7071068 0 0.7071068 -0.7071068 0 0.9238783 -0.3826865 0 0.9238783 -0.3826865 0 1 0 0 1 0 0 0.9238783 0.3826865 0 0.9238783 0.3826865 0 0.7071068 0.7071068 0 0.7071068 0.7071068 0 0.3826865 0.9238783 0 0.3826865 0.9238783 0 0 1 0 0 1 0 -0.3826865 0.9238783 0 -0.3826865 0.9238783 0 -0.7071068 0.7071068 0 -0.7071068 0.7071068 0 -0.9238783 0.3826865 0 -0.9238783 0.3826865 0 -1 -6.75597e-18 0 -1 0 0 -0.9238783 -0.3826865 0 -0.9238783 -0.3826865 0 -0.7071068 -0.7071068 0 -0.7071068 -0.7071068 0 -0.3826865 -0.9238783 0 -0.3826865 -0.9238783 0 0 -1 0 0 -1 0 0.3826865 -0.9238783 0 0.3826865 -0.9238783 0 0.7071068 -0.7071068 0 0.7071068 -0.7071068 0 0.9238783 -0.3826865 0 0.9238783 -0.3826865 0 1 0 0 1 0 0 0.9238783 0.3826865 0 0.9238783 0.3826865 0 0.7071068 0.7071068 0 0.7071068 0.7071068 0 0.3826865 0.9238783 0 0.3826865 0.9238783 0 0 1 0 0 1 0 -0.3826865 0.9238783 0 -0.3826865 0.9238783 0 -0.7071068 0.7071068 0 -0.7071068 0.7071068 0 -0.9238783 0.3826865 0 -0.9238783 0.3826865 0 -1 2.25199e-18 0 -1 0 0 -0.9238783 -0.3826865 0 -0.9238783 -0.3826865 0 -0.7071068 -0.7071068 0 -0.7071068 -0.7071068 0 -0.3826865 -0.9238783 0 -0.3826865 -0.9238783 0 0 -1 0 0 -1 0 0.3826865 -0.9238783 0 0.3826865 -0.9238783 0 0.7071068 -0.7071068 0 0.7071068 -0.7071068 0 0.9238783 -0.3826865 0 0.9238783 -0.3826865 0 1 0 0 1 0 0 0.9238783 0.3826865 0 0.9238783 0.3826865 0 0.7071068 0.7071068 0 0.7071068 0.7071068 0 0.3826865 0.9238783 0 0.3826865 0.9238783 0 0 1 0 0 1 0 -0.3826865 0.9238783 0 -0.3826865 0.9238783 0 -0.7071068 0.7071068 0 -0.7071068 0.7071068 0 -0.9238783 0.3826865 0 -0.9238783 0.3826865 0 -1 -6.75597e-18 0 -1 0 0 -0.9238783 -0.3826865 0 -0.9238783 -0.3826865 0 -0.7071068 -0.7071068 0 -0.7071068 -0.7071068 0 -0.3826865 -0.9238783 0 -0.3826865 -0.9238783 0 0 -1 0 0 -1 0 0.3826865 -0.9238783 0 0.3826865 -0.9238783 0 0.7071068 -0.7071068 0 0.7071068 -0.7071068 0 0.9238783 -0.3826865 0 0.9238783 -0.3826865 0 1 0 0 1 0 0 0.9238783 0.3826865 0 0.9238783 0.3826865 0 0.7071068 0.7071068 0 0.7071068 0.7071068 0 0.3826865 0.9238783 0 0.3826865 0.9238783 0 0 1 0 0 1 0 -0.3826865 0.9238783 0 -0.3826865 0.9238783 0 -0.7071068 0.7071068 0 -0.7071068 0.7071068 0 -0.9238783 0.3826865 0 -0.9238783 0.3826865 0 -1 1.531353e-16 0 -1 1.441273e-16 0 -0.9238795 -0.3826835 0 -0.9238795 -0.3826835 0 -0.7071068 -0.7071068 0 -0.7071068 -0.7071068 0 -0.3826835 -0.9238795 0 -0.3826835 -0.9238795 0 9.007958e-17 -1 0 9.007958e-17 -1 0 0.3826835 -0.9238795 0 0.3826835 -0.9238795 0 0.7071068 -0.7071068 0 0.7071068 -0.7071068 0 0.9238795 -0.3826835 0 0.9238795 -0.3826835 0 1 -9.007958e-17 0 1 -9.007958e-17 0 0.9238795 0.3826835 0 0.9238795 0.3826835 0 0.7071068 0.7071068 0 0.7071068 0.7071068 0 0.3826835 0.9238795 0 0.3826835 0.9238795 0 9.007958e-17 1 0 9.007958e-17 1 0 -0.3826835 0.9238795 0 -0.3826835 0.9238795 0 -0.7071068 0.7071068 0 -0.7071068 0.7071068 0 -0.9238795 0.3826835 0 -0.9238795 0.3826835 0</float_array>
          <technique_common>
            <accessor count="438" source="#normals-array-array" stride="3">
              <param type="float" name="X"/>
              <param type="float" name="Y"/>
              <param type="float" name="Z"/>
            </accessor>
          </technique_common>
        </source>
        <vertices id="verts-array-vertices">
          <input semantic="POSITION" source="#verts-array"/>
        </vertices>
        <triangles count="456" material="material0">
          <input offset="0" semantic="VERTEX" source="#verts-array-vertices"/>
          <input offset="1" semantic="NORMAL" source="#normals-array"/>
          <p>0 0 1 1 2 2 3 3 2 2 1 1 2 2 3 3 4 4 5 5 4 4 3 3 4 4 5 5 6 6 7 7 6 6 5 5 8 8 9 9 10 10 11 11 10 10 9 9 10 10 11 11 12 12 13 13 12 12 11 11 14 14 15 15 16 16 2 2 9 9 0 0 8 8 0 0 9 9 0 0 8 8 17 17 18 18 17 17 8 8 17 17 18 18 19 19 20 20 19 19 18 18 19 19 20 20 21 21 22 22 21 21 20 20 21 21 22 22 23 23 23 23 22 22 24 24 25 25 24 24 22 22 24 24 25 25 26 26 5 5 27 27 7 7 28 28 7 7 27 27 7 7 28 28 29 29 13 13 30 30 12 12 31 31 12 12 30 30 12 12 31 31 32 32 33 33 32 32 31 31 32 32 33 33 34 34 34 34 35 35 32 32 36 36 32 32 35 35 32 32 36 36 16 16 37 37 16 16 36 36 16 16 37 37 14 14 38 38 16 16 29 29 15 15 29 29 16 16 29 29 15 15 7 7 26 26 25 25 39 39 40 40 39 39 25 25 39 39 40 40 41 41 42 42 41 41 40 40 41 41 42 42 38 38 43 43 38 38 42 42 38 38 43 43 16 16 44 44 45 45 46 46 46 46 45 45 47 47 48 48 49 49 32 32 50 50 32 32 49 49 32 32 50 50 51 51 44 44 46 46 52 52 53 53 52 52 46 46 52 52 53 53 54 54 12 12 54 54 53 53 54 54 12 12 55 55 45 45 56 56 47 47 57 57 47 47 56 56 47 47 57 57 58 58 59 59 58 58 57 57 58 58 59 59 60 60 61 61 60 60 59 59 60 60 61 61 62 62 48 48 62 62 61 61 62 62 48 48 63 63 32 32 63 63 48 48 51 51 64 64 32 32 65 65 32 32 64 64 32 32 65 65 12 12 66 66 12 12 65 65 12 12 66 66 55 55 67 67 68 68 69 69 69 69 68 68 70 70 63 63 70 70 68 68 70 70 63 63 71 71 72 72 73 73 32 32 74 74 32 32 73 73 32 32 74 74 63 63 75 75 63 63 74 74 63 63 75 75 71 71 69 69 76 76 67 67 77 77 67 67 76 76 67 67 77 77 78 78 79 79 78 78 77 77 78 78 79 79 80 80 81 81 80 80 79 79 80 80 81 81 82 82 83 83 82 82 81 81 82 82 83 83 84 84 84 84 85 85 82 82 86 86 82 82 85 85 82 82 86 86 32 32 87 87 32 32 86 86 32 32 87 87 72 72 88 88 89 89 16 16 90 90 16 16 89 89 16 16 90 90 32 32 91 91 32 32 90 90 32 32 91 91 92 92 92 92 93 93 32 32 94 94 32 32 93 93 32 32 94 94 82 82 95 95 82 82 94 94 82 82 95 95 96 96 97 97 96 96 95 95 96 96 97 97 98 98 99 99 98 98 97 97 98 98 99 99 100 100 101 101 100 100 99 99 100 100 101 101 102 102 103 103 102 102 101 101 102 102 103 103 104 104 103 103 105 105 104 104 106 106 104 104 105 105 104 104 106 106 107 107 108 108 107 107 106 106 107 107 108 108 16 16 109 109 16 16 108 108 16 16 109 109 88 88 110 110 111 111 112 112 112 112 111 111 113 113 112 112 114 114 110 110 115 115 110 110 114 114 110 110 115 115 116 116 117 117 116 116 115 115 116 116 117 117 118 118 119 119 118 118 117 117 118 118 119 119 120 120 121 121 120 120 119 119 120 120 121 121 122 122 123 123 122 122 121 121 122 122 123 123 124 124 124 124 123 123 125 125 126 126 125 125 123 123 125 125 126 126 127 127 126 126 128 128 127 127 129 129 127 127 128 128 127 127 129 129 130 130 131 131 130 130 129 129 130 130 131 131 132 132 133 133 132 132 131 131 132 132 133 133 134 134 134 134 133 133 135 135 136 136 135 135 133 133 135 135 136 136 137 137 136 136 138 138 137 137 139 139 137 137 138 138 137 137 139 139 140 140 141 141 140 140 139 139 140 140 141 141 142 142 143 143 142 142 141 141 142 142 143 143 144 144 145 145 144 144 143 143 144 144 145 145 146 146 147 147 146 146 145 145 146 146 147 147 148 148 148 148 147 147 149 149 150 150 149 149 147 147 149 149 150 150 151 151 111 111 152 152 113 113 153 153 113 113 152 152 113 113 153 153 154 154 155 155 154 154 153 153 154 154 155 155 156 156 157 157 156 156 155 155 156 156 157 157 158 158 159 159 158 158 157 157 158 158 159 159 160 160 161 161 160 160 159 159 160 160 161 161 162 162 163 163 162 162 161 161 162 162 163 163 164 164 165 165 164 164 163 163 164 164 165 165 166 166 151 151 166 166 165 165 166 166 151 151 167 167 150 150 167 167 151 151 168 168 169 169 170 170 170 170 169 169 171 171 172 172 173 173 174 174 173 173 175 175 174 174 176 176 174 174 175 175 174 174 176 176 177 177 178 178 177 177 176 176 177 177 178 178 179 179 180 180 181 181 182 182 183 183 182 182 181 181 182 182 183 183 184 184 185 185 184 184 183 183 184 184 185 185 186 186 187 187 186 186 185 185 180 180 172 172 181 181 174 174 181 181 172 172 181 181 174 174 188 188 189 189 188 188 174 174 188 188 189 189 190 190 191 191 190 190 189 189 190 190 191 191 192 192 193 193 192 192 191 191 192 192 193 193 194 194 171 171 194 194 193 193 194 194 171 171 195 195 169 169 195 195 171 171 196 196 197 197 187 187 198 198 187 187 197 197 187 187 198 198 186 186 199 199 200 200 201 201 177 177 201 201 200 200 201 201 177 177 202 202 179 179 202 202 177 177 196 196 203 203 197 197 200 200 197 197 203 203 197 197 200 200 204 204 199 199 204 204 200 200 168 168 170 170 205 205 206 206 205 205 170 170 205 205 206 206 207 207 208 208 207 207 206 206 207 207 208 208 209 209 210 210 209 209 208 208 209 209 210 210 203 203 211 211 203 203 210 210 203 203 211 211 200 200 212 212 213 213 214 214 215 215 216 216 177 177 174 174 217 217 218 218 219 219 220 220 221 221 222 222 221 221 220 220 221 221 222 222 223 223 214 214 213 213 177 177 224 224 177 177 213 213 177 177 224 224 215 215 174 174 218 218 225 225 226 226 225 225 218 218 225 225 226 226 219 219 227 227 219 219 226 226 219 219 227 227 220 220 222 222 228 228 223 223 229 229 223 223 228 228 223 223 229 229 230 230 212 212 230 230 229 229 230 230 212 212 231 231 214 214 231 231 212 212 216 216 232 232 177 177 233 233 177 177 232 232 177 177 233 233 174 174 234 234 174 174 233 233 174 174 234 234 217 217 235 235 236 236 237 237 237 237 236 236 238 238 239 239 238 238 236 236 238 238 239 239 240 240 214 214 240 240 239 239 240 240 214 214 241 241 242 242 243 243 177 177 244 244 177 177 243 243 177 177 244 244 214 214 245 245 214 214 244 244 214 214 245 245 241 241 237 237 246 246 235 235 247 247 235 235 246 246 235 235 247 247 248 248 249 249 248 248 247 247 248 248 249 249 250 250 251 251 250 250 249 249 250 250 251 251 252 252 252 252 253 253 250 250 254 254 250 250 253 253 250 250 254 254 177 177 255 255 177 177 254 254 177 177 255 255 242 242 256 256 257 257 177 177 258 258 177 177 257 257 177 177 258 258 250 250 259 259 250 250 258 258 260 260 261 261 262 262 263 263 264 264 200 200 265 265 200 200 264 264 200 200 265 265 177 177 266 266 177 177 265 265 177 177 266 266 256 256 262 262 261 261 267 267 268 268 267 267 261 261 267 267 268 268 259 259 269 269 259 259 268 268 259 259 269 269 250 250 262 262 270 270 260 260 271 271 260 260 270 270 260 260 271 271 272 272 271 271 273 273 272 272 274 274 272 272 273 273 272 272 274 274 275 275 276 276 275 275 274 274 275 275 276 276 200 200 277 277 200 200 276 276 200 200 277 277 263 263 278 278 279 279 280 280 281 281 280 280 279 279 280 280 281 281 282 282 283 283 282 282 281 281 282 282 283 283 284 284 285 285 284 284 283 283 284 284 285 285 286 286 287 287 286 286 285 285 286 286 287 287 288 288 289 289 288 288 287 287 288 288 289 289 290 290 291 291 290 290 289 289 290 290 291 291 292 292 293 293 292 292 291 291 292 292 293 293 294 294 295 295 294 294 293 293 294 294 295 295 296 296 297 297 296 296 295 295 296 296 297 297 298 298 299 299 298 298 297 297 298 298 299 299 300 300 301 301 300 300 299 299 300 300 301 301 302 302 303 303 302 302 301 301 302 302 303 303 304 304 305 305 304 304 303 303 304 304 305 305 306 306 307 307 306 306 305 305 306 306 307 307 308 308 309 309 308 308 307 307 308 308 309 309 278 278 279 279 278 278 309 309 310 310 311 311 312 312 313 313 312 312 311 311 312 312 313 313 314 314 315 315 314 314 313 313 314 314 315 315 316 316 317 317 316 316 315 315 316 316 317 317 318 318 319 319 318 318 317 317 318 318 319 319 320 320 321 321 320 320 319 319 320 320 321 321 322 322 323 323 322 322 321 321 322 322 323 323 324 324 325 325 324 324 323 323 324 324 325 325 326 326 327 327 326 326 325 325 326 326 327 327 328 328 329 329 328 328 327 327 328 328 329 329 330 330 331 331 330 330 329 329 330 330 331 331 332 332 333 333 332 332 331 331 332 332 333 333 334 334 335 335 334 334 333 333 334 334 335 335 336 336 337 337 336 336 335 335 336 336 337 337 338 338 339 339 338 338 337 337 338 338 339 339 340 340 341 341 340 340 339 339 340 340 341 341 310 310 311 311 310 310 341 341 342 342 343 343 344 344 345 345 344 344 343 343 344 344 345 345 346 346 347 347 346 346 345 345 346 346 347 347 348 348 349 349 348 348 347 347 348 348 349 349 350 350 351 351 350 350 349 349 350 350 351 351 352 352 353 353 352 352 351 351 352 352 353 353 354 354 355 355 354 354 353 353 354 354 355 355 356 356 357 357 356 356 355 355 356 356 357 357 358 358 359 359 358 358 357 357 358 358 359 359 360 360 361 361 360 360 359 359 360 360 361 361 362 362 363 363 362 362 361 361 362 362 363 363 364 364 365 365 364 364 363 363 364 364 365 365 366 366 367 367 366 366 365 365 366 366 367 367 368 368 369 369 368 368 367 367 368 368 369 369 370 370 371 371 370 370 369 369 370 370 371 371 372 372 373 373 372 372 371 371 372 372 373 373 342 342 343 343 342 342 373 373 374 374 375 375 376 376 377 377 376 376 375 375 376 376 377 377 378 378 379 379 378 378 377 377 378 378 379 379 380 380 381 381 380 380 379 379 380 380 381 381 382 382 383 383 382 382 381 381 382 382 383 383 384 384 385 385 384 384 383 383 384 384 385 385 386 386 387 387 386 386 385 385 386 386 387 387 388 388 389 389 388 388 387 387 388 388 389 389 390 390 391 391 390 390 389 389 390 390 391 391 392 392 393 393 392 392 391 391 392 392 393 393 394 394 395 395 394 394 393 393 394 394 395 395 396 396 397 397 396 396 395 395 396 396 397 397 398 398 399 399 398 398 397 397 398 398 399 399 400 400 401 401 400 400 399 399 400 400 401 401 402 402 403 403 402 402 401 401 402 402 403 403 404 404 405 405 404 404 403 403 404 404 405 405 374 374 375 375 374 374 405 405 406 406 407 407 408 408 409 409 408 408 407 407 408 408 409 409 410 410 411 411 410 410 409 409 410 410 411 411 412 412 413 413 412 412 411 411 412 412 413 413 414 414 415 415 414 414 413 413 414 414 415 415 416 416 417 417 416 416 415 415 416 416 417 417 418 418 419 419 418 418 417 417 418 418 419 419 420 420 421 421 420 420 419 419 420 420 421 421 422 422 423 423 422 422 421 421 422 422 423 423 424 424 425 425 424 424 423 423 424 424 425 425 426 426 427 427 426 426 425 425 426 426 427 427 428 428 429 429 428 428 427 427 428 428 429 429 430 430 431 431 430 430 429 429 430 430 431 431 432 432 433 433 432 432 431 431 432 432 433 433 434 434 435 435 434 434 433 433 434 434 435 435 436 436 437 437 436 436 435 435 436 436 437 437 406 406 407 407 406 406 437 437</p>
        </triangles>
      </mesh>
    </geometry>
  </library_geometries>
  <library_materials>
    <material id="a028fb2c891746bdba00a1dc08fbfc3d" name="defaultmaterial">
      <instance_effect url="#fa296d57621044199ba57f7afde246ab"/>
    </material>
  </library_materials>
  <library_visual_scenes>
    <visual_scene id="scene">
      <node id="node0" name="node0">
        <instance_geometry url="#3ef1db09295e455a90cee920b5816d43">
          <bind_material>
            <technique_common>
              <instance_material symbol="material0" target="#a028fb2c891746bdba00a1dc08fbfc3d"/>
            </technique_common>
          </bind_material>
        </instance_geometry>
      </node>
    </visual_scene>
  </library_visual_scenes>
  <scene>
    <instance_visual_scene url="#scene"/>
  </scene>
</COLLADA>
