<COLLADA xmlns="http://www.collada.org/2005/11/COLLADASchema" version="1.4.1">
  <asset>
    <created>2026-10-05T20:05:23.455392</created>
    <modified>2026-10-05T20:05:23.455392</modified>
    <up_axis>Y_UP</up_axis>
  </asset>
  <library_effects>
    <effect id="b3e9c34bf88c47338d7a942b5e438a88" name="b3e9c34bf88c47338d7a942b5e438a88">
      <profile_COMMON>
        <technique sid="common">
          <phong>
            <emission>
              <color>0.0 0.0 0.0 1.0</color>
            </emission>
            <ambient>
              <color>0.0 0.0 0.0 1.0</color>
            </ambient>
            <diffuse>
              <color>0.3058823529411765 0.3176470588235294 0.32941176470588235 1.0</color>
            </diffuse>
            <specular>
              <color>0.0 0.0 0.0 1.0</color>
            </specular>
            <shininess>
              <float>0.0</float>
            </shininess>
            <reflective>
              <color>0.0 0.0 0.0 1.0</color>
            </reflective>
            <reflectivity>
              <float>0.0</float>
            </reflectivity>
            <transparent>
              <color>0.0 0.0 0.0 1.0</color>
            </transparent>
            <transparency>
              <float>1.0</float>
            </transparency>
          </phong>
        </technique>
        <extra>
          <technique profile="GOOGLEEARTH">
            <double_sided>0</double_sided>
          </technique>
        </extra>
      </profile_COMMON>
    </effect>
    <effect id="5071a5a2640049e1b2ad3e60628e3084" name="5071a5a2640049e1b2ad3e60628e3084">
      <profile_COMMON>
        <technique sid="common">
          <phong>
            <emission>
              <color>0.0 0.0 0.0 1.0</color>
            </emission>
            <ambient>
              <color>0.0 0.0 0.0 1.0</color>
            </ambient>
            <diffuse>
              <color>0.792156862745098 0.8196078431372549 0.9333333333333333 1.0</color>
            </diffuse>
            <specular>
              <color>0.0 0.0 0.0 1.0</color>
            </specular>
            <shininess>
              <float>0.0</float>
            </shininess>
            <reflective>
              <color>0.0 0.0 0.0 1.0</color>
            </reflective>
            <reflectivity>
              <float>0.0</float>
            </reflectivity>
            <transparent>
              <color>0.0 0.0 0.0 1.0</color>
            </transparent>
            <transparency>
              <float>1.0</float>
            </transparency>
          </phong>
        </technique>
        <extra>
          <technique profile="GOOGLEEARTH">
            <double_sided>0</double_sided>
          </technique>
        </extra>
      </profile_COMMON>
    </effect>
    <effect id="405d59619fd54c5cbc827aefa9269503" name="405d59619fd54c5cbc827aefa9269503">
      <profile_COMMON>
        <technique sid="common">
          <phong>
            <emission>
              <color>0.0 0.0 0.0 1.0</color>
            </emission>
            <ambient>
              <color>0.0 0.0 0.0 1.0</color>
            </ambient>
            <diffuse>
              <color>0.8 0.8117647058823529 0.8274509803921568 1.0</color>
            </diffuse>
            <specular>
              <color>0.0 0.0 0.0 1.0</color>
            </specular>
            <shininess>
              <float>0.0</float>
            </shininess>
            <reflective>
              <color>0.0 0.0 0.0 1.0</color>
            </reflective>
            <reflectivity>
              <float>0.0</float>
            </reflectivity>
            <transparent>
              <color>0.0 0.0 0.0 1.0</color>
            </transparent>
            <transparency>
              <float>1.0</float>
            </transparency>
          </phong>
        </technique>
        <extra>
          <technique profile="GOOGLEEARTH">
            <double_sided>0</double_sided>
          </technique>
        </extra>
      </profile_COMMON>
    </effect>
  </library_effects>
  <library_geometries>
    <geometry id="a2e126e39af34c92ad7a520807e8730a" name="c1cc820d9de64b668be36ba984c3733b">
      <mesh>
        <source id="verts-array">
          <float_array count="270" id="verts-array-array">-9.844972e-13 0.0024 -0.0012 0.0012315 0.00432822 -0.0012 0.0012 0.00207846 -0.0012 0.00271186 0.00359108 -0.0012 0.0020785 0.0012 -0.0012 0.00382598 0.00236894 -0.0012 0.0024 -4.143089e-12 -0.0012 0.0012 -0.00207846 -0.0012 0.0012315 -0.00432822 -0.0012 9.844972e-13 -0.0024 -0.0012 -0.0004152 -0.0044808 -0.0012 -0.0012 -0.00207846 -0.0012 -0.0020785 0.0012 -0.0012 -0.0033255 0.00303163 -0.0012 -0.0012 0.00207846 -0.0012 -0.0020058 0.00402823 -0.0012 -0.0004152 0.0044808 -0.0012 0.00442338 0.000826873 -0.0012 0.00442338 -0.000826873 -0.0012 0.0020785 -0.0012 -0.0012 0.00382598 -0.00236894 -0.0012 0.00271186 -0.00359108 -0.0012 -0.0020058 -0.00402823 -0.0012 -0.0033255 -0.00303163 -0.0012 -0.0020785 -0.0012 -0.0012 -0.0041961 -0.00162559 -0.0012 -0.0024 -6.112084e-12 -0.0012 -0.0045 -6.973515e-12 -0.0012 -0.0041961 0.00162559 -0.0012 0.0012315 0.00432822 -0.0012 0.00271186 0.00359108 0.0003 0.00271186 0.00359108 -0.0012 0.00382598 0.00236894 0.0003 0.00382598 0.00236894 -0.0012 0.00442338 0.000826873 0.0003 0.00442338 0.000826873 -0.0012 0.0045 -3.281655e-12 0.0003 0.00442338 -0.000826873 -0.0012 0.00442338 -0.000826873 0.0003 0.00382598 -0.00236894 0.0003 0.00382598 -0.00236894 -0.0012 0.00271186 -0.00359108 0.0003 0.00271186 -0.00359108 -0.0012 0.0012315 -0.00432822 0.0003 0.0012315 -0.00432822 -0.0012 5.300002e-06 -0.0045 0.0003 -0.0004152 -0.0044808 -0.0012 -0.0004152 -0.0044808 0.0003 -0.0020058 -0.00402823 0.0003 -0.0020058 -0.00402823 -0.0012 -0.0033255 -0.00303163 0.0003 -0.0033255 -0.00303163 -0.0012 -0.0041961 -0.00162559 0.0003 -0.0041961 -0.00162559 -0.0012 -0.0045 -6.973517e-12 0.0003 -0.0045 -6.973515e-12 -0.0012 -0.0041961 0.00162559 0.0003 -0.0041961 0.00162559 -0.0012 -0.0033255 0.00303163 0.0003 -0.0033255 0.00303163 -0.0012 -0.0020058 0.00402823 0.0003 -0.0020058 0.00402823 -0.0012 -0.0004152 0.0044808 0.0003 -0.0004152 0.0044808 -0.0012 5.299998e-06 0.0045 0.0003 0.0012315 0.00432822 0.0003 0.0024 -4.143089e-12 -0.00135 0.0020785 -0.0012 -0.0012 0.0020785 -0.0012 -0.00135 0.0012 -0.00207846 -0.0012 0.0012 -0.00207846 -0.00135 9.844972e-13 -0.0024 -0.0012 9.844972e-13 -0.0024 -0.00135 -0.0012 -0.00207846 -0.0012 -0.0012 -0.00207846 -0.00135 -0.0020785 -0.0012 -0.0012 -0.0020785 -0.0012 -0.00135 -0.0024 -6.112084e-12 -0.0012 -0.0024 -6.112082e-12 -0.00135 -0.0020785 0.0012 -0.0012 -0.0020785 0.0012 -0.00135 -0.0012 0.00207846 -0.0012 -0.0012 0.00207846 -0.00135 -9.844972e-13 0.0024 -0.0012 -9.844972e-13 0.0024 -0.00135 0.0012 0.00207846 -0.0012 0.0012 0.00207846 -0.00135 0.0020785 0.0012 -0.0012 0.0020785 0.0012 -0.00135 0.0024 -4.143089e-12 -0.0012</float_array>
          <technique_common>
            <accessor count="90" source="#verts-array-array" stride="3">
              <param type="float" name="X"/>
              <param type="float" name="Y"/>
              <param type="float" name="Z"/>
            </accessor>
          </technique_common>
        </source>
        <source id="normals-array">
          <float_array count="270" id="normals-array-array">0 0 -1 0 0 -1 0 0 -1 0 0 -1 0 0 -1 0 0 -1 0 0 -1 0 0 -1 0 0 -1 0 0 -1 0 0 -1 0 0 -1 0 0 -1 0 0 -1 0 0 -1 0 0 -1 0 0 -1 0 0 -1 0 0 -1 0 0 -1 0 0 -1 0 0 -1 0 0 -1 0 0 -1 0 0 -1 0 0 -1 0 0 -1 0 0 -1 0 0 -1 0.283524 0.9589021 -0.01099404 0.6026378 0.7980148 0 0.6026378 0.7980148 0 0.850218 0.5264307 0 0.850218 0.5264307 0 0.9734382 0.2289499 0 0.9799779 0.1983279 -0.01758832 0.9998652 4.101513e-10 -0.01642049 0.9799779 -0.1983279 -0.01758832 0.9734382 -0.2289499 0 0.850218 -0.5264307 0 0.850218 -0.5264307 0 0.6026378 -0.7980148 0 0.6026378 -0.7980148 0 0.2960881 -0.9551606 0 0.283524 -0.9589021 -0.01099404 0.04845637 -0.9987551 -0.01184464 -0.1042121 -0.9944231 -0.01620497 -0.1607153 -0.9870008 0 -0.4457416 -0.8951617 0 -0.4457416 -0.8951617 0 -0.7390074 -0.6736973 0 -0.7390074 -0.6736973 0 -0.932468 -0.3612525 0 -0.932468 -0.3612525 -3.221151e-17 -1 -4.102067e-10 3.221162e-17 -1 -4.102064e-10 -3.221162e-17 -0.932468 0.3612525 3.221151e-17 -0.932468 0.3612525 0 -0.7390074 0.6736973 0 -0.7390074 0.6736973 0 -0.4457416 0.8951617 0 -0.4457416 0.8951617 0 -0.1607153 0.9870008 0 -0.1042121 0.9944231 -0.01620497 0.04845637 0.9987551 -0.01184464 0.2960881 0.9551606 0 1 4.102065e-10 -4.015785e-17 0.8660273 -0.4999967 4.015846e-17 0.8660273 -0.4999967 0 0.4999905 -0.8660309 0 0.4999905 -0.8660309 0 4.102071e-10 -1 0 4.102066e-10 -1 0 -0.4999905 -0.8660309 0 -0.4999905 -0.8660309 0 -0.8660273 -0.4999967 0 -0.8660273 -0.4999967 -7.28127e-17 -1 -4.102086e-10 7.281158e-17 -1 -4.102059e-10 -7.281159e-17 -0.8660273 0.4999967 7.28127e-17 -0.8660273 0.4999967 0 -0.4999905 0.8660309 0 -0.4999905 0.8660309 0 -4.102071e-10 1 0 -4.102066e-10 1 0 0.4999905 0.8660309 0 0.4999905 0.8660309 0 0.8660273 0.4999967 0 0.8660273 0.4999967 -4.015846e-17 1 4.102081e-10 4.015785e-17</float_array>
          <technique_common>
            <accessor count="90" source="#normals-array-array" stride="3">
              <param type="float" name="X"/>
              <param type="float" name="Y"/>
              <param type="float" name="Z"/>
            </accessor>
          </technique_common>
        </source>
        <vertices id="verts-array-vertices">
          <input semantic="POSITION" source="#verts-array"/>
        </vertices>
        <triangles count="90" material="material0">
          <input offset="0" semantic="VERTEX" source="#verts-array-vertices"/>
          <input offset="1" semantic="NORMAL" source="#normals-array"/>
          <p>0 0 1 1 2 2 3 3 2 2 1 1 2 2 3 3 4 4 5 5 4 4 3 3 4 4 5 5 6 6 7 7 8 8 9 9 10 10 9 9 8 8 9 9 10 10 11 11 12 12 13 13 14 14 15 15 14 14 13 13 14 14 15 15 0 0 16 16 0 0 15 15 0 0 16 16 1 1 5 5 17 17 6 6 18 18 6 6 17 17 6 6 18 18 19 19 20 20 19 19 18 18 19 19 20 20 7 7 21 21 7 7 20 20 7 7 21 21 8 8 10 10 22 22 11 11 23 23 11 11 22 22 11 11 23 23 24 24 25 25 24 24 23 23 24 24 25 25 26 26 27 27 26 26 25 25 26 26 27 27 12 12 28 28 12 12 27 27 12 12 28 28 13 13 29 29 30 30 31 31 32 32 31 31 30 30 31 31 32 32 33 33 34 34 33 33 32 32 33 33 34 34 35 35 36 36 35 35 34 34 35 35 36 36 37 37 36 36 38 38 37 37 39 39 37 37 38 38 37 37 39 39 40 40 41 41 40 40 39 39 40 40 41 41 42 42 43 43 42 42 41 41 42 42 43 43 44 44 45 45 44 44 43 43 44 44 45 45 46 46 45 45 47 47 46 46 48 48 46 46 47 47 46 46 48 48 49 49 50 50 49 49 48 48 49 49 50 50 51 51 52 52 51 51 50 50 51 51 52 52 53 53 54 54 53 53 52 52 53 53 54 54 55 55 56 56 55 55 54 54 55 55 56 56 57 57 58 58 57 57 56 56 57 57 58 58 59 59 60 60 59 59 58 58 59 59 60 60 61 61 62 62 61 61 60 60 61 61 62 62 63 63 64 64 63 63 62 62 63 63 64 64 29 29 65 65 29 29 64 64 29 29 65 65 30 30 66 66 67 67 68 68 69 69 68 68 67 67 68 68 69 69 70 70 71 71 70 70 69 69 70 70 71 71 72 72 73 73 72 72 71 71 72 72 73 73 74 74 75 75 74 74 73 73 74 74 75 75 76 76 77 77 76 76 75 75 76 76 77 77 78 78 79 79 78 78 77 77 78 78 79 79 80 80 81 81 80 80 79 79 80 80 81 81 82 82 83 83 82 82 81 81 82 82 83 83 84 84 85 85 84 84 83 83 84 84 85 85 86 86 87 87 86 86 85 85 86 86 87 87 88 88 89 89 88 88 87 87 88 88 89 89 66 66 67 67 66 66 89 89</p>
        </triangles>
      </mesh>
    </geometry>
    <geometry id="ab01679f42db48fc8861a409df555829" name="6bb8270cc13c46d7b0e6be9fae8aa5d0">
      <mesh>
        <source id="verts-array">
          <float_array count="39" id="verts-array-array">-0.0012 -0.00207846 -0.00135 -0.0020785 -0.0012 -0.00135 0 -5.127586e-12 -0.00135 -0.0024 -6.112082e-12 -0.00135 -0.0020785 0.0012 -0.00135 0.0020785 -0.0012 -0.00135 0.0012 -0.00207846 -0.00135 9.844972e-13 -0.0024 -0.00135 0.0012 0.00207846 -0.00135 0.0020785 0.0012 -0.00135 0.0024 -4.143089e-12 -0.00135 -0.0012 0.00207846 -0.00135 -9.844972e-13 0.0024 -0.00135</float_array>
          <technique_common>
            <accessor count="13" source="#verts-array-array" stride="3">
              <param type="float" name="X"/>
              <param type="float" name="Y"/>
              <param type="float" name="Z"/>
            </accessor>
          </technique_common>
        </source>
        <source id="normals-array">
          <float_array count="39" id="normals-array-array">0 0 -1 0 0 -1 0 0 -1 0 0 -1 0 0 -1 0 0 -1 0 0 -1 0 0 -1 0 0 -1 0 0 -1 0 0 -1 0 0 -1 0 0 -1</float_array>
          <technique_common>
            <accessor count="13" source="#normals-array-array" stride="3">
              <param type="float" name="X"/>
              <param type="float" name="Y"/>
              <param type="float" name="Z"/>
            </accessor>
          </technique_common>
        </source>
        <vertices id="verts-array-vertices">
          <input semantic="POSITION" source="#verts-array"/>
        </vertices>
        <triangles count="12" material="material1">
          <input offset="0" semantic="VERTEX" source="#verts-array-vertices"/>
          <input offset="1" semantic="NORMAL" source="#normals-array"/>
          <p>0 0 1 1 2 2 3 3 2 2 1 1 2 2 3 3 4 4 5 5 6 6 2 2 7 7 2 2 6 6 2 2 7 7 0 0 8 8 9 9 2 2 10 10 2 2 9 9 2 2 10 10 5 5 4 4 11 11 2 2 12 12 2 2 11 11 2 2 12 12 8 8</p>
        </triangles>
      </mesh>
    </geometry>
    <geometry id="9d4061bf1ac145248df2e22691cd2edd" name="16eccc40445344c8aead5cea60ffb642">
      <mesh>
        <source id="verts-array">
          <float_array count="1533" id="verts-array-array">-0.0025233 0.000918413 0.0033629 -0.0026853 -6.229114e-12 0.0033629 -0.0025863 -6.188504e-12 0.0038479 -0.0023984 0.000872943 0.0039199 -0.0025523 -6.174557e-12 0.0039199 -0.0022895 -6.066754e-12 0.0041842 -0.0021514 0.000783041 0.0041842 -0.0022537 -6.052069e-12 0.0042021 0.0003913 0.00221942 0.0042021 -0.0003913 0.00221942 0.0042021 -0.0002952 0.00167417 0.0043 0.0002952 0.00167417 0.0043 0.00045 0.00163936 0.0043 0.0011268 0.00195172 0.0042021 0.00085 0.00147224 0.0043 0.0017264 0.00144862 0.0042021 0.0013023 0.00109274 0.0043 0.0021177 0.000770795 0.0042021 0.0015975 0.000581434 0.0043 0.0016394 0.00045 0.0043 -0.0021177 0.000770795 0.0042021 -0.0017 -5.824938e-12 0.0043 -0.0016394 0.00045 0.0043 -0.0015975 0.000581434 0.0043 -0.0017264 0.00144862 0.0042021 -0.0013023 0.00109274 0.0043 -0.0011268 0.00195172 0.0042021 -0.00085 0.00147224 0.0043 -0.00045 0.00163936 0.0043 0.0022895 -4.188416e-12 0.0041842 0.0022537 -4.203101e-12 0.0042021 0.0017 -4.430234e-12 0.0043 -0.0017538 0.00147164 0.0041842 -0.0011447 0.00198273 0.0041842 -0.0003976 0.00225468 0.0041842 0.0003976 0.00225468 0.0041842 0.0011447 0.00198273 0.0041842 0.0017538 0.00147164 0.0041842 0.0021514 0.000783041 0.0041842 0.00255231 -4.080609e-12 0.0039199 -0.0019552 0.0016406 0.0039199 -0.0012762 0.00221037 0.0039199 -0.0004432 0.00251354 0.0039199 0.0004432 0.00251354 0.0039199 0.0012762 0.00221037 0.0039199 0.0019552 0.0016406 0.0039199 0.0023984 0.000872943 0.0039199 0.00258632 -4.066658e-12 0.0038479 -0.0024303 0.000884572 0.0038479 -0.0019812 0.00166245 0.0038479 -0.0012932 0.00223982 0.0038479 -0.0004491 0.00254702 0.0038479 0.0004491 0.00254702 0.0038479 0.0012932 0.00223982 0.0038479 0.0019812 0.00166245 0.0038479 0.0024303 0.000884572 0.0038479 0.00268526 -4.026072e-12 0.0033629 0.00252332 0.000918413 0.0033629 0.002057 0.00172605 0.0033629 0.0013426 0.0023255 0.0033629 0.0004663 0.00264446 0.0033629 -0.0004663 0.00264446 0.0033629 -0.0013426 0.0023255 0.0033629 -0.002057 0.00172605 0.0033629 -0.0027 -6.235145e-12 0.0028 -0.0025372 0.000923454 0.0028 -0.0020683 0.00173553 0.0028 -0.00135 0.00233827 0.0028 -0.0004689 0.00265898 0.0028 0.0004689 0.00265898 0.0028 0.00135 0.00233827 0.0028 0.0020683 0.00173553 0.0028 0.00253717 0.000923454 0.0028 0.0027 -4.020027e-12 0.0028 -0.00045 0.00045 0.0043 0.0015975 -0.000581434 0.0043 0.0016394 -0.00045 0.0043 0.00045 -0.00045 0.0043 0.0013023 -0.00109274 0.0043 0.00085 -0.00147224 0.0043 0.00045 -0.00163936 0.0043 0.0002952 -0.00167417 0.0043 -0.0002952 -0.00167417 0.0043 -0.00045 -0.00163936 0.0043 0.00045 -0.00163936 0.0043 0.00045 -0.00045 0.0043 0.00045 -0.00163936 0.0039 0.00045 -0.00045 0.0027106 0.0016394 -0.00045 0.0043 0.0016394 0.00045 0.0043 0.0016394 -0.00045 0.0039 0.0016394 0.00045 0.0039 0.0016394 -0.00045 0.0043 0.0016394 -0.00045 0.0039 0.00045 -0.00045 0.0043 0.00045 -0.00045 0.0027106 -0.0004394 -0.00043936 0.0027 0.0004394 -0.00043936 0.0027 -0.0004394 0.00043936 0.0027 0.0004394 0.00043936 0.0027 -0.0039922 -0.00575323 0.0003 -0.0036997 -0.00494975 0.0003 5.300002e-06 -0.0045 0.0003 0.0012315 0.00432822 0.0003 5.299998e-06 0.0045 0.0003 -3.700004e-06 0.01 0.0003 0.00516681 0.00371874 0.0003 0.0059073 0.00414626 0.0003 0.01 -1.025517e-12 0.0003 0.00968583 0.0024869 0.0003 0.00619975 0.00494975 0.0003 0.00876307 0.00481754 0.0003 0.00728969 0.00684547 0.0003 0.0059073 0.00575323 0.0003 0.00535827 0.00844328 0.0003 0.00516681 0.00618076 0.0003 0.00309017 0.00951057 0.0003 0.00432475 0.00603228 0.0003 0.0006279 0.00998027 0.0003 0.00377513 0.00537727 0.0003 0.00377513 0.00452222 0.0003 -0.0036997 0.00494975 0.0003 -0.0039922 0.00575323 0.0003 -0.0018738 0.00982287 0.0003 -0.0047327 0.00618076 0.0003 -0.0041961 0.00162559 0.0003 -0.0045 -6.973517e-12 0.0003 -0.01 -9.229655e-12 0.0003 -0.0004152 0.0044808 0.0003 -0.0020058 0.00402823 0.0003 -0.0039922 0.00414626 0.0003 -0.0033255 0.00303163 0.0003 -0.0047327 0.00371874 0.0003 -0.0055747 0.00386722 0.0003 -0.0099211 0.00125333 0.0003 -0.0061244 0.00452222 0.0003 -0.0092978 0.00368125 0.0003 -0.0061244 0.00537727 0.0003 -0.0080902 0.00587785 0.0003 -0.0055747 0.00603228 0.0003 -0.0063742 0.00770513 0.0003 -0.0042578 0.00904827 0.0003 -0.0004152 -0.0044808 0.0003 -0.0041961 -0.00162559 0.0003 -0.0047327 -0.00371874 0.0003 -0.0055747 -0.00386722 0.0003 -0.0039922 -0.00414626 0.0003 -0.0033255 -0.00303163 0.0003 -0.0020058 -0.00402823 0.0003 -0.0099211 -0.00125333 0.0003 -0.0061244 -0.00452222 0.0003 -0.0092978 -0.00368125 0.0003 0.0059073 -0.00414626 0.0003 0.00516681 -0.00371874 0.0003 0.0045 -3.281655e-12 0.0003 -0.0080902 -0.00587785 0.0003 -0.0061244 -0.00537727 0.0003 -0.0063742 -0.00770513 0.0003 -0.0055747 -0.00603228 0.0003 -0.0042578 -0.00904827 0.0003 -0.0047327 -0.00618076 0.0003 -0.0018738 -0.00982287 0.0003 -3.699996e-06 -0.01 0.0003 0.0012315 -0.00432822 0.0003 0.0006279 -0.00998027 0.0003 0.00377513 -0.00537727 0.0003 0.00309017 -0.00951057 0.0003 0.00432475 -0.00603228 0.0003 0.00535827 -0.00844328 0.0003 0.00516681 -0.00618076 0.0003 0.00728969 -0.00684547 0.0003 0.0059073 -0.00575323 0.0003 0.00876307 -0.00481754 0.0003 0.00619975 -0.00494975 0.0003 0.00968583 -0.0024869 0.0003 0.00442338 0.000826873 0.0003 0.00432475 0.00386722 0.0003 0.00382598 0.00236894 0.0003 0.00271186 0.00359108 0.0003 0.00377513 -0.00452222 0.0003 0.00271186 -0.00359108 0.0003 0.00432475 -0.00386722 0.0003 0.00382598 -0.00236894 0.0003 0.00442338 -0.000826873 0.0003 -0.0036997 0.00494975 0.0028 -0.0036997 0.00494975 0.0003 -0.0039922 0.00414626 0.0028 -0.0039922 0.00414626 0.0003 -0.0047327 0.00371874 0.0028 -0.0047327 0.00371874 0.0003 -0.0055747 0.00386722 0.0028 -0.0055747 0.00386722 0.0003 -0.0061244 0.00452222 0.0028 -0.0061244 0.00452222 0.0003 -0.0061244 0.00537727 0.0028 -0.0061244 0.00537727 0.0003 -0.0055747 0.00603228 0.0028 -0.0055747 0.00603228 0.0003 -0.0047327 0.00618076 0.0028 -0.0047327 0.00618076 0.0003 -0.0039922 0.00575323 0.0028 -0.0039922 0.00575323 0.0003 0.00619975 0.00494975 0.0028 0.00619975 0.00494975 0.0003 0.0059073 0.00414626 0.0028 0.0059073 0.00414626 0.0003 0.00516681 0.00371874 0.0028 0.00516681 0.00371874 0.0003 0.00432475 0.00386722 0.0028 0.00432475 0.00386722 0.0003 0.00377513 0.00452222 0.0028 0.00377513 0.00452222 0.0003 0.00377513 0.00537727 0.0028 0.00377513 0.00537727 0.0003 0.00432475 0.00603228 0.0028 0.00432475 0.00603228 0.0003 0.00516681 0.00618076 0.0028 0.00516681 0.00618076 0.0003 0.0059073 0.00575323 0.0028 0.0059073 0.00575323 0.0003 0.00619975 -0.00494975 0.0028 0.00619975 -0.00494975 0.0003 0.0059073 -0.00575323 0.0028 0.0059073 -0.00575323 0.0003 0.00516681 -0.00618076 0.0028 0.00516681 -0.00618076 0.0003 0.00432475 -0.00603228 0.0028 0.00432475 -0.00603228 0.0003 0.00377513 -0.00537727 0.0028 0.00377513 -0.00537727 0.0003 0.00377513 -0.00452222 0.0028 0.00377513 -0.00452222 0.0003 0.00432475 -0.00386722 0.0028 0.00432475 -0.00386722 0.0003 0.00516681 -0.00371874 0.0028 0.00516681 -0.00371874 0.0003 0.0059073 -0.00414626 0.0028 0.0059073 -0.00414626 0.0003 -0.0036997 -0.00494975 0.0028 -0.0036997 -0.00494975 0.0003 -0.0039922 -0.00575323 0.0028 -0.0039922 -0.00575323 0.0003 -0.0047327 -0.00618076 0.0028 -0.0047327 -0.00618076 0.0003 -0.0055747 -0.00603228 0.0028 -0.0055747 -0.00603228 0.0003 -0.0061244 -0.00537727 0.0028 -0.0061244 -0.00537727 0.0003 -0.0061244 -0.00452222 0.0028 -0.0061244 -0.00452222 0.0003 -0.0055747 -0.00386722 0.0028 -0.0055747 -0.00386722 0.0003 -0.0047327 -0.00371874 0.0028 -0.0047327 -0.00371874 0.0003 -0.0039922 -0.00414626 0.0028 -0.0039922 -0.00414626 0.0003 0.00946292 0.00323312 0.0028 0.00968583 0.0024869 0.0003 0.00876307 0.00481754 0.0003 0.00876307 0.00481754 0.0028 0.00728969 0.00684547 0.0003 0.00728969 0.00684547 0.0028 0.00535827 0.00844328 0.0003 0.00535827 0.00844328 0.0028 0.00320607 0.00947212 0.0028 0.00309017 0.00951057 0.0003 0.00309017 0.00951057 0.0028 0.0006279 0.00998027 0.0003 0.0006279 0.00998027 0.0028 -3.700004e-06 0.01 0.0003 -0.0018738 0.00982287 0.0028 -0.0018738 0.00982287 0.0003 -0.0042578 0.00904827 0.0003 -0.0042578 0.00904827 0.0028 -0.0063742 0.00770513 0.0003 -0.0063742 0.00770513 0.0028 -0.0080902 0.00587785 0.0003 -0.0080902 0.00587785 0.0028 -0.0092978 0.00368125 0.0003 -0.0092978 0.00368125 0.0028 -0.0094672 0.00322061 0.0028 -0.0099211 0.00125333 0.0003 -0.0099211 0.00125333 0.0028 -0.01 -9.229655e-12 0.0003 -0.0099211 -0.00125333 0.0028 -0.0099211 -0.00125333 0.0003 -0.0092978 -0.00368125 0.0003 -0.0092978 -0.00368125 0.0028 -0.0080902 -0.00587785 0.0003 -0.0080902 -0.00587785 0.0028 -0.0063742 -0.00770513 0.0003 -0.0063742 -0.00770513 0.0028 -0.0042578 -0.00904827 0.0003 -0.0042578 -0.00904827 0.0028 -0.0018738 -0.00982287 0.0003 -0.0018738 -0.00982287 0.0028 -3.699996e-06 -0.01 0.0003 0.0006279 -0.00998027 0.0028 0.0006279 -0.00998027 0.0003 0.00309017 -0.00951057 0.0003 0.00968583 0.0024869 0.0028 0.01 -1.025514e-12 0.0028 0.01 -1.025517e-12 0.0003 0.00968583 -0.0024869 0.0028 0.00968583 -0.0024869 0.0003 0.00876307 -0.00481754 0.0028 0.00876307 -0.00481754 0.0003 0.00728969 -0.00684547 0.0028 0.00728969 -0.00684547 0.0003 0.00535827 -0.00844328 0.0028 0.00535827 -0.00844328 0.0003 0.00320607 -0.00947212 0.0028 0.00309017 -0.00951057 0.0028 0.00432475 -0.00603228 0.0028 0.00377513 -0.00537727 0.0028 0.00320607 -0.00947212 0.0028 0.00377513 -0.00452222 0.0028 0.00319987 0.00320829 0.0028 0.00432475 -0.00386722 0.0028 0.00516681 -0.00371874 0.0028 0.00946292 0.00323312 0.0028 0.00619975 -0.00494975 0.0028 0.00968583 -0.0024869 0.0028 0.0059073 -0.00414626 0.0028 0.01 -1.025514e-12 0.0028 0.00968583 0.0024869 0.0028 0.00516681 -0.00618076 0.0028 0.00535827 -0.00844328 0.0028 0.0059073 -0.00575323 0.0028 0.00728969 -0.00684547 0.0028 0.00876307 -0.00481754 0.0028 -0.0055747 -0.00386722 0.0028 -0.0047327 -0.00371874 0.0028 -0.0027 -6.235145e-12 0.0028 -0.0025372 -0.000923454 0.0028 -0.0047327 -0.00618076 0.0028 -0.0055747 -0.00603228 0.0028 -0.0063742 -0.00770513 0.0028 -0.0080902 -0.00587785 0.0028 -0.0061244 -0.00537727 0.0028 -0.0092978 -0.00368125 0.0028 -0.0061244 -0.00452222 0.0028 -0.0099211 -0.00125333 0.0028 -0.0099211 0.00125333 0.0028 -0.0094672 0.00322061 0.0028 -0.0025372 0.000923454 0.0028 -0.0020683 0.00173553 0.0028 0.00135 -0.00233827 0.0028 0.0004689 -0.00265898 0.0028 -0.0036997 -0.00494975 0.0028 -0.0004689 -0.00265898 0.0028 -0.0039922 -0.00414626 0.0028 -0.00135 -0.00233827 0.0028 -0.0020683 -0.00173553 0.0028 0.00135 0.00233827 0.0028 0.0020683 0.00173553 0.0028 0.00253717 -0.000923454 0.0028 0.0027 -4.020027e-12 0.0028 0.00253717 0.000923454 0.0028 -0.00135 0.00233827 0.0028 -0.0004689 0.00265898 0.0028 0.0004689 0.00265898 0.0028 -0.0042578 -0.00904827 0.0028 -0.0018738 -0.00982287 0.0028 -0.0039922 -0.00575323 0.0028 0.0006279 -0.00998027 0.0028 0.00309017 -0.00951057 0.0028 0.0020683 -0.00173553 0.0028 -0.0061244 0.00537727 0.0028 -0.0092978 0.00368125 0.0028 -0.0061244 0.00452222 0.0028 -0.0055747 0.00386722 0.0028 -0.0047327 0.00371874 0.0028 -0.0039922 0.00414626 0.0028 0.00320607 0.00947212 0.0028 0.00309017 0.00951057 0.0028 0.0006279 0.00998027 0.0028 -0.0036997 0.00494975 0.0028 -0.0039922 0.00575323 0.0028 -0.0018738 0.00982287 0.0028 -0.0047327 0.00618076 0.0028 -0.0042578 0.00904827 0.0028 -0.0055747 0.00603228 0.0028 -0.0063742 0.00770513 0.0028 -0.0080902 0.00587785 0.0028 0.00516681 0.00371874 0.0028 0.00432475 0.00386722 0.0028 0.00377513 0.00452222 0.0028 0.00377513 0.00537727 0.0028 0.00432475 0.00603228 0.0028 0.00535827 0.00844328 0.0028 0.00516681 0.00618076 0.0028 0.00728969 0.00684547 0.0028 0.0059073 0.00575323 0.0028 0.00876307 0.00481754 0.0028 0.00619975 0.00494975 0.0028 0.0059073 0.00414626 0.0028 0.00045 0.00045 0.0043 -0.00045 -0.00045 0.0043 -0.0016394 -0.00045 0.0043 -0.0015975 -0.000581434 0.0043 -0.0013023 -0.00109274 0.0043 -0.00085 -0.00147224 0.0043 -0.0016394 -0.00045 0.0043 -0.0016394 -0.00045 0.0039 -0.0016394 0.00045 0.0043 -0.0016394 0.00045 0.0039 -0.00045 0.00045 0.0043 -0.0016394 0.00045 0.0043 -0.00045 0.00045 0.0027106 -0.0016394 0.00045 0.0039 -0.00045 0.00045 0.0043 -0.00045 0.00045 0.0027106 -0.00045 0.00163936 0.0043 -0.00045 0.00163936 0.0039 0.00045 0.00163936 0.0043 -0.00045 0.00163936 0.0043 0.00045 0.00163936 0.0039 -0.00045 0.00163936 0.0039 0.00045 0.00045 0.0043 0.00045 0.00163936 0.0043 0.00045 0.00045 0.0027106 0.00045 0.00163936 0.0039 0.0016394 0.00045 0.0043 0.00045 0.00045 0.0043 0.0016394 0.00045 0.0039 0.00045 0.00045 0.0027106 0.00045 -0.00163936 0.0043 0.00045 -0.00163936 0.0039 -0.00045 -0.00163936 0.0043 -0.00045 -0.00163936 0.0039 -0.00045 -0.00045 0.0043 -0.00045 -0.00045 0.0027106 -0.0016394 -0.00045 0.0043 -0.0016394 -0.00045 0.0039 -0.00045 -0.00163936 0.0043 -0.00045 -0.00163936 0.0039 -0.00045 -0.00045 0.0043 -0.00045 -0.00045 0.0027106 -0.0004394 -0.00043936 0.0027 -0.0004394 0.00043936 0.0027 -0.00045 -0.00045 0.0027106 -0.00045 0.00045 0.0027106 -0.0016394 -0.00045 0.0039 -0.0016394 0.00045 0.0039 0.00045 0.00163936 0.0039 -0.00045 0.00163936 0.0039 0.00045 0.00045 0.0027106 -0.00045 0.00045 0.0027106 0.0004394 0.00043936 0.0027 -0.0004394 0.00043936 0.0027 0.0016394 -0.00045 0.0039 0.0016394 0.00045 0.0039 0.00045 -0.00045 0.0027106 0.00045 0.00045 0.0027106 0.0004394 -0.00043936 0.0027 0.0004394 0.00043936 0.0027 -0.00045 -0.00163936 0.0039 0.00045 -0.00163936 0.0039 -0.00045 -0.00045 0.0027106 0.00045 -0.00045 0.0027106 -0.0004394 -0.00043936 0.0027 0.0004394 -0.00043936 0.0027 0.00252332 -0.000918413 0.0033629 0.0023984 -0.000872943 0.0039199 0.0021514 -0.000783041 0.0041842 -0.0003913 -0.00221942 0.0042021 0.0003913 -0.00221942 0.0042021 -0.0011268 -0.00195172 0.0042021 -0.0017264 -0.00144862 0.0042021 -0.0021177 -0.000770795 0.0042021 0.0021177 -0.000770795 0.0042021 0.0017264 -0.00144862 0.0042021 0.0011268 -0.00195172 0.0042021 0.0017538 -0.00147164 0.0041842 0.0011447 -0.00198273 0.0041842 0.0003976 -0.00225468 0.0041842 -0.0003976 -0.00225468 0.0041842 -0.0011447 -0.00198273 0.0041842 -0.0017538 -0.00147164 0.0041842 -0.0021514 -0.000783041 0.0041842 0.0019552 -0.0016406 0.0039199 0.0012762 -0.00221037 0.0039199 0.0004432 -0.00251354 0.0039199 -0.0004432 -0.00251354 0.0039199 -0.0012762 -0.00221037 0.0039199 -0.0019552 -0.0016406 0.0039199 -0.0023984 -0.000872943 0.0039199 0.0024303 -0.000884572 0.0038479 0.0019812 -0.00166245 0.0038479 0.0012932 -0.00223982 0.0038479 0.0004491 -0.00254702 0.0038479 -0.0004491 -0.00254702 0.0038479 -0.0012932 -0.00223982 0.0038479 -0.0019812 -0.00166245 0.0038479 -0.0024303 -0.000884572 0.0038479 -0.0025233 -0.000918413 0.0033629 -0.002057 -0.00172605 0.0033629 -0.0013426 -0.0023255 0.0033629 -0.0004663 -0.00264446 0.0033629 0.0004663 -0.00264446 0.0033629 0.0013426 -0.0023255 0.0033629 0.002057 -0.00172605 0.0033629 0.00253717 -0.000923454 0.0028 0.0020683 -0.00173553 0.0028 0.00135 -0.00233827 0.0028 0.0004689 -0.00265898 0.0028 -0.0004689 -0.00265898 0.0028 -0.00135 -0.00233827 0.0028 -0.0020683 -0.00173553 0.0028 -0.0025372 -0.000923454 0.0028</float_array>
          <technique_common>
            <accessor count="511" source="#verts-array-array" stride="3">
              <param type="float" name="X"/>
              <param type="float" name="Y"/>
              <param type="float" name="Z"/>
            </accessor>
          </technique_common>
        </source>
        <source id="normals-array">
          <float_array count="1533" id="normals-array-array">-0.9337206 0.3398826 0.1124528 -0.9936607 -1.028109e-05 0.1124207 -0.9501272 1.689578e-05 0.3118627 -0.7749981 0.2820613 0.5655257 -0.8245997 6.500585e-06 0.5657166 -0.5973861 -1.69221e-05 0.8019538 -0.5611175 0.2042437 0.8021419 -0.3288823 0.0005961356 0.9443707 0.05632941 0.3243453 0.9442601 -0.05679161 0.3237607 0.944433 -0.009884718 0.09318951 0.9955993 0.009884718 0.09318951 0.9955993 0.03861334 0.1191787 0.9921217 0.1650533 0.2845293 0.9443519 0.05001332 0.08166638 0.9954041 0.2514826 0.2109877 0.944585 0.07432261 0.06236371 0.9952823 0.3088288 0.1131967 0.9443576 0.08539725 0.03824893 0.9956125 0.1221864 0.02680991 0.992145 -0.3085514 0.1125479 0.9445258 -0.09583739 0.001378892 0.995396 -0.1251644 0.02527732 0.991814 -0.0853967 0.03824712 0.9956127 -0.2514701 0.2109967 0.9445862 -0.07432078 0.06236377 0.9952825 -0.1640783 0.2841911 0.9446236 -0.04926421 0.08350897 0.9952885 -0.04196058 0.1214068 0.9917155 0.5973789 1.510114e-05 0.8019591 0.3288823 -0.0005961356 0.9443707 0.09583739 -0.001378892 0.995396 -0.4576042 0.3840048 0.8019593 -0.2986472 0.5172729 0.8020216 -0.1037636 0.5881961 0.802034 0.10377 0.5882015 0.8020292 0.2986404 0.5172829 0.8020176 0.4576001 0.3839938 0.8019669 0.5611143 0.2042266 0.8021485 0.8245631 -1.034197e-05 0.5657701 -0.631762 0.5300734 0.5655961 -0.4122929 0.7140661 0.5657953 -0.1431772 0.8120642 0.5657313 0.1431848 0.8120608 0.5657344 0.412273 0.7140729 0.5658011 0.6317671 0.5300684 0.5655951 0.7749893 0.2820669 0.565535 0.950126 -3.526133e-06 0.3118664 -0.8929016 0.3250003 0.3116112 -0.7278995 0.6107732 0.3116381 -0.4750816 0.822844 0.3118095 -0.1649817 0.9357155 0.3117973 0.1649759 0.9357141 0.3118045 0.4750902 0.8228417 0.3118026 0.7279036 0.6107768 0.3116215 0.8928956 0.3250182 0.3116098 0.9936634 8.041828e-06 0.1123971 0.9337303 0.3398629 0.1124319 0.7611846 0.6387191 0.1124094 0.4968407 0.8605353 0.1123761 0.1725461 0.9785674 0.1123995 -0.172552 0.9785657 0.1124058 -0.4968248 0.8605445 0.1123757 -0.7611942 0.6387094 0.1123994 -0.9996585 -3.049653e-05 0.0261331 -0.9393578 0.3419339 0.02623098 -0.7657785 0.6425704 0.02620443 -0.4998403 0.865721 0.02620666 -0.173603 0.9844673 0.02619535 0.1736039 0.9844671 0.02619618 0.4998434 0.8657191 0.02621166 0.7657773 0.642572 0.02619863 0.9393664 0.3419143 0.02617834 0.9996573 -3.897727e-07 0.0261765 0 0 1 0.0853967 -0.03824712 0.9956127 0.1251644 -0.02527732 0.991814 0 0 1 0.07432078 -0.06236377 0.9952825 0.04926421 -0.08350897 0.9952885 0.04196058 -0.1214068 0.9917155 0.009884718 -0.09318951 0.9955993 -0.009884718 -0.09318951 0.9955993 -0.03861334 -0.1191787 0.9921217 -1 -4.102057e-10 0 -1 -4.102057e-10 0 -1 -4.102057e-10 0 -1 -4.102057e-10 0 -1 -4.102081e-10 0 -1 -4.102081e-10 0 -1 -4.102081e-10 0 -1 -4.102081e-10 0 -4.102069e-10 1 0 -4.102069e-10 1 0 -4.102069e-10 1 0 -4.102069e-10 1 0 0 0 1 0 0 1 0 0 1 0 0 1 0 0 -1 0 0 -1 0 0 -1 0 0 -1 0 0 -1 0 0 -1 0 0 -1 0 0 -1 0 0 -1 0 0 -1 0 0 -1 0 0 -1 0 0 -1 0 0 -1 0 0 -1 0 0 -1 0 0 -1 0 0 -1 0 0 -1 0 0 -1 0 0 -1 0 0 -1 0 0 -1 0 0 -1 0 0 -1 0 0 -1 0 0 -1 0 0 -1 0 0 -1 0 0 -1 0 0 -1 0 0 -1 0 0 -1 0 0 -1 0 0 -1 0 0 -1 0 0 -1 0 0 -1 0 0 -1 0 0 -1 0 0 -1 0 0 -1 0 0 -1 0 0 -1 0 0 -1 0 0 -1 0 0 -1 0 0 -1 0 0 -1 0 0 -1 0 0 -1 0 0 -1 0 0 -1 0 0 -1 0 0 -1 0 0 -1 0 0 -1 0 0 -1 0 0 -1 0 0 -1 0 0 -1 0 0 -1 0 0 -1 0 0 -1 0 0 -1 0 0 -1 0 0 -1 0 0 -1 0 0 -1 0 0 -1 0 0 -1 0 0 -1 0 0 -1 0 0 -1 0 0 -1 0 0 -1 0 0 -1 0 0 -1 0 0 -1 0 0 -1 0 0 -1 0 0 -1 0 0 -1 0 0 -1 -1 -2.000699e-06 0 -1 -2.000699e-06 0 -0.766023 0.6428132 0 -0.766023 0.6428132 0 -0.1736371 0.9848097 0 -0.1736371 0.9848097 0 0.4999715 0.8660419 0 0.4999715 0.8660419 0 0.9396789 0.3420579 0 0.9396789 0.3420579 0 0.9396802 -0.3420544 0 0.9396802 -0.3420544 0 0.4999748 -0.86604 0 0.4999748 -0.86604 0 -0.173642 -0.9848088 0 -0.173642 -0.9848088 0 -0.7660249 -0.6428109 0 -0.7660249 -0.6428109 0 -1 -2.000437e-06 0 -1 -2.000437e-06 0 -0.7660425 0.6427899 0 -0.7660425 0.6427899 0 -0.1736459 0.9848081 0 -0.1736459 0.9848081 0 0.4999973 0.866027 0 0.4999973 0.866027 0 0.9396911 0.3420242 0 0.9396911 0.3420242 0 0.9396924 -0.3420207 0 0.9396924 -0.3420207 0 0.5000005 -0.8660251 0 0.5000005 -0.8660251 0 -0.1736509 -0.9848073 0 -0.1736509 -0.9848073 0 -0.7660445 -0.6427876 0 -0.7660445 -0.6427876 0 -1 1.999617e-06 0 -1 1.999617e-06 0 -0.7660445 0.6427876 0 -0.7660445 0.6427876 0 -0.1736509 0.9848073 0 -0.1736509 0.9848073 0 0.5000005 0.8660251 0 0.5000005 0.8660251 0 0.9396924 0.3420207 0 0.9396924 0.3420207 0 0.9396911 -0.3420242 0 0.9396911 -0.3420242 0 0.4999973 -0.866027 0 0.4999973 -0.866027 0 -0.1736459 -0.9848081 0 -0.1736459 -0.9848081 0 -0.7660425 -0.6427899 0 -0.7660425 -0.6427899 0 -1 1.999879e-06 0 -1 1.999879e-06 0 -0.7660249 0.6428109 0 -0.7660249 0.6428109 0 -0.173642 0.9848088 0 -0.173642 0.9848088 0 0.4999748 0.86604 0 0.4999748 0.86604 0 0.9396802 0.3420544 0 0.9396802 0.3420544 0 0.9396789 -0.3420579 0 0.9396789 -0.3420579 0 0.4999715 -0.8660418 0 0.4999715 -0.8660418 0 -0.1736371 -0.9848097 0 -0.1736371 -0.9848097 0 -0.766023 -0.6428132 0 -0.766023 -0.6428132 0 0.9379922 0.3465687 -0.007795281 0.9705638 0.2405941 -0.01097711 0.8726317 0.4883075 -0.008345404 0.8667599 0.4987256 0 0.7289684 0.6845474 0 0.7289684 0.6845474 0 0.5370759 0.8435325 -0.001510821 0.5384011 0.8426887 0 0.3741664 0.9273604 -0.001505056 0.3072532 0.9516235 -0.002843376 0.2516747 0.9678119 0 0.1096403 0.9939713 0 0.07017831 0.9974836 0.01007539 -0.03251642 0.9994485 0.006741303 -0.1937414 0.9810273 0.007051575 -0.2028774 0.9792041 0 -0.4257827 0.9048255 0 -0.4257827 0.9048255 0 -0.6374203 0.7705163 0 -0.6374203 0.7705163 0 -0.8090101 0.5877947 0 -0.8090101 0.5877947 0 -0.9274335 0.3738857 -0.008751789 -0.9099933 0.4146229 0 -0.9586126 0.2846605 -0.00550998 -0.9884885 0.1511903 -0.005645334 -0.9924203 0.1223811 0.01116849 -0.9999563 -4.101881e-10 0.009348093 -0.9908439 -0.1345486 0.01118366 -0.9876879 -0.156437 0 -0.9297819 -0.3681109 0 -0.9297819 -0.3681109 0 -0.8090101 -0.5877947 0 -0.8090101 -0.5877947 0 -0.6374203 -0.7705163 0 -0.6374203 -0.7705163 0 -0.4257827 -0.9048255 0 -0.4257827 -0.9048255 0 -0.2028774 -0.9792041 0 -0.1937414 -0.9810273 0.007051575 -0.03251642 -0.9994485 0.006741303 0.07017831 -0.9974836 0.01007539 0.1096403 -0.9939713 0 0.3072532 -0.9516235 -0.002843376 0.9784515 0.2064767 0 1 4.102073e-10 3.088944e-17 1 4.10207e-10 -3.088945e-17 0.9685833 -0.2486892 3.088944e-17 0.9685833 -0.2486892 0 0.876307 -0.4817531 0 0.876307 -0.4817531 0 0.7289684 -0.6845474 0 0.7289684 -0.6845474 0 0.5384011 -0.8426887 0 0.5370759 -0.8435325 -0.001510821 0.3741664 -0.9273603 -0.001505056 0.2516747 -0.9678119 0 0 0 1 0 0 1 0 0 1 0 0 1 0 0 1 0 0 1 0 0 1 0 0 1 0 0 1 0 0 1 0 0 1 0 0 1 0 0 1 0 0 1 0 0 1 0 0 1 0 0 1 0 0 1 0 0 1 0 0 1 0 0 1 0 0 1 0 0 1 0 0 1 0 0 1 0 0 1 0 0 1 0 0 1 0 0 1 0 0 1 0 0 1 0 0 1 0 0 1 0 0 1 0 0 1 0 0 1 0 0 1 0 0 1 0 0 1 0 0 1 0 0 1 0 0 1 0 0 1 0 0 1 0 0 1 0 0 1 0 0 1 0 0 1 0 0 1 0 0 1 0 0 1 0 0 1 0 0 1 0 0 1 0 0 1 0 0 1 0 0 1 0 0 1 0 0 1 0 0 1 0 0 1 0 0 1 0 0 1 0 0 1 0 0 1 0 0 1 0 0 1 0 0 1 0 0 1 0 0 1 0 0 1 0 0 1 0 0 1 0 0 1 0 0 1 0 0 1 0 0 1 0 0 1 0 0 1 0 0 1 0 0 1 0 0 1 0 0 1 0 0 1 0 0 1 0 0 1 -0.1221864 -0.02680991 0.992145 -0.08539725 -0.03824893 0.9956125 -0.07432261 -0.06236371 0.9952823 -0.05001332 -0.08166638 0.9954041 1 4.102081e-10 0 1 4.102081e-10 0 1 4.102081e-10 0 1 4.102081e-10 0 4.102069e-10 -1 0 4.102069e-10 -1 0 4.102069e-10 -1 0 4.102069e-10 -1 0 1 4.102057e-10 0 1 4.102057e-10 0 1 4.102057e-10 0 1 4.102057e-10 0 4.102069e-10 -1 0 4.102069e-10 -1 0 4.102069e-10 -1 0 4.102069e-10 -1 0 -1 -4.102057e-10 0 -1 -4.102057e-10 0 -1 -4.102057e-10 0 -1 -4.102057e-10 0 4.102069e-10 -1 0 4.102069e-10 -1 0 4.102069e-10 -1 0 4.102069e-10 -1 0 -4.102069e-10 1 0 -4.102069e-10 1 0 -4.102069e-10 1 0 -4.102069e-10 1 0 -4.102069e-10 1 0 -4.102069e-10 1 0 -4.102069e-10 1 0 -4.102069e-10 1 0 1 4.102057e-10 0 1 4.102057e-10 0 1 4.102057e-10 0 1 4.102057e-10 0 0.7071068 2.90061e-10 0.7071068 0.7071068 2.90061e-10 0.7071068 0.7071068 2.90061e-10 0.7071068 0.7071068 2.90061e-10 0.7071068 0.7071068 2.90061e-10 0.7071068 0.7071068 2.90061e-10 0.7071068 2.90065e-10 -0.7071187 0.7070949 2.90065e-10 -0.7071187 0.7070949 2.898563e-10 -0.7066101 0.7076031 2.898563e-10 -0.7066101 0.7076031 2.895133e-10 -0.7057739 0.7084372 2.895133e-10 -0.7057739 0.7084372 -0.7071068 -2.90061e-10 0.7071068 -0.7071068 -2.90061e-10 0.7071068 -0.7071068 -2.90061e-10 0.7071068 -0.7071068 -2.90061e-10 0.7071068 -0.7071068 -2.90061e-10 0.7071068 -0.7071068 -2.90061e-10 0.7071068 -2.90065e-10 0.7071187 0.7070949 -2.90065e-10 0.7071187 0.7070949 -2.898563e-10 0.7066101 0.7076031 -2.898563e-10 0.7066101 0.7076031 -2.895133e-10 0.7057739 0.7084372 -2.895133e-10 0.7057739 0.7084372 0.9337313 -0.3398636 0.1124211 0.7749962 -0.2820642 0.5655269 0.5611175 -0.2042437 0.8021419 -0.05632941 -0.3243453 0.9442601 0.05679161 -0.3237607 0.944433 -0.1650533 -0.2845293 0.9443519 -0.2514826 -0.2109877 0.944585 -0.3088288 -0.1131967 0.9443576 0.3085514 -0.1125479 0.9445258 0.2514701 -0.2109967 0.9445862 0.1640783 -0.2841911 0.9446236 0.4576042 -0.3840048 0.8019593 0.2986472 -0.5172729 0.8020216 0.1037636 -0.5881961 0.802034 -0.10377 -0.5882015 0.8020292 -0.2986404 -0.5172829 0.8020176 -0.4576001 -0.3839938 0.8019669 -0.5611158 -0.2042253 0.8021478 0.631762 -0.5300734 0.5655961 0.4122929 -0.7140661 0.5657953 0.1431772 -0.8120642 0.5657313 -0.1431848 -0.8120608 0.5657344 -0.412273 -0.7140729 0.5658011 -0.6317671 -0.5300684 0.5655951 -0.7749928 -0.2820605 0.5655334 0.8928925 -0.3250065 0.3116309 0.7278967 -0.6107753 0.3116407 0.4750816 -0.822844 0.3118095 0.1649817 -0.9357155 0.3117973 -0.1649759 -0.9357141 0.3118045 -0.4750902 -0.8228417 0.3118026 -0.7279036 -0.6107768 0.3116215 -0.8928965 -0.3250196 0.3116059 -0.9337263 -0.3398706 0.112442 -0.7611833 -0.63872 0.1124134 -0.4968407 -0.8605353 0.1123761 -0.1725461 -0.9785674 0.1123995 0.172552 -0.9785657 0.1124058 0.4968248 -0.8605445 0.1123757 0.7611884 -0.6387164 0.1123994 0.939368 -0.3419103 0.02617519 0.7657779 -0.6425715 0.02619097 0.4998403 -0.865721 0.02620666 0.173603 -0.9844673 0.02619535 -0.1736039 -0.9844671 0.02619618 -0.4998434 -0.8657191 0.02621166 -0.7657684 -0.6425826 0.02619863 -0.9393716 -0.3418946 0.02624826</float_array>
          <technique_common>
            <accessor count="511" source="#normals-array-array" stride="3">
              <param type="float" name="X"/>
              <param type="float" name="Y"/>
              <param type="float" name="Z"/>
            </accessor>
          </technique_common>
        </source>
        <vertices id="verts-array-vertices">
          <input semantic="POSITION" source="#verts-array"/>
        </vertices>
        <triangles count="602" material="material2">
          <input offset="0" semantic="VERTEX" source="#verts-array-vertices"/>
          <input offset="1" semantic="NORMAL" source="#normals-array"/>
          <p>0 0 1 1 2 2 3 3 4 4 5 5 6 6 5 5 7 7 8 8 9 9 10 10 10 10 11 11 8 8 12 12 8 8 11 11 8 8 12 12 13 13 14 14 13 13 12 12 13 13 14 14 15 15 16 16 15 15 14 14 15 15 16 16 17 17 18 18 17 17 16 16 17 17 18 18 19 19 20 20 7 7 21 21 21 21 22 22 20 20 23 23 20 20 22 22 20 20 23 23 24 24 25 25 24 24 23 23 24 24 25 25 26 26 27 27 26 26 25 25 26 26 27 27 9 9 28 28 9 9 27 27 9 9 28 28 10 10 29 29 17 17 30 30 19 19 30 30 17 17 30 30 19 19 31 31 7 7 20 20 6 6 24 24 6 6 20 20 6 6 24 24 32 32 26 26 32 32 24 24 32 32 26 26 33 33 9 9 33 33 26 26 33 33 9 9 34 34 8 8 34 34 9 9 34 34 8 8 35 35 13 13 35 35 8 8 35 35 13 13 36 36 15 15 36 36 13 13 36 36 15 15 37 37 17 17 37 37 15 15 37 37 17 17 38 38 29 29 38 38 17 17 38 38 29 29 39 39 5 5 6 6 3 3 32 32 3 3 6 6 3 3 32 32 40 40 33 33 40 40 32 32 40 40 33 33 41 41 34 34 41 41 33 33 41 41 34 34 42 42 35 35 42 42 34 34 42 42 35 35 43 43 36 36 43 43 35 35 43 43 36 36 44 44 37 37 44 44 36 36 44 44 37 37 45 45 38 38 45 45 37 37 45 45 38 38 46 46 39 39 46 46 38 38 46 46 39 39 47 47 4 4 3 3 48 48 40 40 48 48 3 3 48 48 40 40 49 49 41 41 49 49 40 40 49 49 41 41 50 50 42 42 50 50 41 41 50 50 42 42 51 51 43 43 51 51 42 42 51 51 43 43 52 52 44 44 52 52 43 43 52 52 44 44 53 53 45 45 53 53 44 44 53 53 45 45 54 54 46 46 54 54 45 45 54 54 46 46 55 55 47 47 55 55 46 46 55 55 47 47 56 56 56 56 57 57 55 55 58 58 55 55 57 57 55 55 58 58 54 54 59 59 54 54 58 58 54 54 59 59 53 53 60 60 53 53 59 59 53 53 60 60 52 52 61 61 52 52 60 60 52 52 61 61 51 51 62 62 51 51 61 61 51 51 62 62 50 50 63 63 50 50 62 62 50 50 63 63 49 49 0 0 49 49 63 63 49 49 0 0 48 48 2 2 48 48 0 0 48 48 2 2 4 4 64 64 1 1 65 65 0 0 65 65 1 1 65 65 0 0 66 66 63 63 66 66 0 0 66 66 63 63 67 67 62 62 67 67 63 63 67 67 62 62 68 68 61 61 68 68 62 62 68 68 61 61 69 69 60 60 69 69 61 61 69 69 60 60 70 70 59 59 70 70 60 60 70 70 59 59 71 71 58 58 71 71 59 59 71 71 58 58 72 72 57 57 72 72 58 58 72 72 57 57 73 73 56 56 73 73 57 57 10 10 28 28 11 11 12 12 11 11 28 28 23 23 22 22 74 74 25 25 23 23 27 27 74 74 27 27 23 23 27 27 74 74 28 28 75 75 76 76 77 77 78 78 75 75 79 79 77 77 79 79 75 75 79 79 77 77 80 80 81 81 80 80 82 82 83 83 82 82 80 80 84 84 85 85 86 86 87 87 86 86 85 85 88 88 89 89 90 90 91 91 90 90 89 89 92 92 93 93 94 94 95 95 94 94 93 93 96 96 97 97 98 98 99 99 98 98 97 97 100 100 101 101 102 102 103 103 104 104 105 105 106 106 107 107 108 108 108 108 107 107 109 109 110 110 109 109 107 107 109 109 110 110 111 111 111 111 110 110 112 112 113 113 112 112 110 110 112 112 113 113 114 114 115 115 114 114 113 113 114 114 115 115 116 116 117 117 116 116 115 115 116 116 117 117 118 118 119 119 118 118 117 117 118 118 119 119 105 105 120 120 105 105 119 119 105 105 120 120 103 103 104 104 121 121 105 105 122 122 105 105 121 121 105 105 122 122 123 123 124 124 123 123 122 122 125 125 126 126 127 127 104 104 128 128 121 121 129 129 121 121 128 128 121 121 129 129 130 130 131 131 130 130 129 129 130 130 131 131 132 132 131 131 125 125 132 132 127 127 132 132 125 125 132 132 127 127 133 133 134 134 133 133 127 127 133 133 134 134 135 135 136 136 135 135 134 134 135 135 136 136 137 137 138 138 137 137 136 136 137 137 138 138 139 139 140 140 139 139 138 138 139 139 140 140 124 124 141 141 124 124 140 140 124 124 141 141 123 123 102 102 101 101 142 142 143 143 144 144 145 145 144 144 143 143 146 146 147 147 146 146 143 143 146 146 147 147 101 101 148 148 101 101 147 147 101 101 148 148 142 142 126 126 143 143 127 127 145 145 127 127 143 143 127 127 145 145 149 149 150 150 149 149 145 145 149 149 150 150 151 151 152 152 153 153 154 154 151 151 150 150 155 155 156 156 155 155 150 150 155 155 156 156 157 157 158 158 157 157 156 156 157 157 158 158 159 159 160 160 159 159 158 158 159 159 160 160 161 161 100 100 161 161 160 160 161 161 100 100 162 162 102 102 162 162 100 100 162 162 102 102 163 163 164 164 165 165 166 166 167 167 166 166 165 165 166 166 167 167 168 168 169 169 168 168 167 167 168 168 169 169 170 170 171 171 170 170 169 169 170 170 171 171 172 172 173 173 172 172 171 171 172 172 173 173 174 174 152 152 174 174 173 173 174 174 152 152 108 108 154 154 108 108 152 152 108 108 154 154 106 106 175 175 106 106 154 154 106 106 175 175 176 176 177 177 176 176 175 175 176 176 177 177 120 120 178 178 120 120 177 177 120 120 178 178 103 103 164 164 162 162 165 165 163 163 165 165 162 162 165 165 163 163 179 179 180 180 179 179 163 163 179 179 180 180 181 181 182 182 181 181 180 180 181 181 182 182 153 153 183 183 153 153 182 182 153 153 183 183 154 154 184 184 185 185 186 186 187 187 186 186 185 185 186 186 187 187 188 188 189 189 188 188 187 187 188 188 189 189 190 190 191 191 190 190 189 189 190 190 191 191 192 192 193 193 192 192 191 191 192 192 193 193 194 194 195 195 194 194 193 193 194 194 195 195 196 196 197 197 196 196 195 195 196 196 197 197 198 198 199 199 198 198 197 197 198 198 199 199 200 200 201 201 200 200 199 199 200 200 201 201 184 184 185 185 184 184 201 201 202 202 203 203 204 204 205 205 204 204 203 203 204 204 205 205 206 206 207 207 206 206 205 205 206 206 207 207 208 208 209 209 208 208 207 207 208 208 209 209 210 210 211 211 210 210 209 209 210 210 211 211 212 212 213 213 212 212 211 211 212 212 213 213 214 214 215 215 214 214 213 213 214 214 215 215 216 216 217 217 216 216 215 215 216 216 217 217 218 218 219 219 218 218 217 217 218 218 219 219 202 202 203 203 202 202 219 219 220 220 221 221 222 222 223 223 222 222 221 221 222 222 223 223 224 224 225 225 224 224 223 223 224 224 225 225 226 226 227 227 226 226 225 225 226 226 227 227 228 228 229 229 228 228 227 227 228 228 229 229 230 230 231 231 230 230 229 229 230 230 231 231 232 232 233 233 232 232 231 231 232 232 233 233 234 234 235 235 234 234 233 233 234 234 235 235 236 236 237 237 236 236 235 235 236 236 237 237 220 220 221 221 220 220 237 237 238 238 239 239 240 240 241 241 240 240 239 239 240 240 241 241 242 242 243 243 242 242 241 241 242 242 243 243 244 244 245 245 244 244 243 243 244 244 245 245 246 246 247 247 246 246 245 245 246 246 247 247 248 248 249 249 248 248 247 247 248 248 249 249 250 250 251 251 250 250 249 249 250 250 251 251 252 252 253 253 252 252 251 251 252 252 253 253 254 254 255 255 254 254 253 253 254 254 255 255 238 238 239 239 238 238 255 255 256 256 257 257 258 258 256 256 258 258 259 259 260 260 259 259 258 258 259 259 260 260 261 261 262 262 261 261 260 260 261 261 262 262 263 263 263 263 262 262 264 264 265 265 264 264 262 262 264 264 265 265 266 266 267 267 266 266 265 265 266 266 267 267 268 268 269 269 268 268 267 267 268 268 269 269 270 270 269 269 271 271 270 270 272 272 270 270 271 271 270 270 272 272 273 273 274 274 273 273 272 272 273 273 274 274 275 275 276 276 275 275 274 274 275 275 276 276 277 277 278 278 277 277 276 276 277 277 278 278 279 279 279 279 278 278 280 280 281 281 280 280 278 278 280 280 281 281 282 282 283 283 282 282 281 281 282 282 283 283 284 284 283 283 285 285 284 284 286 286 284 284 285 285 284 284 286 286 287 287 288 288 287 287 286 286 287 287 288 288 289 289 290 290 289 289 288 288 289 289 290 290 291 291 292 292 291 291 290 290 291 291 292 292 293 293 294 294 293 293 292 292 293 293 294 294 295 295 296 296 295 295 294 294 295 295 296 296 297 297 298 298 297 297 296 296 297 297 298 298 299 299 256 256 300 300 257 257 301 301 257 257 300 300 257 257 301 301 302 302 303 303 302 302 301 301 302 302 303 303 304 304 305 305 304 304 303 303 304 304 305 305 306 306 307 307 306 306 305 305 306 306 307 307 308 308 309 309 308 308 307 307 308 308 309 309 310 310 311 311 310 310 309 309 310 310 311 311 299 299 312 312 299 299 311 311 299 299 312 312 297 297 313 313 314 314 315 315 316 316 315 315 314 314 315 315 316 316 317 317 318 318 317 317 316 316 318 318 319 319 320 320 321 321 322 322 323 323 324 324 323 323 322 322 323 323 324 324 319 319 325 325 319 319 324 324 319 319 325 325 320 320 313 313 315 315 326 326 327 327 326 326 315 315 326 326 327 327 328 328 329 329 328 328 327 327 328 328 329 329 321 321 330 330 321 321 329 329 321 321 330 330 322 322 331 331 332 332 333 333 333 333 332 332 334 334 335 335 336 336 337 337 337 337 336 336 338 338 339 339 338 338 336 336 338 338 339 339 340 340 341 341 340 340 339 339 340 340 341 341 342 342 331 331 342 342 341 341 342 342 331 331 343 343 333 333 343 343 331 331 343 343 333 333 344 344 345 345 344 344 333 333 344 344 345 345 346 346 347 347 348 348 349 349 350 350 349 349 348 348 349 349 350 350 351 351 352 352 351 351 350 350 351 351 352 352 332 332 353 353 332 332 352 352 332 332 353 353 334 334 354 354 355 355 317 317 356 356 315 315 357 357 317 317 357 357 315 315 357 357 317 317 358 358 355 355 358 358 317 317 346 346 359 359 344 344 360 360 344 344 359 359 344 344 360 360 317 317 361 361 317 317 360 360 317 317 361 361 354 354 337 337 362 362 335 335 363 363 335 335 362 362 335 335 363 363 364 364 365 365 364 364 363 363 364 364 365 365 349 349 366 366 349 349 365 365 349 349 366 366 347 347 315 315 347 347 366 366 347 347 315 315 367 367 356 356 367 367 315 315 368 368 369 369 370 370 344 344 370 370 369 369 370 370 344 344 371 371 371 371 344 344 372 372 317 317 372 372 344 344 372 372 317 317 373 373 374 374 375 375 317 317 376 376 317 317 375 375 373 373 317 317 377 377 376 376 377 377 317 317 377 377 376 376 378 378 379 379 378 378 376 376 378 378 379 379 380 380 381 381 380 380 379 379 380 380 381 381 382 382 383 383 382 382 381 381 382 382 383 383 368 368 384 384 368 368 383 383 368 368 384 384 369 369 318 318 320 320 317 317 385 385 317 317 320 320 317 317 385 385 386 386 386 386 387 387 317 317 388 388 317 317 387 387 317 317 388 388 374 374 389 389 374 374 388 388 374 374 389 389 390 390 391 391 390 390 389 389 390 390 391 391 392 392 393 393 392 392 391 391 392 392 393 393 394 394 395 395 394 394 393 393 394 394 395 395 320 320 396 396 320 320 395 395 320 320 396 396 385 385 397 397 19 19 18 18 18 18 16 16 397 397 14 14 397 397 16 16 397 397 14 14 12 12 76 76 31 31 19 19 398 398 399 399 400 400 400 400 401 401 398 398 402 402 398 398 401 401 398 398 402 402 83 83 403 403 404 404 405 405 406 406 405 405 404 404 407 407 408 408 409 409 410 410 409 409 408 408 411 411 412 412 413 413 414 414 413 413 412 412 415 415 416 416 417 417 418 418 417 417 416 416 419 419 420 420 421 421 422 422 421 421 420 420 423 423 424 424 425 425 426 426 425 425 424 424 427 427 428 428 429 429 430 430 429 429 428 428 431 431 432 432 433 433 434 434 433 433 432 432 435 435 436 436 437 437 438 438 437 437 436 436 439 439 440 440 441 441 442 442 441 441 440 440 441 441 442 442 443 443 444 444 443 443 442 442 445 445 446 446 447 447 448 448 447 447 446 446 447 447 448 448 449 449 450 450 449 449 448 448 451 451 452 452 453 453 454 454 453 453 452 452 453 453 454 454 455 455 456 456 455 455 454 454 457 457 458 458 459 459 460 460 459 459 458 458 459 459 460 460 461 461 462 462 461 461 460 460 21 21 399 399 22 22 463 463 56 56 47 47 464 464 39 39 29 29 465 465 29 29 30 30 466 466 467 467 81 81 81 81 82 82 466 466 83 83 466 466 82 82 466 466 83 83 468 468 402 402 468 468 83 83 468 468 402 402 469 469 401 401 469 469 402 402 469 469 401 401 470 470 400 400 470 470 401 401 470 470 400 400 399 399 471 471 30 30 31 31 31 31 76 76 471 471 75 75 471 471 76 76 471 471 75 75 472 472 78 78 472 472 75 75 472 472 78 78 473 473 79 79 473 473 78 78 473 473 79 79 467 467 80 80 467 467 79 79 467 467 80 80 81 81 5 5 470 470 7 7 399 399 7 7 470 470 7 7 399 399 21 21 30 30 471 471 465 465 472 472 465 465 471 471 465 465 472 472 474 474 473 473 474 474 472 472 474 474 473 473 475 475 467 467 475 475 473 473 475 475 467 467 476 476 466 466 476 476 467 467 476 476 466 466 477 477 468 468 477 477 466 466 477 477 468 468 478 478 469 469 478 478 468 468 478 478 469 469 479 479 470 470 479 479 469 469 479 479 470 470 480 480 5 5 480 480 470 470 480 480 5 5 4 4 29 29 465 465 464 464 474 474 464 464 465 465 464 464 474 474 481 481 475 475 481 481 474 474 481 481 475 475 482 482 476 476 482 482 475 475 482 482 476 476 483 483 477 477 483 483 476 476 483 483 477 477 484 484 478 478 484 484 477 477 484 484 478 478 485 485 479 479 485 485 478 478 485 485 479 479 486 486 480 480 486 486 479 479 486 486 480 480 487 487 4 4 487 487 480 480 487 487 4 4 2 2 39 39 464 464 488 488 481 481 488 488 464 464 488 488 481 481 489 489 482 482 489 489 481 481 489 489 482 482 490 490 483 483 490 490 482 482 490 490 483 483 491 491 484 484 491 491 483 483 491 491 484 484 492 492 485 485 492 492 484 484 492 492 485 485 493 493 486 486 493 493 485 485 493 493 486 486 494 494 487 487 494 494 486 486 494 494 487 487 495 495 2 2 495 495 487 487 495 495 2 2 1 1 1 1 496 496 495 495 497 497 495 495 496 496 495 495 497 497 494 494 498 498 494 494 497 497 494 494 498 498 493 493 499 499 493 493 498 498 493 493 499 499 492 492 500 500 492 492 499 499 492 492 500 500 491 491 501 501 491 491 500 500 491 491 501 501 490 490 502 502 490 490 501 501 490 490 502 502 489 489 463 463 489 489 502 502 489 489 463 463 488 488 47 47 488 488 463 463 488 488 47 47 39 39 73 73 56 56 503 503 463 463 503 503 56 56 503 503 463 463 504 504 502 502 504 504 463 463 504 504 502 502 505 505 501 501 505 505 502 502 505 505 501 501 506 506 500 500 506 506 501 501 506 506 500 500 507 507 499 499 507 507 500 500 507 507 499 499 508 508 498 498 508 508 499 499 508 508 498 498 509 509 497 497 509 509 498 498 509 509 497 497 510 510 496 496 510 510 497 497 510 510 496 496 64 64 1 1 64 64 496 496</p>
        </triangles>
      </mesh>
    </geometry>
  </library_geometries>
  <library_materials>
    <material id="48b2c388924442439dedc4018b515ac4" name="defaultmaterial">
      <instance_effect url="#b3e9c34bf88c47338d7a942b5e438a88"/>
    </material>
    <material id="a90033df245f4120849d3e3c705c73e0" name="defaultmaterial">
      <instance_effect url="#5071a5a2640049e1b2ad3e60628e3084"/>
    </material>
    <material id="baa0156000ac4098aa4a36cb5761c7e1" name="defaultmaterial">
      <instance_effect url="#405d59619fd54c5cbc827aefa9269503"/>
    </material>
  </library_materials>
  <library_visual_scenes>
    <visual_scene id="scene">
      <node id="node0" name="node0">
        <instance_geometry url="#a2e126e39af34c92ad7a520807e8730a">
          <bind_material>
            <technique_common>
              <instance_material symbol="material0" target="#48b2c388924442439dedc4018b515ac4"/>
            </technique_common>
          </bind_material>
        </instance_geometry>
      </node>
      <node id="node1" name="node1">
        <instance_geometry url="#ab01679f42db48fc8861a409df555829">
          <bind_material>
            <technique_common>
              <instance_material symbol="material1" target="#a90033df245f4120849d3e3c705c73e0"/>
            </technique_common>
          </bind_material>
        </instance_geometry>
      </node>
      <node id="node2" name="node2">
        <instance_geometry url="#9d4061bf1ac145248df2e22691cd2edd">
          <bind_material>
            <technique_common>
              <instance_material symbol="material2" target="#baa0156000ac4098aa4a36cb5761c7e1"/>
            </technique_common>
          </bind_material>
        </instance_geometry>
      </node>
    </visual_scene>
  </library_visual_scenes>
  <scene>
    <instance_visual_scene url="#scene"/>
  </scene>
</COLLADA>
